<svg class="svg-error" width="645" height="547" viewBox="0 0 645 547" fill="none" xmlns="http://www.w3.org/2000/svg">
    <path opacity="0.31" d="M630.791 424.301H14.1841C6.62416 424.301 0.324219 418.158 0.324219 410.441C0.324219 402.881 6.46666 396.581 14.1841 396.581H630.791C638.351 396.581 644.651 402.723 644.651 410.441C644.651 418.158 638.508 424.301 630.791 424.301Z" fill="url(#paint0_linear)" fill-opacity="0.5"/>
    <path d="M24.4219 403.669V233.413H119.079V259.4H52.2991V304.917H109.786V330.432H52.2991V377.366H119.079V403.669H24.4219Z" fill="url(#paint1_linear)"/>
    <path d="M215.31 403.669L189.796 332.794H168.061V403.669H140.184V233.413H194.993C202.081 233.413 208.538 234.358 214.523 236.405C220.508 238.453 225.705 241.445 230.115 245.54C234.368 249.635 237.833 254.675 240.195 260.817C242.715 266.96 243.818 274.047 243.818 282.237C243.818 292.947 241.455 302.24 237.045 310.114C232.478 317.989 225.705 323.974 216.728 327.912L245.865 403.511H215.31V403.669ZM216.57 282.237C216.57 274.205 214.523 268.377 210.428 264.44C206.333 260.66 200.506 258.612 192.788 258.612H168.061V307.279H192.473C199.876 307.279 205.703 305.232 209.955 300.979C214.365 296.885 216.57 290.585 216.57 282.237Z" fill="url(#paint2_linear)"/>
    <path d="M344.459 403.669L318.944 332.794H297.209V403.669H269.332V233.413H324.142C331.229 233.413 337.686 234.358 343.671 236.405C349.656 238.453 354.854 241.445 359.264 245.54C363.516 249.635 366.981 254.675 369.344 260.817C371.864 266.96 372.966 274.047 372.966 282.237C372.966 292.947 370.604 302.24 366.036 310.114C361.469 317.989 354.696 323.974 345.719 327.912L374.856 403.511H344.459V403.669ZM345.719 282.237C345.719 274.205 343.671 268.377 339.576 264.44C335.481 260.66 329.654 258.612 321.937 258.612H297.209V307.279H321.779C329.181 307.279 335.009 305.232 339.261 300.979C343.514 296.885 345.719 290.585 345.719 282.237Z" fill="url(#paint3_linear)"/>
    <path d="M498.336 352.009C498.336 360.199 497.076 367.444 494.556 374.059C492.036 380.516 488.413 386.186 483.846 390.754C479.121 395.479 473.766 398.944 467.308 401.464C461.008 403.983 453.921 405.086 446.204 405.086C436.911 405.086 428.879 403.511 422.264 400.519C415.649 397.526 410.136 393.431 406.041 388.234C401.947 383.036 398.797 377.209 396.907 370.436C395.017 363.664 393.914 356.576 393.914 349.016V284.6C393.914 278.615 394.859 272.472 396.749 266.172C398.639 260.03 401.631 254.36 405.726 249.32C409.821 244.28 415.334 240.185 421.949 236.878C428.564 233.57 436.596 231.995 446.361 231.995C455.339 231.995 463.056 233.57 469.671 236.72C476.128 239.87 481.641 243.807 485.893 248.847C490.146 253.887 493.453 259.4 495.501 265.7C497.548 272 498.493 278.3 498.493 284.6V352.009H498.336ZM469.986 284.285C469.986 282.237 469.671 279.717 468.883 276.882C468.096 274.047 466.836 271.212 465.103 268.692C463.371 266.015 460.851 263.81 457.859 261.92C454.866 260.03 450.929 259.085 446.204 259.085C441.479 259.085 437.541 259.872 434.391 261.605C431.241 263.337 428.721 265.385 426.831 267.905C424.941 270.425 423.681 273.102 422.736 276.095C421.949 279.087 421.476 281.765 421.476 284.442L421.791 349.647C421.791 357.836 423.681 364.609 427.461 370.279C431.241 375.791 437.541 378.626 446.519 378.626C452.819 378.626 458.331 376.421 463.056 372.169C467.781 367.759 469.986 361.931 469.986 354.371V284.285Z" fill="url(#paint4_linear)"/>
    <path d="M599.92 403.669L574.405 332.794H552.67V403.669H524.793V233.413H579.602C586.69 233.413 593.147 234.358 599.132 236.405C605.117 238.453 610.315 241.445 614.725 245.54C618.977 249.635 622.442 254.675 624.805 260.817C627.325 266.96 628.427 274.047 628.427 282.237C628.427 292.947 626.065 302.24 621.497 310.114C616.93 317.989 610.157 323.974 601.18 327.912L630.317 403.511H599.92V403.669ZM601.022 282.237C601.022 274.205 598.975 268.377 594.88 264.44C590.785 260.66 584.957 258.612 577.24 258.612H552.513V307.279H576.925C584.327 307.279 590.155 305.232 594.407 300.979C598.975 296.885 601.022 290.585 601.022 282.237Z" fill="url(#paint5_linear)"/>
    <path d="M215.15 51.5024V86.3096" stroke="url(#paint6_linear)" stroke-width="3" stroke-miterlimit="10"/>
    <path d="M281.301 0H149.002V61.2669H281.301V0Z" fill="url(#paint7_linear)"/>
    <path d="M198.14 40.32V45.8324H192.155V40.32H178.453V34.965L189.006 7.71777H195.305L184.911 34.4925H192.155V24.8851H198.14V34.4925H200.975V40.1625H198.14V40.32Z" fill="white"/>
    <path d="M225.231 36.5396C225.231 38.1146 224.917 39.3746 224.444 40.6345C223.972 41.737 223.184 42.8395 222.239 43.627C221.294 44.4145 220.349 45.0445 219.089 45.517C217.987 45.9895 216.727 46.147 215.309 46.147C214.049 46.147 212.789 45.9895 211.529 45.517C210.269 45.0445 209.324 44.4145 208.379 43.627C207.434 42.8395 206.804 41.737 206.174 40.6345C205.702 39.5321 205.387 38.1146 205.387 36.5396V17.0098C205.387 15.4348 205.702 14.1748 206.174 12.9148C206.647 11.6548 207.434 10.7098 208.379 9.92232C209.324 9.13483 210.269 8.50484 211.529 8.03234C212.632 7.55984 213.892 7.40234 215.309 7.40234C216.569 7.40234 217.829 7.55984 219.089 8.03234C220.349 8.50484 221.294 9.13483 222.239 9.92232C223.184 10.7098 223.814 11.8123 224.287 12.9148C224.759 14.1748 225.074 15.4348 225.074 17.0098V36.5396H225.231ZM219.089 17.0098C219.089 15.7498 218.774 14.8048 217.987 14.1748C217.357 13.5448 216.412 13.2298 215.309 13.2298C214.207 13.2298 213.262 13.5448 212.632 14.1748C212.002 14.8048 211.529 15.7498 211.529 17.0098V36.5396C211.529 37.7996 211.844 38.7446 212.632 39.3745C213.262 40.0045 214.207 40.3195 215.309 40.3195C216.412 40.3195 217.357 40.0045 217.987 39.3745C218.617 38.7446 219.089 37.7996 219.089 36.5396V17.0098Z" fill="white"/>
    <path d="M249.013 40.32V45.8324H243.029V40.32H229.326V34.965L239.879 7.71777H246.178L235.784 34.4925H243.029V24.8851H249.013V34.4925H251.848V40.1625H249.013V40.32Z" fill="white"/>
    <path d="M463.843 222.073C465.261 223.49 466.048 225.853 466.521 227.585C467.623 230.893 468.726 234.358 469.828 237.665C470.931 241.13 472.033 244.595 471.403 248.06C471.088 249.478 470.616 250.895 469.356 251.525C468.568 251.998 467.623 251.998 466.678 251.84C464.316 251.368 462.583 249.163 461.638 246.958C460.693 244.753 460.379 242.233 459.434 240.028C457.859 236.09 454.866 231.995 450.456 231.523C448.251 231.208 445.259 231.05 443.684 229.16C442.109 227.27 441.951 222.86 444.156 221.443C444.944 220.97 445.731 220.655 446.676 220.498C449.511 220.025 452.346 220.183 455.181 220.498C457.701 220.655 460.221 220.183 462.583 221.285C463.056 221.443 463.528 221.758 463.843 222.073Z" fill="white" stroke="url(#paint8_linear)" stroke-miterlimit="10"/>
    <path d="M222.87 98.2788C223.343 96.2313 223.658 94.3413 224.13 92.2938C224.918 88.0414 227.28 83.6314 223.973 80.0089C221.138 76.7015 214.995 77.804 211.53 79.8514C208.065 81.7414 205.86 85.8364 206.648 89.6164C207.435 92.9238 210.428 95.6013 213.893 95.6013C212.948 98.5938 212.16 101.586 211.373 104.421C210.27 108.674 212.948 110.249 216.728 109.304C217.673 109.146 218.618 108.831 219.405 108.201C220.508 107.256 220.98 105.839 221.295 104.421C221.768 102.531 222.398 100.484 222.87 98.2788Z" fill="white" stroke="url(#paint9_linear)" stroke-miterlimit="10"/>
    <path d="M450.454 217.033C449.824 216.876 449.352 216.718 448.722 216.718C430.767 213.411 411.08 207.898 392.652 209.631C388.715 209.946 384.778 210.733 380.84 211.048C367.453 211.836 354.538 207.111 341.623 204.276C336.426 203.173 331.071 202.543 325.873 201.441C319.416 200.181 312.801 201.441 306.343 200.653C300.673 199.866 295.161 197.503 289.491 198.133C282.246 199.078 275.789 203.646 273.741 210.891C272.796 214.513 273.269 218.451 274.056 222.073C274.844 225.538 276.261 229.161 279.254 230.893C285.711 234.516 297.681 232.153 304.768 232.311C314.376 232.468 323.983 232.783 333.433 233.098C352.333 233.728 371.233 234.358 389.975 233.886C409.347 233.413 428.877 233.886 448.249 234.516C449.352 228.531 449.982 222.703 450.454 217.033Z" fill="url(#paint10_linear)"/>
    <path d="M131.364 254.833C128.529 257.825 127.112 261.92 126.009 265.858C125.379 268.22 125.064 270.74 125.852 272.945C126.639 275.78 129.317 278.457 132.624 277.827C134.672 277.355 136.247 275.15 136.247 273.102C136.247 272 135.617 270.897 134.829 270.11C134.987 269.165 135.144 268.22 135.302 267.275C135.302 266.96 135.459 266.488 135.774 266.33C136.719 265.385 137.034 266.803 136.877 267.433C136.877 268.062 136.089 269.795 137.034 270.267C137.507 270.425 137.979 269.795 138.137 269.165C138.609 267.118 138.767 265.07 138.924 263.023C139.082 261.133 139.239 259.243 139.397 257.353C139.397 256.723 139.554 256.093 139.397 255.463C139.082 253.73 137.192 252.155 135.302 252.313C133.884 252.628 132.467 253.73 131.364 254.833Z" fill="white" stroke="url(#paint11_linear)" stroke-miterlimit="10"/>
    <path opacity="0.31" d="M500.067 152.616L498.65 153.246C498.177 153.404 497.705 153.246 497.39 152.931C495.972 151.199 494.712 149.939 492.98 148.994C492.665 148.836 492.507 148.206 492.507 147.891L493.137 145.844C493.295 145.371 492.98 144.741 492.507 144.584L488.412 143.009C487.94 142.851 487.31 143.009 487.152 143.639L486.365 145.686C486.207 146.159 485.735 146.316 485.42 146.316C483.53 146.159 481.325 146.316 479.435 146.789C478.962 146.946 478.332 146.789 478.175 146.316L477.23 144.426C477.072 143.954 476.6 143.166 476.127 143.481L472.032 145.371C471.56 145.529 471.402 146.631 471.56 147.104L472.505 148.994C472.662 149.466 472.662 149.781 472.347 150.096C470.93 151.199 469.67 152.616 468.725 154.191C468.41 154.506 468.095 154.664 467.622 154.506L465.732 153.719C465.26 153.561 464.63 153.719 464.472 154.349L463.055 158.444C462.897 158.916 463.055 159.546 463.685 159.704L465.732 160.491C466.205 160.649 466.362 161.121 466.362 161.436C466.047 163.326 466.205 165.059 466.677 167.264C466.835 167.736 466.52 168.209 466.205 168.366L464.472 169.154C464 169.311 463.685 169.941 463.842 170.414L465.732 174.509C465.89 174.981 466.52 174.981 467.15 174.824L468.882 174.036C469.355 173.879 469.827 174.036 470.142 174.351C471.245 175.769 472.662 177.029 474.395 178.131C474.71 178.446 474.867 178.919 474.71 179.234L474.08 180.966C473.922 181.439 474.08 182.069 474.71 182.226L478.805 183.644C479.277 183.801 479.907 183.486 480.065 183.014L480.695 181.281C480.852 180.809 481.325 180.494 481.797 180.651C483.687 180.809 485.577 180.809 487.31 180.494C487.782 180.336 488.097 180.651 488.412 181.124L489.357 183.014C489.515 183.486 490.145 183.486 490.775 183.171L494.87 181.281C495.342 181.124 495.342 180.809 495.027 180.336L494.082 178.446C493.925 177.974 494.24 177.501 494.555 177.186C496.13 175.926 497.547 174.351 498.65 172.776C498.965 172.461 499.437 172.304 499.752 172.304L501.642 172.934C502.115 173.091 502.745 172.776 502.902 172.304L504.319 168.209C504.477 167.736 504.162 167.106 503.689 166.949L502.115 166.476C501.642 166.319 501.327 165.846 501.485 165.531C501.642 163.641 501.485 161.594 501.17 159.861C501.012 159.389 501.327 158.916 501.642 158.759L503.06 158.129C503.532 157.971 503.532 157.656 503.217 157.184L501.327 153.089C500.697 152.774 500.54 152.459 500.067 152.616ZM487.467 171.989C482.742 174.194 477.23 172.146 475.025 167.579C472.82 162.854 474.867 157.341 479.435 155.136C484.16 152.931 489.672 154.979 491.877 159.546C494.082 164.271 492.192 169.784 487.467 171.989Z" fill="url(#paint12_linear)" fill-opacity="0.5"/>
    <path opacity="0.31" d="M550.309 179.549L548.419 180.494C547.789 180.809 547.159 180.494 546.844 180.021C544.954 177.659 543.064 176.084 541.017 174.666C540.544 174.351 540.229 173.721 540.544 173.091L541.489 170.256C541.647 169.626 541.332 168.839 540.702 168.524L535.032 166.476C534.402 166.161 533.614 166.634 533.299 167.264L532.197 170.099C532.039 170.571 531.409 171.044 530.937 170.886C528.417 170.571 525.424 170.886 522.904 171.359C522.274 171.516 521.487 171.359 521.172 170.729L519.912 168.209C519.597 167.579 519.124 166.634 518.494 166.949L513.139 169.469C512.509 169.784 512.194 171.044 512.509 171.674L513.769 174.194C514.084 174.824 513.927 175.296 513.454 175.769C511.564 177.344 509.832 179.234 508.572 181.281C508.257 181.754 507.627 182.069 506.997 181.754L504.477 180.809C503.847 180.494 503.06 180.966 502.745 181.596L500.855 187.109C500.697 187.739 501.012 188.526 501.642 188.841L504.477 189.944C505.107 190.101 505.422 190.731 505.265 191.361C504.95 193.881 504.95 196.401 505.737 199.236C505.895 199.866 505.58 200.496 505.107 200.811L502.745 201.913C502.115 202.228 501.642 203.016 501.957 203.646L504.477 209.001C504.792 209.631 505.58 209.631 506.367 209.316L508.73 208.213C509.202 207.898 509.99 208.213 510.304 208.686C511.879 210.576 513.769 212.466 515.974 213.726C516.447 214.041 516.762 214.671 516.447 215.301L515.502 217.663C515.187 218.293 515.659 219.081 516.289 219.396L521.802 221.286C522.432 221.601 523.219 221.128 523.534 220.498L524.322 218.136C524.479 217.506 525.109 217.191 525.739 217.191C528.259 217.506 530.779 217.348 533.299 216.876C533.929 216.718 534.402 217.033 534.717 217.663L535.819 220.183C536.134 220.813 536.922 220.813 537.709 220.498L543.064 217.978C543.694 217.663 543.694 217.348 543.379 216.718L542.277 214.198C541.962 213.726 542.434 212.938 542.907 212.466C544.954 210.891 547.002 208.686 548.419 206.481C548.734 206.008 549.364 205.693 549.994 206.008L552.514 206.796C553.144 206.953 553.932 206.638 554.247 206.008L556.294 200.496C556.609 199.866 556.137 199.078 555.507 198.763L553.302 198.133C552.672 197.976 552.357 197.346 552.357 196.716C552.672 194.196 552.514 191.361 552.042 188.999C551.884 188.369 552.199 187.739 552.672 187.424L554.562 186.479C555.192 186.164 555.034 185.849 554.719 185.219L552.199 179.864C551.097 179.706 550.939 179.234 550.309 179.549ZM533.299 205.693C526.999 208.686 519.439 206.008 516.447 199.708C513.454 193.409 516.132 185.849 522.432 182.856C528.732 179.864 536.292 182.541 539.284 188.841C542.277 195.298 539.599 202.701 533.299 205.693Z" fill="url(#paint13_linear)" fill-opacity="0.5"/>
    <path opacity="0.31" d="M32.7679 499.271C28.3579 498.641 23.948 498.326 19.853 496.593C14.9706 494.546 10.5606 489.663 11.5056 484.466C12.4506 479.899 17.0181 477.064 21.5855 476.434C26.153 475.961 30.7204 477.221 35.1304 478.324C42.6903 480.214 50.4077 481.631 58.1252 482.576C69.3076 483.836 81.5925 484.309 90.4124 491.396C96.2398 496.121 100.492 503.681 107.895 505.098C109.47 505.413 111.045 505.413 112.462 505.886C113.88 506.358 115.455 507.461 115.612 509.036C116.085 512.186 108.21 512.658 106.005 513.131C99.5473 514.863 93.4049 517.226 87.1049 519.116C80.49 521.006 73.245 520.533 66.4726 519.903C59.7002 519.273 51.8252 518.171 47.8878 512.501C45.8403 509.508 45.0528 505.728 42.5328 503.208C40.6428 501.318 37.9654 500.373 35.4454 499.901C34.6579 499.428 33.7129 499.271 32.7679 499.271Z" fill="url(#paint14_linear)" fill-opacity="0.5"/>
    <path d="M14.025 471.709C13.2375 475.331 14.025 478.953 16.0725 481.788C17.805 484.151 20.325 485.883 23.4749 486.671C26.9399 487.458 30.2474 486.828 32.9249 485.096L101.437 499.901L105.217 482.576L36.5473 467.771C34.0274 464.779 31.5074 463.046 28.8299 462.416C25.6799 461.629 22.215 462.259 19.5375 464.149C16.7025 465.724 14.655 468.401 14.025 471.709ZM23.4749 471.078L23.6324 470.921C23.9474 470.764 24.2624 470.764 24.5774 470.606H24.7349C25.3649 470.449 25.9949 470.449 26.6249 470.606C28.1999 470.921 29.4599 472.968 29.4599 474.543C29.3024 476.276 28.1999 477.851 26.3099 478.166C26.4674 478.166 26.7824 478.008 26.9399 478.008C25.9949 478.323 25.2074 478.481 24.2624 478.166C23.3174 477.851 22.3725 477.063 21.9 476.276C21.1125 474.543 21.585 472.023 23.4749 471.078Z" fill="url(#paint15_linear)"/>
    <path d="M33.5547 479.583L102.067 494.388" stroke="white" stroke-miterlimit="10"/>
    <path d="M35.1289 472.811L103.641 487.616" stroke="white" stroke-miterlimit="10"/>
    <path d="M93.2473 490.136C92.3023 494.546 93.0898 498.956 95.4522 502.736C95.6097 503.051 95.7672 503.366 96.0822 503.524C98.4447 506.831 101.91 509.194 106.005 509.981C109.785 510.769 113.722 510.296 117.187 508.564L119.392 507.461L106.635 498.641L113.565 488.719L126.007 497.381L126.164 494.704C126.637 486.514 121.124 479.269 113.092 477.379C104.115 475.331 95.1372 481.001 93.2473 490.136Z" fill="white" stroke="url(#paint16_linear)" stroke-miterlimit="10"/>
    <path opacity="0.31" d="M142.23 479.74C133.725 478.795 123.33 475.645 121.597 467.298C120.022 460.053 126.322 452.966 133.567 450.761C140.812 448.556 148.372 450.131 155.774 451.076C166.642 452.651 244.761 453.753 242.556 469.188C241.454 476.905 204.126 478.638 197.039 479.425C178.612 481.315 160.342 481.788 142.23 479.74Z" fill="url(#paint17_linear)" fill-opacity="0.5"/>
    <path d="M207.748 455.014L206.488 459.896L147.426 449.501L148.686 444.619L207.748 455.014Z" fill="url(#paint18_linear)"/>
    <path d="M250.589 456.116C250.747 456.273 250.747 456.431 250.904 456.588C252.479 458.793 253.109 461.47 252.637 463.99C251.692 469.345 246.337 473.125 240.667 472.023L183.18 462.258L186.172 443.201L244.132 452.021C246.652 452.808 249.014 454.068 250.589 456.116Z" fill="white" stroke="url(#paint19_linear)" stroke-miterlimit="10"/>
    <path d="M159.082 437.373L166.642 448.241L165.225 452.651L155.302 459.266L132.938 449.816L135.3 437.216L159.082 437.373Z" fill="white" stroke="url(#paint20_linear)" stroke-miterlimit="10"/>
    <path d="M199.717 452.178L252.794 460.683" stroke="url(#paint21_linear)" stroke-miterlimit="10"/>
    <path d="M198.613 458.793L251.533 467.298" stroke="url(#paint22_linear)" stroke-miterlimit="10"/>
    <path d="M187.748 463.203L191.528 443.988" stroke="url(#paint23_linear)" stroke-miterlimit="10"/>
    <path d="M140.025 449.344L152.468 454.069" stroke="url(#paint24_linear)" stroke-miterlimit="10"/>
    <path d="M186.33 205.221C180.346 204.433 174.203 206.166 168.533 207.111C166.171 207.583 163.966 208.056 161.603 208.528C158.768 209.158 155.618 209.473 152.941 210.733C148.846 212.623 145.853 216.403 143.491 220.341C141.128 224.278 139.238 228.53 137.348 232.94C134.198 239.87 131.521 246.8 128.686 253.73C128.529 254.203 128.686 254.675 129.159 254.833C133.411 256.723 137.506 258.928 141.601 261.133C141.758 261.29 142.073 261.133 142.073 260.975C143.176 257.51 157.351 234.2 160.658 232.625C162.391 231.838 165.068 231.68 166.958 231.05C171.211 229.79 175.463 228.215 179.401 226.325C183.181 224.593 186.645 222.545 190.11 220.183C191.213 219.396 192.158 218.293 192.788 217.033C195.308 211.206 192.315 206.166 186.33 205.221Z" fill="white" stroke="url(#paint25_linear)" stroke-miterlimit="10"/>
    <path d="M366.351 288.695C365.249 286.647 363.989 284.757 362.886 282.71C362.256 281.45 361.784 280.19 360.682 279.245C359.264 277.985 357.217 277.67 355.169 277.355C352.334 277.04 349.342 276.567 346.664 277.355C345.562 277.67 344.302 278.142 343.514 278.93C341.152 281.292 343.357 285.545 345.719 287.277C348.239 289.01 351.232 289.482 353.594 291.372C355.957 293.42 357.374 296.255 358.792 299.09C360.051 301.767 361.469 304.445 362.729 307.122C363.044 307.595 363.201 308.225 363.831 308.382C364.146 308.54 364.461 308.382 364.776 308.382C368.084 307.595 370.131 303.972 370.131 300.507C370.446 295.94 368.556 292.317 366.351 288.695Z" fill="white" stroke="url(#paint26_linear)" stroke-miterlimit="10"/>
    <path d="M160.185 228.216C162.39 230.263 165.068 231.838 167.588 232.625C170.58 233.413 174.203 232.94 176.093 230.421C177.825 228.216 178.613 224.436 181.29 223.963C182.078 223.806 183.023 224.121 183.81 224.278C187.748 225.538 191.685 227.743 195.78 227.113C198.457 226.798 200.82 225.223 202.552 223.176C204.6 220.813 205.86 217.821 205.387 214.671C204.127 208.686 196.41 207.268 191.37 207.111C184.598 206.638 177.668 206.796 171.21 205.378C166.328 204.276 162.233 204.433 158.295 208.528C154.673 212.308 154.043 218.451 156.248 223.176C157.193 224.908 158.61 226.641 160.185 228.216Z" fill="white" stroke="url(#paint27_linear)" stroke-miterlimit="10"/>
    <path d="M197.985 190.73C189.953 191.518 187.433 196.873 183.18 203.015C179.715 208.055 176.565 215.458 180.975 220.813C184.598 225.065 189.323 226.955 193.89 229.633C197.828 231.838 200.978 233.728 206.018 233.413C218.145 232.94 230.587 234.358 242.872 234.2C250.747 234.2 258.307 234.2 265.867 231.838C272.482 229.79 274.844 223.333 276.734 216.875C278.467 210.26 279.412 200.968 274.844 195.14C274.214 194.353 273.584 193.723 272.797 193.093C271.694 192.148 270.277 191.518 269.017 191.045C266.497 189.943 263.662 188.998 260.985 189.628C260.355 189.786 259.725 189.943 259.252 190.1C253.74 191.833 248.385 192.463 242.557 193.093C236.1 193.723 229.327 193.093 222.87 192.463C214.838 191.99 206.333 189.943 197.985 190.73Z" fill="white" stroke="url(#paint28_linear)" stroke-miterlimit="10"/>
    <path d="M349.183 284.757C349.498 282.552 350.285 276.882 348.868 275.465C347.45 274.048 345.56 274.047 343.828 273.575C341.623 273.102 339.26 272.315 337.055 271.685C332.488 270.425 327.763 269.008 323.195 267.59C315.635 265.385 308.548 262.708 301.303 259.715C291.538 255.62 281.301 251.053 270.748 252.155C268.228 252.47 265.866 253.415 263.503 253.888C260.826 254.518 257.991 255.463 255.628 257.195C252.164 259.715 251.376 264.283 252.793 268.22C256.416 277.67 266.181 278.142 274.528 280.505C278.938 281.607 283.506 281.922 288.073 282.237C303.193 283.497 318.155 285.23 333.118 287.592C336.898 288.222 340.678 288.695 344.458 289.325C345.56 289.482 346.82 289.955 348.08 289.955C348.553 288.065 348.868 286.49 349.183 284.757Z" fill="url(#paint29_linear)"/>
    <path d="M258.779 274.992C259.409 275.15 260.039 275.15 260.826 274.992C268.859 272.945 275.789 265.857 280.671 259.4C288.389 249.162 293.114 237.35 300.359 226.955C302.564 223.805 305.556 221.6 307.446 218.135C310.753 211.993 312.328 203.96 311.068 197.188C308.548 184.116 293.429 180.178 281.774 182.068C274.214 183.328 267.441 187.738 259.881 189.156C258.936 189.313 257.991 189.471 257.204 190.101C256.889 190.258 256.731 190.731 256.574 191.203C256.574 200.495 256.574 209.63 256.574 218.923C256.416 224.593 257.204 231.995 256.416 236.72C255.944 239.555 253.581 242.862 252.794 245.697C250.589 252.47 249.959 259.715 252.322 266.487C252.951 269.165 255.471 274.047 258.779 274.992Z" fill="url(#paint30_linear)"/>
    <path d="M217.672 215.616C217.829 215.931 217.987 216.246 218.144 216.561L217.672 215.616Z" fill="url(#paint31_linear)"/>
    <path d="M215.311 205.851C217.988 201.598 220.351 196.558 222.241 191.518C224.76 184.903 226.493 177.973 227.123 171.516C227.753 165.531 227.438 159.388 226.965 153.404C225.863 135.606 225.705 117.651 223.658 99.854C221.768 100.799 208.696 102.059 208.696 101.586C206.333 121.274 203.813 140.961 201.451 160.648C200.821 165.216 200.348 169.941 198.773 174.351C197.198 178.918 194.678 183.171 192.316 187.423C188.378 194.668 179.086 207.426 180.818 215.773" fill="white"/>
    <path d="M215.311 205.851C217.988 201.598 220.351 196.558 222.241 191.518C224.76 184.903 226.493 177.973 227.123 171.516C227.753 165.531 227.438 159.388 226.965 153.404C225.863 135.606 225.705 117.651 223.658 99.854C221.768 100.799 208.696 102.059 208.696 101.586C206.333 121.274 203.813 140.961 201.451 160.648C200.821 165.216 200.348 169.941 198.773 174.351C197.198 178.918 194.678 183.171 192.316 187.423C188.378 194.668 179.086 207.426 180.818 215.773" stroke="url(#paint32_linear)" stroke-miterlimit="10"/>
    <path d="M256.732 235.145C261.772 225.537 267.757 216.56 274.687 208.37" stroke="white" stroke-miterlimit="10"/>
    <path d="M219.089 212.623C218.774 210.103 218.301 207.583 217.986 205.063C217.829 203.803 217.671 202.543 217.356 201.283C217.356 201.126 217.356 201.126 217.199 200.968C214.679 206.166 210.269 210.103 205.701 213.411C209.954 215.773 214.206 218.293 218.459 220.656C219.719 221.286 219.246 213.568 219.089 212.623Z" fill="url(#paint33_linear)"/>
    <path d="M173.73 214.828C173.73 215.615 173.1 216.56 172.47 217.19C180.03 220.97 181.29 236.248 180.502 243.493C180.03 248.375 178.612 253.1 178.14 257.982C177.51 265.227 179.4 272.945 184.439 278.3C190.424 284.757 200.662 286.805 208.852 283.655C217.042 280.505 223.342 272.787 225.074 264.125C229.484 242.863 208.852 224.12 195.622 210.418C190.424 205.063 183.809 201.283 176.092 201.598C173.73 201.755 171.525 202.07 169.162 202.7C163.335 203.96 158.137 206.165 155.145 211.363C153.412 214.513 150.105 217.033 149.16 220.498C148.372 223.175 149.16 226.168 151.207 228.058C153.255 229.948 156.405 230.263 158.767 228.845C163.965 225.695 162.232 214.355 169.32 214.67C169.162 214.04 169.635 213.41 170.265 213.095C170.895 212.78 171.525 212.78 172.155 212.938C172.47 212.938 172.785 212.938 172.942 213.095C173.73 213.41 173.73 214.355 173.73 214.828Z" fill="url(#paint34_linear)"/>
    <path d="M169.793 230.893C169.32 229.318 169.635 227.428 170.738 226.01L169.793 230.893Z" fill="white"/>
    <path d="M169.793 230.893C169.32 229.318 169.635 227.428 170.738 226.01" stroke="url(#paint35_linear)" stroke-miterlimit="10"/>
    <path d="M309.18 210.576C306.187 218.136 300.36 224.436 297.367 232.153" stroke="white" stroke-miterlimit="10"/>
    <path opacity="0.31" d="M519.752 467.141C519.122 468.243 518.807 469.503 518.807 470.921C518.964 473.441 520.854 475.803 523.217 476.748C525.579 477.851 528.257 478.008 530.777 477.851C538.966 477.536 546.841 475.331 554.401 472.338C561.016 469.661 569.049 466.983 574.246 461.944C575.506 460.684 576.451 458.479 575.349 457.061C574.561 455.959 573.144 455.644 571.726 455.329C561.646 453.596 551.251 454.069 541.329 456.589C535.816 458.006 523.217 460.841 519.752 467.141Z" fill="url(#paint36_linear)" fill-opacity="0.5"/>
    <path d="M561.962 390.282C561.962 389.967 561.962 389.809 562.119 389.494C562.592 386.502 564.954 384.297 566.529 381.777C568.104 379.257 568.892 376.422 569.049 373.587C569.207 368.075 569.049 361.145 571.412 356.105C573.459 351.537 578.499 349.175 581.176 344.765C582.594 342.402 583.066 339.567 583.696 336.89C584.641 332.637 586.374 328.385 589.209 325.078C591.414 322.558 594.249 320.51 597.084 318.62C599.919 316.73 602.596 314.998 605.746 313.895C609.841 312.478 614.409 312.005 616.299 316.258C617.874 319.723 617.086 324.447 615.511 327.755C614.094 330.59 611.889 332.795 609.841 335.157C606.219 339.252 602.911 343.505 599.919 348.072C599.131 349.332 598.186 350.75 598.029 352.167C597.871 353.585 598.344 355.16 598.501 356.577C599.446 363.98 596.454 369.965 590.626 374.532C586.059 378.155 583.224 380.044 582.121 386.344C581.491 390.124 581.176 394.219 578.971 397.527C578.184 398.787 576.924 400.047 575.979 401.149C572.199 405.559 569.837 411.229 569.207 417.214C568.892 420.207 568.262 426.664 563.694 425.404C557.867 423.829 558.654 406.977 560.387 403.039C561.174 401.307 562.119 399.732 562.592 397.999C562.749 395.164 561.804 392.802 561.962 390.282Z" fill="url(#paint37_linear)"/>
    <path d="M537.707 402.567C537.707 400.362 538.022 398.157 538.652 395.952C539.597 393.117 541.015 390.282 540.542 387.447C539.755 382.564 534.242 380.044 532.51 375.477C530.147 369.177 535.66 363.034 536.92 356.419C538.022 350.907 535.817 345.237 534.4 339.725C533.77 337.362 530.305 323.975 537.235 326.022C538.337 326.337 538.967 327.44 539.597 328.385C542.904 334.842 543.849 343.032 549.204 348.229C551.409 350.434 554.244 351.852 556.292 354.057C559.599 357.679 560.544 363.034 559.914 367.917C558.654 376.422 550.149 382.092 553.614 390.754C555.032 394.377 557.394 397.527 559.284 400.834C563.379 407.764 571.569 435.641 555.032 426.034C546.369 421.151 537.865 412.804 537.707 402.567Z" fill="white" stroke="url(#paint38_linear)" stroke-miterlimit="10"/>
    <path d="M570.309 403.196C570.466 403.039 570.466 402.881 570.624 402.724C572.671 398.786 575.506 395.322 577.554 391.384C579.286 388.234 580.546 384.769 582.436 381.777C584.326 378.784 587.004 375.949 590.469 374.847C592.674 374.217 595.981 374.532 597.714 376.264C598.186 376.737 598.659 377.367 599.131 377.997C600.076 378.942 601.336 379.572 602.596 380.202C608.581 383.824 611.101 390.597 613.306 396.897C615.668 403.826 618.503 409.654 619.606 416.741C619.763 418.316 619.921 420.206 618.818 421.466C617.873 422.411 616.298 422.569 614.881 422.096C613.621 421.624 612.518 420.679 611.416 419.734C610.156 418.474 608.738 417.214 607.951 415.639C607.321 414.221 607.006 412.804 606.218 411.386C605.273 409.811 603.856 408.709 602.439 407.449C598.501 403.984 595.981 399.889 593.146 395.479C590.311 396.581 587.476 400.361 584.326 402.094C581.649 403.511 577.081 404.141 575.506 407.134C574.089 410.126 574.719 414.379 573.616 417.686C571.254 424.931 565.584 423.986 566.371 416.111C567.001 411.544 568.261 407.134 570.309 403.196Z" fill="white" stroke="url(#paint39_linear)" stroke-miterlimit="10"/>
    <path d="M587.95 417.057H534.4V423.672H538.653L544.953 459.424H577.397L583.697 423.672H587.95V417.057Z" fill="url(#paint40_linear)"/>
    <path d="M537.234 424.301H585.114" stroke="white" stroke-miterlimit="10"/>
    <path d="M537.076 372.17C537.772 372.17 538.336 371.606 538.336 370.91C538.336 370.214 537.772 369.65 537.076 369.65C536.381 369.65 535.816 370.214 535.816 370.91C535.816 371.606 536.381 372.17 537.076 372.17Z" fill="url(#paint41_linear)"/>
    <path d="M550.149 376.107C550.149 376.895 549.519 377.367 548.889 377.367C548.101 377.367 547.629 376.737 547.629 376.107C547.629 375.477 548.259 374.847 548.889 374.847C549.519 374.847 550.149 375.477 550.149 376.107Z" fill="url(#paint42_linear)"/>
    <path d="M547.473 390.597C547.473 391.385 546.843 391.857 546.213 391.857C545.426 391.857 544.953 391.227 544.953 390.597C544.953 389.967 545.583 389.337 546.213 389.337C546.843 389.18 547.473 389.81 547.473 390.597Z" fill="url(#paint43_linear)"/>
    <path d="M555.348 361.775C555.348 362.563 554.718 363.035 554.088 363.035C553.301 363.035 552.828 362.405 552.828 361.775C552.828 360.988 553.458 360.515 554.088 360.515C554.718 360.515 555.348 361.145 555.348 361.775Z" fill="url(#paint44_linear)"/>
    <path d="M539.598 335.788C539.598 336.575 538.968 337.048 538.338 337.048C537.708 337.048 537.078 336.418 537.078 335.788C537.078 335 537.708 334.528 538.338 334.528C538.968 334.528 539.598 335 539.598 335.788Z" fill="url(#paint45_linear)"/>
    <path d="M556.606 407.45C557.302 407.45 557.866 406.886 557.866 406.19C557.866 405.494 557.302 404.93 556.606 404.93C555.91 404.93 555.346 405.494 555.346 406.19C555.346 406.886 555.91 407.45 556.606 407.45Z" fill="url(#paint46_linear)"/>
    <path d="M546.211 403.512C546.211 404.3 545.581 404.772 544.951 404.772C544.164 404.772 543.691 404.142 543.691 403.512C543.691 402.725 544.321 402.252 544.951 402.252C545.581 402.252 546.211 402.882 546.211 403.512Z" fill="url(#paint47_linear)"/>
    <path d="M544.95 355.318C544.95 356.105 544.32 356.578 543.69 356.578C542.902 356.578 542.43 355.948 542.43 355.318C542.43 354.53 543.06 354.058 543.69 354.058C544.32 354.058 544.95 354.53 544.95 355.318Z" fill="url(#paint48_linear)"/>
    <path opacity="0.31" d="M292.799 543.055C283.979 541.322 275.159 539.117 266.497 536.597C258.307 534.392 249.644 531.557 244.132 525.1C227.595 505.727 254.527 485.725 268.859 477.378C280.514 470.605 294.374 462.573 308.234 464.62C316.109 465.723 323.511 469.03 330.756 472.338C355.011 483.363 379.108 495.805 405.568 499.27C411.08 500.058 456.912 501.16 454.865 508.72C454.55 509.98 453.447 511.082 452.345 511.87C442.738 519.745 430.768 523.84 418.955 527.777C389.346 537.7 358.791 547.307 327.606 546.992C315.951 546.835 304.296 545.417 292.799 543.055Z" fill="url(#paint49_linear)" fill-opacity="0.5"/>
    <path d="M309.179 484.623C305.399 491.71 311.384 496.75 316.266 501.475C317.684 502.735 319.101 503.995 320.834 504.783C323.826 506.043 327.291 505.728 330.441 505.413C353.751 502.893 377.376 499.743 400.213 494.86C405.568 493.758 410.923 492.34 416.278 491.08C423.208 489.505 430.453 486.513 437.225 483.835C443.998 481.158 450.298 477.378 455.81 472.653C455.968 472.496 455.968 472.496 456.125 472.338C457.07 471.708 457.858 471.078 458.645 469.818C461.48 466.511 463.528 462.416 461.795 458.636C459.905 454.226 454.393 452.966 449.51 452.651C435.178 451.548 421.003 453.123 406.828 455.171C397.378 456.588 387.928 458.636 378.321 459.738C368.556 460.998 359.421 459.896 349.656 460.053C333.276 460.526 317.211 469.976 309.179 484.623Z" fill="url(#paint50_linear)"/>
    <path d="M350.6 449.973C344.773 447.611 338.631 449.816 335.323 443.043C334.221 440.681 333.591 438.003 332.803 435.326C330.126 427.451 324.298 420.679 316.896 416.899C322.723 411.386 330.441 408.709 337.528 405.086C343.985 401.779 349.97 397.369 355.325 392.486C360.208 387.919 367.925 377.996 363.83 370.752C360.523 364.924 352.49 366.814 347.135 368.074C339.891 369.964 333.433 370.279 326.818 374.531C320.518 378.626 315.163 384.296 310.123 389.966C302.091 398.629 284.609 415.796 296.106 428.081C302.563 435.011 309.178 441.626 317.053 447.138C319.258 448.713 321.463 450.131 323.983 451.233C328.866 453.438 330.756 457.376 335.638 459.581C339.733 461.471 343.985 462.731 348.395 462.888C351.703 463.046 357.058 462.258 357.373 458.321C357.373 454.541 353.593 451.233 350.6 449.973Z" fill="white" stroke="url(#paint51_linear)" stroke-miterlimit="10"/>
    <path d="M432.975 439.263C430.14 443.043 425.258 445.563 420.691 444.461C415.808 443.358 412.658 438.791 409.981 434.538C405.886 427.766 401.948 420.679 399.901 413.119C397.538 404.771 396.593 391.226 404.941 385.714C410.926 381.776 420.533 383.981 425.258 389.021C435.18 400.046 441.795 423.986 434.078 437.531C433.763 438.161 433.448 438.791 432.975 439.263Z" fill="white" stroke="url(#paint52_linear)" stroke-miterlimit="10"/>
    <path d="M417.854 372.012C410.451 364.294 401.789 358.467 390.291 358.782C387.141 358.782 384.149 359.412 380.999 359.412C370.132 359.727 359.422 357.049 349.027 361.302C337.844 365.712 327.607 372.169 317.842 378.942C317.055 379.572 336.112 405.716 338.159 408.079C346.034 402.251 344.144 429.499 343.987 433.279C343.672 442.413 343.514 451.706 345.404 460.683C345.877 460.053 346.349 459.423 347.137 459.266C348.082 459.108 348.712 460.211 349.499 460.368C351.232 460.841 353.752 460.368 355.642 460.368C359.107 460.368 362.729 460.368 366.194 460.368C374.227 460.368 382.416 460.211 390.291 459.108C394.544 458.478 398.639 457.848 402.734 458.006C404.939 450.446 404.151 441.311 404.309 433.751C404.466 426.506 403.994 419.419 404.466 412.174C414.861 409.654 424.941 406.346 434.863 402.409C435.493 402.094 430.139 390.124 429.509 388.864C427.304 384.296 424.469 380.044 421.319 376.107C420.216 374.532 419.114 373.272 417.854 372.012Z" fill="url(#paint53_linear)"/>
    <path d="M360.369 507.775C358.794 509.35 327.294 516.123 327.294 516.123L325.877 500.058L355.172 489.505L360.369 507.775Z" fill="white" stroke="url(#paint54_linear)" stroke-miterlimit="10"/>
    <path d="M440.06 488.561C443.683 486.513 447.463 484.308 451.4 482.891C455.653 481.316 460.22 480.371 463.528 477.221C466.993 473.913 468.095 469.031 468.883 464.306C469.828 459.108 469.828 453.281 468.41 448.241C466.363 440.996 460.535 434.854 453.133 433.121C448.723 432.176 443.84 432.649 439.745 434.696C436.753 436.271 434.075 438.476 431.083 440.051C428.563 441.311 425.885 442.256 423.208 443.201C415.176 446.351 407.931 450.918 400.528 455.328C393.283 459.738 386.668 465.251 379.581 470.133C376.746 472.023 347.451 486.198 347.451 486.356C351.231 494.86 354.539 503.523 358.004 512.185C377.061 509.665 395.331 503.68 413.758 498.64C417.381 497.695 420.846 496.12 424.468 495.333C428.563 494.388 432.5 492.498 436.123 490.608C437.698 489.978 438.958 489.348 440.06 488.561Z" fill="url(#paint55_linear)"/>
    <path d="M326.346 517.855C320.518 518.957 314.691 517.697 308.391 517.067C303.509 516.595 298.469 517.382 293.586 516.752C287.129 515.807 282.089 511.24 281.616 504.625C281.301 501.003 281.144 496.908 283.664 494.073C285.711 491.868 288.861 491.08 291.854 491.395C294.846 491.71 297.681 492.813 300.516 493.758C305.399 495.49 310.281 496.593 315.321 497.695C319.416 498.483 322.881 500.53 326.818 498.64C326.976 498.483 327.291 498.483 327.448 498.483C327.763 498.64 327.763 498.798 327.921 499.113C329.338 503.208 330.598 507.145 331.858 511.398C332.488 513.603 333.433 514.705 331.701 516.122C330.283 517.067 328.078 517.54 326.346 517.855Z" fill="url(#paint56_linear)"/>
    <path d="M389.189 507.775C390.764 509.35 422.264 516.123 422.264 516.123L423.682 500.058L394.387 489.505L389.189 507.775Z" fill="white" stroke="url(#paint57_linear)" stroke-miterlimit="10"/>
    <path d="M308.392 490.451C302.25 488.088 296.423 485.411 290.91 482.103C289.02 481.001 287.13 479.741 285.87 478.008C283.98 475.488 283.35 472.338 282.72 469.346C280.515 458.006 277.523 449.343 285.713 439.736C292.328 431.861 303.195 428.869 312.172 434.539C318 438.161 322.095 444.933 328.552 447.138C332.017 448.398 336.112 448.083 339.577 449.658C342.727 451.076 345.877 453.596 348.87 455.328C356.115 459.738 362.729 465.251 369.817 470.133C372.652 472.023 401.947 486.198 401.947 486.356C398.167 494.86 394.859 503.523 391.394 512.185C372.337 509.665 354.067 503.68 335.64 498.64C326.347 496.278 317.212 493.758 308.392 490.451Z" fill="url(#paint58_linear)"/>
    <path d="M423.207 517.855C429.035 518.958 434.862 517.698 441.162 517.068C446.045 516.596 451.085 517.383 455.967 516.753C462.109 515.808 469.039 509.666 469.354 503.208C469.512 501.161 468.882 499.113 468.094 497.223C467.622 496.278 467.149 495.333 466.519 494.388C465.102 492.498 462.582 491.396 460.219 491.238C456.597 490.923 452.817 492.026 449.352 493.128C445.73 494.231 442.422 494.703 438.957 496.278C434.547 498.168 429.507 498.956 424.625 498.168C423.365 498.011 422.105 497.696 420.845 498.168C418.167 498.956 418.325 503.051 418.167 505.256C417.852 508.721 417.695 512.186 416.277 515.336C418.797 516.595 421.002 517.383 423.207 517.855Z" fill="url(#paint59_linear)"/>
    <path d="M409.191 386.186C409.191 386.029 409.191 386.029 409.191 386.186C409.033 384.769 409.033 383.351 408.876 382.091C408.876 381.461 408.718 380.674 408.876 380.044C409.191 377.996 410.923 376.421 412.341 375.004C413.443 373.901 423.366 364.294 424.153 364.767C427.303 367.129 429.193 365.082 431.398 362.562C432.028 361.774 432.816 360.987 432.816 359.884C432.816 358.939 431.556 357.994 430.768 358.467C432.501 356.419 434.233 354.529 435.966 352.324C437.383 350.434 438.958 349.332 437.856 346.969C436.281 343.032 432.816 340.197 429.036 338.307C426.043 336.889 421.318 334.842 417.853 334.999C414.073 335.314 412.183 338.464 409.348 340.354C409.191 340.512 409.033 340.512 408.876 340.512C408.718 340.512 408.561 340.354 408.403 340.197C407.301 339.252 405.568 339.409 404.466 340.197C403.363 340.984 402.733 342.402 402.103 343.662C401.788 344.449 401.473 345.394 401.631 346.339C401.788 347.284 402.576 348.072 403.521 347.914C402.891 348.072 401.631 353.427 401.473 354.057C400.528 357.522 398.481 359.412 395.961 361.932C393.756 364.294 391.236 366.814 388.086 366.657C386.669 366.657 384.936 366.184 384.149 367.287C383.834 367.602 383.834 368.231 383.834 368.704C383.204 375.791 387.771 381.934 393.441 385.556C396.591 388.076 409.506 393.274 409.191 386.186Z" fill="white" stroke="url(#paint60_linear)" stroke-miterlimit="10"/>
    <path d="M407.145 468.716H326.506C325.088 468.716 323.828 467.613 323.828 466.038V417.371C323.828 415.954 324.931 414.694 326.506 414.694H407.145C408.562 414.694 409.822 415.796 409.822 417.371V466.038C409.822 467.613 408.562 468.716 407.145 468.716Z" fill="url(#paint61_linear)"/>
    <path d="M371.865 440.051C371.865 442.886 369.66 445.091 366.825 445.091C363.99 445.091 361.785 442.886 361.785 440.051C361.785 437.216 363.99 435.011 366.825 435.011C369.66 435.011 371.865 437.374 371.865 440.051Z" fill="url(#paint62_linear)"/>
    <path d="M445.732 337.677C445.574 337.204 445.574 336.574 445.259 336.102C444.787 334.842 443.842 333.582 442.582 332.952C441.637 332.48 440.535 332.322 439.432 332.165C438.172 332.007 436.912 332.007 435.652 332.165C434.392 332.165 433.132 332.322 432.03 332.322C430.14 332.165 428.25 331.535 426.517 330.905C424.785 330.275 422.895 329.487 421.005 329.33C417.067 329.015 414.232 332.007 411.87 334.842C409.192 337.992 407.145 341.614 405.255 345.237C401.475 352.324 400.372 360.987 407.46 366.342C416.752 373.429 427.935 363.822 434.865 357.837C436.282 356.577 437.857 355.789 439.117 354.372C440.535 352.797 441.637 350.907 442.582 349.017C443.527 347.127 444.472 345.394 445.102 343.347C445.574 341.457 446.047 339.567 445.732 337.677ZM414.075 361.144C412.657 360.829 411.082 360.357 409.822 359.412C409.035 358.782 409.98 357.364 410.767 357.994C411.712 358.782 413.287 359.097 414.39 359.412C415.335 359.884 414.862 361.459 414.075 361.144ZM436.282 348.859C435.967 349.804 435.337 350.749 434.707 351.694C431.715 355.632 427.462 360.514 423.21 362.877C423.052 363.034 422.895 363.034 422.737 363.192C421.635 359.254 420.06 355.159 416.437 352.797C413.287 350.749 409.35 350.434 405.727 350.907C406.987 345.394 411.24 336.889 417.697 336.732C420.06 336.732 422.422 337.834 424.312 339.252C426.36 340.669 428.092 342.244 429.982 343.662C432.502 345.079 437.227 345.394 436.282 348.859Z" fill="url(#paint63_linear)"/>
    <path d="M422.42 367.444C422.578 366.971 422.893 366.499 423.05 366.026C424.783 362.404 428.72 360.829 431.713 358.309C433.603 356.734 435.493 355.474 437.383 353.899C438.328 353.111 439.115 352.166 440.06 351.536C440.69 351.221 441.635 351.064 442.108 351.536C442.58 351.851 442.58 352.481 442.738 353.111C443.053 356.891 440.848 359.726 439.115 362.719C437.54 365.396 435.02 366.971 433.288 369.649C431.713 372.169 431.87 375.476 432.185 378.469C432.815 383.509 433.288 388.549 433.918 393.589C434.39 398.314 435.65 402.251 436.753 406.818C438.485 413.748 438.328 421.938 438.485 429.183C438.643 436.428 433.918 445.091 426.358 446.508C411.395 449.501 414.545 428.238 414.23 419.733C413.915 412.961 415.49 406.031 417.065 399.416C418.64 392.644 418.798 385.556 419.9 378.626C420.215 374.846 421.003 370.909 422.42 367.444Z" fill="white" stroke="url(#paint64_linear)" stroke-miterlimit="10"/>
    <path d="M422.42 438.791C422.42 439.421 422.42 440.051 422.263 440.523C422.105 441.783 421.16 443.201 419.743 443.358C418.325 443.516 417.065 442.571 416.12 441.468C412.34 437.216 410.293 431.861 410.293 426.191C410.293 424.616 410.45 422.884 411.395 421.624C412.34 420.364 414.23 419.576 415.648 420.364C416.593 420.994 417.065 422.096 417.38 423.041C418.64 426.506 419.9 429.971 421.16 433.278C421.79 434.853 422.263 436.901 422.42 438.791Z" fill="white"/>
    <path d="M427.618 440.208C426.831 440.681 426.043 440.996 425.256 440.838C424.626 440.838 424.468 441.783 425.098 441.941C426.358 442.256 427.618 442.098 428.406 440.996C428.878 440.523 428.091 439.893 427.618 440.208Z" fill="url(#paint65_linear)"/>
    <path d="M297.996 420.679C297.366 420.049 296.893 419.261 297.051 418.316C297.208 417.687 296.893 417.057 296.106 416.742C295.476 416.584 294.688 416.899 294.531 417.687C294.216 419.419 294.688 421.151 296.106 422.411C297.523 423.671 299.256 421.781 297.996 420.679Z" fill="url(#paint66_linear)"/>
    <path d="M345.404 502.735C353.279 504.625 361.154 506.2 369.187 507.46" stroke="white" stroke-miterlimit="10"/>
    <path d="M398.167 495.175C399.269 492.655 400.372 490.135 401.474 487.773C391.237 482.103 381.314 475.961 371.234 469.976" stroke="white" stroke-miterlimit="10"/>
    <path d="M332.332 497.38C324.929 495.648 317.527 493.285 310.439 490.45" stroke="white" stroke-miterlimit="10"/>
    <defs>
    <linearGradient id="paint0_linear" x1="322.488" y1="396.581" x2="322.488" y2="424.301" gradientUnits="userSpaceOnUse">
    <stop stop-color="#B6E1E8"/>
    <stop offset="1" stop-color="#DCDCDC" stop-opacity="0.63"/>
    </linearGradient>
    <linearGradient id="paint1_linear" x1="24.4219" y1="403.669" x2="133.84" y2="303.436" gradientUnits="userSpaceOnUse">
    <stop stop-color="#483156"/>
    <stop offset="1" stop-color="#39516E"/>
    </linearGradient>
    <linearGradient id="paint2_linear" x1="140.184" y1="403.669" x2="249.995" y2="291.36" gradientUnits="userSpaceOnUse">
    <stop stop-color="#483156"/>
    <stop offset="1" stop-color="#39516E"/>
    </linearGradient>
    <linearGradient id="paint3_linear" x1="269.332" y1="403.669" x2="379.147" y2="291.524" gradientUnits="userSpaceOnUse">
    <stop stop-color="#483156"/>
    <stop offset="1" stop-color="#39516E"/>
    </linearGradient>
    <linearGradient id="paint4_linear" x1="393.914" y1="405.086" x2="505.581" y2="293.922" gradientUnits="userSpaceOnUse">
    <stop stop-color="#483156"/>
    <stop offset="1" stop-color="#39516E"/>
    </linearGradient>
    <linearGradient id="paint5_linear" x1="524.793" y1="403.669" x2="634.608" y2="291.524" gradientUnits="userSpaceOnUse">
    <stop stop-color="#483156"/>
    <stop offset="1" stop-color="#39516E"/>
    </linearGradient>
    <linearGradient id="paint6_linear" x1="215.15" y1="86.3096" x2="217.272" y2="86.2092" gradientUnits="userSpaceOnUse">
    <stop stop-color="#483156"/>
    <stop offset="1" stop-color="#39516E"/>
    </linearGradient>
    <linearGradient id="paint7_linear" x1="149.002" y1="61.2669" x2="169.594" y2="-11.9971" gradientUnits="userSpaceOnUse">
    <stop stop-color="#483156"/>
    <stop offset="1" stop-color="#39516E"/>
    </linearGradient>
    <linearGradient id="paint8_linear" x1="443.47" y1="252.757" x2="459.54" y2="215.063" gradientUnits="userSpaceOnUse">
    <stop stop-color="#257289"/>
    <stop offset="1" stop-color="#188191"/>
    </linearGradient>
    <linearGradient id="paint9_linear" x1="207.128" y1="110.39" x2="227.366" y2="78.9902" gradientUnits="userSpaceOnUse">
    <stop stop-color="#257289"/>
    <stop offset="1" stop-color="#188191"/>
    </linearGradient>
    <linearGradient id="paint10_linear" x1="279.125" y1="235.462" x2="283.219" y2="184.574" gradientUnits="userSpaceOnUse">
    <stop stop-color="#257289"/>
    <stop offset="1" stop-color="#188191"/>
    </linearGradient>
    <linearGradient id="paint11_linear" x1="125.854" y1="278.585" x2="142.836" y2="254.697" gradientUnits="userSpaceOnUse">
    <stop stop-color="#257289"/>
    <stop offset="1" stop-color="#188191"/>
    </linearGradient>
    <linearGradient id="paint12_linear" x1="483.679" y1="142.952" x2="483.679" y2="183.685" gradientUnits="userSpaceOnUse">
    <stop stop-color="#B6E1E8"/>
    <stop offset="1" stop-color="#DCDCDC" stop-opacity="0.63"/>
    </linearGradient>
    <linearGradient id="paint13_linear" x1="528.604" y1="166.376" x2="528.604" y2="221.386" gradientUnits="userSpaceOnUse">
    <stop stop-color="#B6E1E8"/>
    <stop offset="1" stop-color="#DCDCDC" stop-opacity="0.63"/>
    </linearGradient>
    <linearGradient id="paint14_linear" x1="63.5048" y1="476.332" x2="63.5048" y2="520.458" gradientUnits="userSpaceOnUse">
    <stop stop-color="#B6E1E8"/>
    <stop offset="1" stop-color="#DCDCDC" stop-opacity="0.63"/>
    </linearGradient>
    <linearGradient id="paint15_linear" x1="16.7743" y1="500.882" x2="25.1304" y2="449.149" gradientUnits="userSpaceOnUse">
    <stop stop-color="#257289"/>
    <stop offset="1" stop-color="#188191"/>
    </linearGradient>
    <linearGradient id="paint16_linear" x1="93.9686" y1="511.216" x2="109.877" y2="470.575" gradientUnits="userSpaceOnUse">
    <stop stop-color="#257289"/>
    <stop offset="1" stop-color="#188191"/>
    </linearGradient>
    <linearGradient id="paint17_linear" x1="181.978" y1="449.642" x2="181.978" y2="481.074" gradientUnits="userSpaceOnUse">
    <stop stop-color="#B6E1E8"/>
    <stop offset="1" stop-color="#DCDCDC" stop-opacity="0.63"/>
    </linearGradient>
    <linearGradient id="paint18_linear" x1="149.437" y1="460.292" x2="151.538" y2="439.055" gradientUnits="userSpaceOnUse">
    <stop stop-color="#257289"/>
    <stop offset="1" stop-color="#188191"/>
    </linearGradient>
    <linearGradient id="paint19_linear" x1="185.5" y1="472.967" x2="191.962" y2="433.293" gradientUnits="userSpaceOnUse">
    <stop stop-color="#257289"/>
    <stop offset="1" stop-color="#188191"/>
    </linearGradient>
    <linearGradient id="paint20_linear" x1="134.061" y1="459.838" x2="141.488" y2="430.785" gradientUnits="userSpaceOnUse">
    <stop stop-color="#257289"/>
    <stop offset="1" stop-color="#188191"/>
    </linearGradient>
    <linearGradient id="paint21_linear" x1="201.486" y1="460.904" x2="202.231" y2="449.012" gradientUnits="userSpaceOnUse">
    <stop stop-color="#257289"/>
    <stop offset="1" stop-color="#188191"/>
    </linearGradient>
    <linearGradient id="paint22_linear" x1="200.377" y1="467.519" x2="201.124" y2="455.628" gradientUnits="userSpaceOnUse">
    <stop stop-color="#257289"/>
    <stop offset="1" stop-color="#188191"/>
    </linearGradient>
    <linearGradient id="paint23_linear" x1="187.874" y1="463.701" x2="198.707" y2="458.248" gradientUnits="userSpaceOnUse">
    <stop stop-color="#257289"/>
    <stop offset="1" stop-color="#188191"/>
    </linearGradient>
    <linearGradient id="paint24_linear" x1="140.44" y1="454.191" x2="141.403" y2="447.702" gradientUnits="userSpaceOnUse">
    <stop stop-color="#257289"/>
    <stop offset="1" stop-color="#188191"/>
    </linearGradient>
    <linearGradient id="paint25_linear" x1="130.796" y1="262.655" x2="154.684" y2="191.861" gradientUnits="userSpaceOnUse">
    <stop stop-color="#257289"/>
    <stop offset="1" stop-color="#188191"/>
    </linearGradient>
    <linearGradient id="paint26_linear" x1="343.424" y1="309.27" x2="359.872" y2="272.339" gradientUnits="userSpaceOnUse">
    <stop stop-color="#257289"/>
    <stop offset="1" stop-color="#188191"/>
    </linearGradient>
    <linearGradient id="paint27_linear" x1="156.655" y1="233.704" x2="164.886" y2="195.944" gradientUnits="userSpaceOnUse">
    <stop stop-color="#257289"/>
    <stop offset="1" stop-color="#188191"/>
    </linearGradient>
    <linearGradient id="paint28_linear" x1="182.124" y1="235.374" x2="192.865" y2="174.399" gradientUnits="userSpaceOnUse">
    <stop stop-color="#257289"/>
    <stop offset="1" stop-color="#188191"/>
    </linearGradient>
    <linearGradient id="paint29_linear" x1="255.377" y1="290.94" x2="263.299" y2="238.851" gradientUnits="userSpaceOnUse">
    <stop stop-color="#257289"/>
    <stop offset="1" stop-color="#188191"/>
    </linearGradient>
    <linearGradient id="paint30_linear" x1="252.843" y1="277.535" x2="310.832" y2="181.218" gradientUnits="userSpaceOnUse">
    <stop stop-color="#257289"/>
    <stop offset="1" stop-color="#188191"/>
    </linearGradient>
    <linearGradient id="paint31_linear" x1="217.672" y1="216.561" x2="218.27" y2="216.068" gradientUnits="userSpaceOnUse">
    <stop stop-color="#483156"/>
    <stop offset="1" stop-color="#39516E"/>
    </linearGradient>
    <linearGradient id="paint32_linear" x1="182.168" y1="218.78" x2="263.478" y2="134.65" gradientUnits="userSpaceOnUse">
    <stop stop-color="#257289"/>
    <stop offset="1" stop-color="#188191"/>
    </linearGradient>
    <linearGradient id="paint33_linear" x1="206.155" y1="221.204" x2="218.029" y2="200.244" gradientUnits="userSpaceOnUse">
    <stop stop-color="#257289"/>
    <stop offset="1" stop-color="#188191"/>
    </linearGradient>
    <linearGradient id="paint34_linear" x1="151.42" y1="287.276" x2="193.621" y2="187.957" gradientUnits="userSpaceOnUse">
    <stop stop-color="#257289"/>
    <stop offset="1" stop-color="#188191"/>
    </linearGradient>
    <linearGradient id="paint35_linear" x1="169.619" y1="231.019" x2="172.658" y2="229.175" gradientUnits="userSpaceOnUse">
    <stop stop-color="#257289"/>
    <stop offset="1" stop-color="#188191"/>
    </linearGradient>
    <linearGradient id="paint36_linear" x1="547.321" y1="454.298" x2="547.321" y2="477.903" gradientUnits="userSpaceOnUse">
    <stop stop-color="#B6E1E8"/>
    <stop offset="1" stop-color="#DCDCDC" stop-opacity="0.63"/>
    </linearGradient>
    <linearGradient id="paint37_linear" x1="561.058" y1="428.488" x2="637.218" y2="328.109" gradientUnits="userSpaceOnUse">
    <stop stop-color="#257289"/>
    <stop offset="1" stop-color="#188191"/>
    </linearGradient>
    <linearGradient id="paint38_linear" x1="533.029" y1="430.678" x2="603.495" y2="372.401" gradientUnits="userSpaceOnUse">
    <stop stop-color="#257289"/>
    <stop offset="1" stop-color="#188191"/>
    </linearGradient>
    <linearGradient id="paint39_linear" x1="568.078" y1="423.855" x2="589.187" y2="363.814" gradientUnits="userSpaceOnUse">
    <stop stop-color="#257289"/>
    <stop offset="1" stop-color="#188191"/>
    </linearGradient>
    <linearGradient id="paint40_linear" x1="536.185" y1="460.523" x2="552.968" y2="406.241" gradientUnits="userSpaceOnUse">
    <stop stop-color="#257289"/>
    <stop offset="1" stop-color="#188191"/>
    </linearGradient>
    <linearGradient id="paint41_linear" x1="535.9" y1="372.235" x2="537.1" y2="369.167" gradientUnits="userSpaceOnUse">
    <stop stop-color="#257289"/>
    <stop offset="1" stop-color="#188191"/>
    </linearGradient>
    <linearGradient id="paint42_linear" x1="547.713" y1="377.433" x2="548.912" y2="374.364" gradientUnits="userSpaceOnUse">
    <stop stop-color="#257289"/>
    <stop offset="1" stop-color="#188191"/>
    </linearGradient>
    <linearGradient id="paint43_linear" x1="545.037" y1="391.923" x2="546.256" y2="388.833" gradientUnits="userSpaceOnUse">
    <stop stop-color="#257289"/>
    <stop offset="1" stop-color="#188191"/>
    </linearGradient>
    <linearGradient id="paint44_linear" x1="552.912" y1="363.101" x2="554.111" y2="360.032" gradientUnits="userSpaceOnUse">
    <stop stop-color="#257289"/>
    <stop offset="1" stop-color="#188191"/>
    </linearGradient>
    <linearGradient id="paint45_linear" x1="537.162" y1="337.113" x2="538.361" y2="334.045" gradientUnits="userSpaceOnUse">
    <stop stop-color="#257289"/>
    <stop offset="1" stop-color="#188191"/>
    </linearGradient>
    <linearGradient id="paint46_linear" x1="555.43" y1="407.516" x2="556.629" y2="404.447" gradientUnits="userSpaceOnUse">
    <stop stop-color="#257289"/>
    <stop offset="1" stop-color="#188191"/>
    </linearGradient>
    <linearGradient id="paint47_linear" x1="543.775" y1="404.838" x2="544.975" y2="401.769" gradientUnits="userSpaceOnUse">
    <stop stop-color="#257289"/>
    <stop offset="1" stop-color="#188191"/>
    </linearGradient>
    <linearGradient id="paint48_linear" x1="542.514" y1="356.643" x2="543.713" y2="353.574" gradientUnits="userSpaceOnUse">
    <stop stop-color="#257289"/>
    <stop offset="1" stop-color="#188191"/>
    </linearGradient>
    <linearGradient id="paint49_linear" x1="346.932" y1="464.295" x2="346.932" y2="547" gradientUnits="userSpaceOnUse">
    <stop stop-color="#B6E1E8"/>
    <stop offset="1" stop-color="#DCDCDC" stop-opacity="0.63"/>
    </linearGradient>
    <linearGradient id="paint50_linear" x1="313.135" y1="507.08" x2="323.083" y2="433.458" gradientUnits="userSpaceOnUse">
    <stop stop-color="#257289"/>
    <stop offset="1" stop-color="#188191"/>
    </linearGradient>
    <linearGradient id="paint51_linear" x1="294.726" y1="465.401" x2="349.792" y2="358.89" gradientUnits="userSpaceOnUse">
    <stop stop-color="#257289"/>
    <stop offset="1" stop-color="#188191"/>
    </linearGradient>
    <linearGradient id="paint52_linear" x1="399.557" y1="446.304" x2="437.593" y2="383.78" gradientUnits="userSpaceOnUse">
    <stop stop-color="#257289"/>
    <stop offset="1" stop-color="#188191"/>
    </linearGradient>
    <linearGradient id="paint53_linear" x1="321.722" y1="463.327" x2="365.332" y2="335.103" gradientUnits="userSpaceOnUse">
    <stop stop-color="#257289"/>
    <stop offset="1" stop-color="#188191"/>
    </linearGradient>
    <linearGradient id="paint54_linear" x1="327.027" y1="516.813" x2="337.355" y2="482.565" gradientUnits="userSpaceOnUse">
    <stop stop-color="#257289"/>
    <stop offset="1" stop-color="#188191"/>
    </linearGradient>
    <linearGradient id="paint55_linear" x1="351.521" y1="514.248" x2="378.21" y2="409.405" gradientUnits="userSpaceOnUse">
    <stop stop-color="#257289"/>
    <stop offset="1" stop-color="#188191"/>
    </linearGradient>
    <linearGradient id="paint56_linear" x1="283.152" y1="518.991" x2="290.618" y2="482.678" gradientUnits="userSpaceOnUse">
    <stop stop-color="#257289"/>
    <stop offset="1" stop-color="#188191"/>
    </linearGradient>
    <linearGradient id="paint57_linear" x1="390.339" y1="516.813" x2="400.667" y2="482.565" gradientUnits="userSpaceOnUse">
    <stop stop-color="#257289"/>
    <stop offset="1" stop-color="#188191"/>
    </linearGradient>
    <linearGradient id="paint58_linear" x1="284.373" y1="514.275" x2="311.817" y2="408.272" gradientUnits="userSpaceOnUse">
    <stop stop-color="#257289"/>
    <stop offset="1" stop-color="#188191"/>
    </linearGradient>
    <linearGradient id="paint59_linear" x1="418.047" y1="518.995" x2="425.348" y2="482.4" gradientUnits="userSpaceOnUse">
    <stop stop-color="#257289"/>
    <stop offset="1" stop-color="#188191"/>
    </linearGradient>
    <linearGradient id="paint60_linear" x1="385.59" y1="391.187" x2="411.77" y2="324.591" gradientUnits="userSpaceOnUse">
    <stop stop-color="#257289"/>
    <stop offset="1" stop-color="#188191"/>
    </linearGradient>
    <linearGradient id="paint61_linear" x1="323.828" y1="468.716" x2="347.031" y2="407.859" gradientUnits="userSpaceOnUse">
    <stop stop-color="#483156"/>
    <stop offset="1" stop-color="#39516E"/>
    </linearGradient>
    <linearGradient id="paint62_linear" x1="362.121" y1="445.353" x2="366.918" y2="433.078" gradientUnits="userSpaceOnUse">
    <stop stop-color="#257289"/>
    <stop offset="1" stop-color="#188191"/>
    </linearGradient>
    <linearGradient id="paint63_linear" x1="403.724" y1="369.87" x2="421.208" y2="320.572" gradientUnits="userSpaceOnUse">
    <stop stop-color="#257289"/>
    <stop offset="1" stop-color="#188191"/>
    </linearGradient>
    <linearGradient id="paint64_linear" x1="415.106" y1="449.273" x2="479.865" y2="399.648" gradientUnits="userSpaceOnUse">
    <stop stop-color="#257289"/>
    <stop offset="1" stop-color="#188191"/>
    </linearGradient>
    <linearGradient id="paint65_linear" x1="424.826" y1="442.135" x2="425.352" y2="439.488" gradientUnits="userSpaceOnUse">
    <stop stop-color="#257289"/>
    <stop offset="1" stop-color="#188191"/>
    </linearGradient>
    <linearGradient id="paint66_linear" x1="294.571" y1="422.988" x2="298.363" y2="416.661" gradientUnits="userSpaceOnUse">
    <stop stop-color="#257289"/>
    <stop offset="1" stop-color="#188191"/>
    </linearGradient>
    </defs>
    </svg>