<svg width="24" height="22" viewBox="0 0 24 22" fill="none" xmlns="http://www.w3.org/2000/svg">
    <path d="M7.78125 14.5158H20.4846C20.7991 14.5158 21.0751 14.3078 21.1602 14.0057L23.9729 4.16174C24.0333 3.94953 23.9919 3.72156 23.8588 3.54523C23.7255 3.36945 23.5182 3.26563 23.2971 3.26563H6.15802L5.6554 1.00391C5.58398 0.681824 5.29834 0.453125 4.96875 0.453125H0.703125C0.314575 0.453125 0 0.7677 0 1.15625C0 1.54498 0.314575 1.85938 0.703125 1.85938H4.40442L6.94354 13.2852C6.19647 13.61 5.67188 14.3536 5.67188 15.2189C5.67188 16.382 6.61816 17.3283 7.78125 17.3283H20.4846C20.8733 17.3283 21.1877 17.0139 21.1877 16.6252C21.1877 16.2366 20.8733 15.9221 20.4846 15.9221H7.78125C7.39398 15.9221 7.07812 15.6069 7.07812 15.2189C7.07812 14.8309 7.39398 14.5158 7.78125 14.5158Z" fill="white"/>
    <path d="M7.07812 19.4377C7.07812 20.601 8.02441 21.5471 9.18768 21.5471C10.3508 21.5471 11.2971 20.601 11.2971 19.4377C11.2971 18.2747 10.3508 17.3284 9.18768 17.3284C8.02441 17.3284 7.07812 18.2747 7.07812 19.4377Z" fill="white"/>
    <path d="M16.9688 19.4377C16.9688 20.601 17.915 21.5471 19.0781 21.5471C20.2414 21.5471 21.1875 20.601 21.1875 19.4377C21.1875 18.2747 20.2414 17.3284 19.0781 17.3284C17.915 17.3284 16.9688 18.2747 16.9688 19.4377Z" fill="white"/>
    </svg>