<svg class="about-svg-slider" width="120" height="120" viewBox="0 0 120 120" fill="none"
xmlns="http://www.w3.org/2000/svg">
<path
  d="M40.3652 107.502C46.7305 107.502 53.096 107.306 59.4171 106.915C63.6076 106.656 66.9618 103.43 67.3921 99.2446C68.2378 91.0218 68.2378 82.6832 67.3921 74.4607C66.9618 70.2756 63.6078 67.0495 59.4171 66.7901C46.775 66.008 33.9553 66.008 21.3133 66.7901C17.1228 67.0493 13.7688 70.2753 13.3382 74.4607C12.4926 82.6835 12.4926 91.0218 13.3382 99.2443C13.7685 103.429 17.1225 106.655 21.3133 106.915C27.6341 107.306 33.9996 107.502 40.3652 107.502ZM16.8354 98.8846C16.0144 90.9006 16.0144 82.8042 16.8354 74.82C17.0892 72.3531 19.0637 70.4516 21.5305 70.299C27.7794 69.9123 34.0723 69.7187 40.3652 69.7187C46.6581 69.7187 52.951 69.912 59.1998 70.299C61.6666 70.4516 63.6411 72.3529 63.8947 74.8202C64.7162 82.8042 64.7162 90.9006 63.8947 98.8846C63.6411 101.352 61.6666 103.253 59.1998 103.406C46.7024 104.179 34.0284 104.179 21.5305 103.406C19.0637 103.253 17.089 101.352 16.8354 98.8846Z"
  fill="url(#paintt0_linear)" />
<path
  d="M118.242 62.9298C118.242 62.9298 105.81 62.9315 105.804 62.9319C105.514 62.9347 105.226 63.0069 104.964 63.1527L95.7472 68.2953H88.3525C88.2955 67.6868 88.2393 67.0781 88.1767 66.4704C87.6076 60.9306 83.6679 56.4982 78.4536 55.1854C88.4638 50.6724 95.4491 40.5992 95.4491 28.9249C95.4491 27.3564 95.3213 25.7821 95.0696 24.246C94.9126 23.288 94.009 22.6383 93.0506 22.7956C92.0925 22.9526 91.4433 23.8567 91.6003 24.8148C91.8213 26.1634 91.9336 27.5465 91.9336 28.9249C91.9336 42.8603 80.5963 54.1975 66.661 54.1975C52.7256 54.1975 41.3884 42.8603 41.3884 28.9249C41.3884 14.9896 52.7256 3.65231 66.661 3.65231C76.5746 3.65231 85.6182 9.49027 89.7011 18.5254C90.101 19.4102 91.1418 19.803 92.0271 19.4034C92.9117 19.0036 93.3047 17.9624 92.9051 17.0777C88.2545 6.78645 77.953 0.136597 66.661 0.136597C51.858 0.136597 39.6303 11.3681 38.0478 25.7565C34.3532 20.0831 27.9548 16.3239 20.6944 16.3239C9.28336 16.3241 0 25.6075 0 37.0186C0 44.8415 4.36347 51.6638 10.7839 55.1812C5.56139 56.489 1.61442 60.9249 1.0451 66.4702C-0.345946 79.9956 -0.345946 93.7104 1.0451 107.233C1.63434 112.973 5.82109 117.571 11.4636 118.674C12.4152 118.86 13.3398 118.239 13.5261 117.286C13.7122 116.334 13.0911 115.41 12.1381 115.224C8.02497 114.42 4.97263 111.064 4.54254 106.874C3.1761 93.5892 3.1761 80.1163 4.54254 66.8292C5.01927 62.1866 8.73655 58.6086 13.3813 58.3214C34.1038 57.038 55.1182 57.038 75.8408 58.3214C80.4852 58.6088 84.2028 62.1868 84.6795 66.8295C86.0457 80.1163 86.0457 93.589 84.6795 106.874C84.2025 111.518 80.4852 115.097 75.8408 115.384C56.9363 116.555 37.7803 116.659 18.9028 115.695C17.9341 115.645 17.107 116.391 17.0575 117.361C17.0081 118.33 17.7539 119.156 18.7235 119.206C27.3042 119.644 35.9409 119.863 44.587 119.863C55.0943 119.863 65.6149 119.54 76.0576 118.893C82.4264 118.499 87.5232 113.595 88.1767 107.233C88.2393 106.626 88.2955 106.017 88.3525 105.408H95.7453L104.964 110.552C105.231 110.701 105.526 110.775 105.821 110.775H118.242C119.213 110.775 120 109.988 120 109.017V64.6877C120 63.7169 119.213 62.9298 118.242 62.9298ZM3.51571 37.0186C3.51571 27.5463 11.2219 19.8398 20.6944 19.8398C30.1669 19.8398 37.8731 27.5463 37.8731 37.0186C37.8731 46.4911 30.1667 54.1973 20.6944 54.1973C11.2222 54.1973 3.51571 46.4908 3.51571 37.0186ZM32.5265 53.987C36.6565 51.0985 39.6889 46.7433 40.8592 41.6825C43.4008 46.8023 47.4207 51.0638 52.3588 53.9026C45.7488 53.8026 39.132 53.8309 32.5265 53.987ZM88.6515 71.811H94.4454V101.893H88.6515C89.4074 91.8913 89.4074 81.8134 88.6515 71.811ZM104.063 106.023L97.9619 102.619V71.0856L104.063 67.6814V106.023ZM116.484 107.259H107.579V66.4455H116.484V107.259Z"
  fill="url(#paintt1_linear)" />
<path
  d="M33.0075 37.0185C33.0075 30.229 27.4839 24.7056 20.6943 24.7056C13.905 24.7056 8.38135 30.2292 8.38135 37.0185C8.38135 43.8081 13.905 49.3317 20.6943 49.3317C27.4839 49.3317 33.0075 43.8081 33.0075 37.0185ZM11.8971 37.0185C11.8971 32.1676 15.8436 28.2213 20.6943 28.2213C25.5453 28.2213 29.4918 32.1678 29.4918 37.0185C29.4918 41.8695 25.5453 45.816 20.6943 45.816C15.8436 45.816 11.8971 41.8695 11.8971 37.0185Z"
  fill="url(#paintt2_linear)" />
<path
  d="M51.541 28.925C51.541 37.2624 58.324 44.0451 66.6614 44.0451C74.9986 44.0451 81.7815 37.2624 81.7815 28.925C81.7815 20.5876 74.9988 13.8048 66.6614 13.8048C58.324 13.8046 51.541 20.5876 51.541 28.925ZM78.2658 28.925C78.2658 35.3238 73.0602 40.5294 66.6614 40.5294C60.2626 40.5294 55.0567 35.3236 55.0567 28.925C55.0567 22.5261 60.2626 17.3205 66.6614 17.3205C73.0602 17.3205 78.2658 22.5261 78.2658 28.925Z"
  fill="url(#paintt3_linear)" />
<path
  d="M31.4522 78.1769H57.4139C58.3847 78.1769 59.1717 77.3898 59.1717 76.419C59.1717 75.4482 58.3847 74.6611 57.4139 74.6611H31.4522C30.4814 74.6611 29.6943 75.4482 29.6943 76.419C29.6943 77.3898 30.4814 78.1769 31.4522 78.1769Z"
  fill="url(#paintt4_linear)" />
<path
  d="M57.4138 82.6766H40.3649C39.3941 82.6766 38.6071 83.4637 38.6071 84.4345C38.6071 85.4053 39.3941 86.1924 40.3649 86.1924H57.4138C58.3846 86.1924 59.1716 85.4053 59.1716 84.4345C59.1716 83.4637 58.3848 82.6766 57.4138 82.6766Z"
  fill="url(#paintt5_linear)" />
<defs>
  <linearGradient id="paintt0_linear" x1="40.3652" y1="66.2035" x2="40.3652" y2="107.502"
    gradientUnits="userSpaceOnUse">
    <stop stop-color="#41AFC1" />
    <stop offset="1" stop-color="#D0E6EB" />
  </linearGradient>
  <linearGradient id="paintt1_linear" x1="59.9999" y1="0.136597" x2="59.9999" y2="119.863"
    gradientUnits="userSpaceOnUse">
    <stop stop-color="#41AFC1" />
    <stop offset="1" stop-color="#D0E6EB" />
  </linearGradient>
  <linearGradient id="paintt2_linear" x1="20.6944" y1="24.7056" x2="20.6944" y2="49.3317"
    gradientUnits="userSpaceOnUse">
    <stop stop-color="#41AFC1" />
    <stop offset="1" stop-color="#D0E6EB" />
  </linearGradient>
  <linearGradient id="paintt3_linear" x1="66.6613" y1="13.8048" x2="66.6613" y2="44.0451"
    gradientUnits="userSpaceOnUse">
    <stop stop-color="#41AFC1" />
    <stop offset="1" stop-color="#D0E6EB" />
  </linearGradient>
  <linearGradient id="paintt4_linear" x1="44.433" y1="74.6611" x2="44.433" y2="78.1769"
    gradientUnits="userSpaceOnUse">
    <stop stop-color="#41AFC1" />
    <stop offset="1" stop-color="#D0E6EB" />
  </linearGradient>
  <linearGradient id="paintt5_linear" x1="48.8893" y1="82.6766" x2="48.8893" y2="86.1924"
    gradientUnits="userSpaceOnUse">
    <stop stop-color="#41AFC1" />
    <stop offset="1" stop-color="#D0E6EB" />
  </linearGradient>
</defs>
</svg>