<svg class="left-menu-items" width="50" height="50" viewBox="0 0 50 50" fill="none"
xmlns="http://www.w3.org/2000/svg">
<path
  d="M40.8832 11.5835C36.9879 7.68018 31.9135 5.38857 26.4647 5.03936V2.92969H28.6132C29.4222 2.92969 30.078 2.27383 30.078 1.46484C30.078 0.655859 29.4222 0 28.6132 0H21.3866C20.5776 0 19.9218 0.655859 19.9218 1.46484C19.9218 2.27383 20.5776 2.92969 21.3866 2.92969H23.5351V5.03936C19.799 5.27881 16.2394 6.43164 13.1148 8.39131L11.7233 6.99697C11.0461 6.31836 10.1452 5.94473 9.18652 5.94473C8.22783 5.94473 7.32695 6.31846 6.64981 6.99697L4.5335 9.11787C3.14043 10.5137 3.14043 12.785 4.5335 14.1809L5.93447 15.5848C3.72324 19.1229 2.53906 23.2179 2.53906 27.4955C2.53906 33.5061 4.875 39.1571 9.1166 43.4075C13.359 47.6587 18.9998 50 24.9999 50C31 50 36.6408 47.6587 40.8832 43.4075C45.1248 39.1571 47.4607 33.5061 47.4607 27.4955C47.4607 21.485 45.1248 15.8339 40.8832 11.5835ZM6.60723 11.1874L8.72363 9.0666C8.89043 8.89951 9.08525 8.87451 9.18662 8.87451C9.28799 8.87451 9.48291 8.89941 9.64971 9.0666L10.7112 10.1303C10.1607 10.5866 9.62832 11.0709 9.1167 11.5836C8.60654 12.0948 8.12461 12.6268 7.67041 13.1768L6.60723 12.1114C6.35293 11.8566 6.35293 11.4421 6.60723 11.1874ZM24.9999 47.0703C14.2304 47.0703 5.46875 38.2891 5.46875 27.4955C5.46875 16.702 14.2304 7.9207 24.9999 7.9207C35.7694 7.9207 44.5311 16.7019 44.5311 27.4955C44.5311 38.2892 35.7694 47.0703 24.9999 47.0703Z"
  fill="url(#paint0_lineaar)" />
<path
  d="M25.0001 10.6665C15.7382 10.6665 8.20312 18.2159 8.20312 27.4954C8.20312 36.7749 15.7382 44.3243 25.0001 44.3243C34.262 44.3243 41.7971 36.7749 41.7971 27.4954C41.7971 18.2159 34.262 10.6665 25.0001 10.6665ZM26.4649 41.3171V39.6049C26.4649 38.7959 25.8091 38.14 25.0001 38.14C24.1911 38.14 23.5353 38.7959 23.5353 39.6049V41.3171C17.0552 40.632 11.8917 35.4557 11.2098 28.9603H12.8907C13.6997 28.9603 14.3556 28.3044 14.3556 27.4954C14.3556 26.6864 13.6997 26.0306 12.8907 26.0306H11.2099C11.8917 19.5352 17.0552 14.3588 23.5353 13.6737V15.3859C23.5353 16.1949 24.1911 16.8508 25.0001 16.8508C25.8091 16.8508 26.4649 16.1949 26.4649 15.3859V13.6737C32.945 14.3588 38.1085 19.5352 38.7904 26.0306H37.1095C36.3005 26.0306 35.6446 26.6864 35.6446 27.4954C35.6446 28.3044 36.3005 28.9603 37.1095 28.9603H38.7903C38.1085 35.4557 32.945 40.632 26.4649 41.3171Z"
  fill="url(#paint1_lineaar)" />
<path
  d="M28.6135 26.6501H26.5469V20.7256C26.5469 19.9166 25.891 19.2607 25.082 19.2607C24.273 19.2607 23.6172 19.9166 23.6172 20.7256V28.115C23.6172 28.9239 24.273 29.5798 25.082 29.5798H28.6135C29.4225 29.5798 30.0783 28.9239 30.0783 28.115C30.0783 27.306 29.4225 26.6501 28.6135 26.6501Z"
  fill="url(#paint2_lineaar)" />
<defs>
  <linearGradient id="paint0_lineaar" x1="24.9999" y1="0" x2="24.9999" y2="50"
    gradientUnits="userSpaceOnUse">
    <stop stop-color="#41AFC1" />
    <stop offset="1" stop-color="#D0E6EB" />
  </linearGradient>
  <linearGradient id="paint1_lineaar" x1="25.0001" y1="10.6665" x2="25.0001" y2="44.3243"
    gradientUnits="userSpaceOnUse">
    <stop stop-color="#41AFC1" />
    <stop offset="1" stop-color="#D0E6EB" />
  </linearGradient>
  <linearGradient id="paint2_lineaar" x1="26.8478" y1="19.2607" x2="26.8478" y2="29.5798"
    gradientUnits="userSpaceOnUse">
    <stop stop-color="#41AFC1" />
    <stop offset="1" stop-color="#D0E6EB" />
  </linearGradient>
</defs>
</svg>