<svg width="158" height="79" viewBox="0 0 158 79" fill="none" xmlns="http://www.w3.org/2000/svg">
<path d="M117.827 29.881L114.422 50.161H119.868L123.276 29.881H117.826H117.827Z" fill="url(#paint0_linear)"/>
<path d="M109.856 29.904L104.522 43.734L103.953 41.646C102.901 39.13 99.915 35.516 96.409 33.239L101.286 50.151L107.049 50.141L115.625 29.9L109.855 29.904H109.856Z" fill="url(#paint1_linear)"/>
<path d="M101.886 31.355C101.57 30.12 100.652 29.752 99.513 29.708H91.07L91 30.112C97.57 31.729 101.918 35.627 103.722 40.314L101.886 31.355Z" fill="url(#paint2_linear)"/>
<path d="M134.314 33.77C135.712 33.7385 137.101 34.003 138.39 34.546L138.881 34.78L139.618 30.384C138.539 29.974 136.848 29.533 134.739 29.533C129.359 29.533 125.565 32.283 125.536 36.226C125.501 39.139 128.238 40.765 130.305 41.736C132.427 42.731 133.139 43.364 133.129 44.252C133.112 45.61 131.437 46.232 129.872 46.232C127.692 46.232 126.532 45.927 124.744 45.17L124.042 44.846L123.276 49.386C124.551 49.953 126.903 50.44 129.344 50.466C135.069 50.466 138.789 47.748 138.828 43.536C138.852 41.231 137.399 39.473 134.252 38.03C132.347 37.089 131.182 36.463 131.193 35.514C131.193 34.671 132.182 33.769 134.313 33.769L134.314 33.77Z" fill="url(#paint3_linear)"/>
<path d="M153.593 29.904H149.386C148.079 29.904 147.106 30.264 146.532 31.587L138.446 50.173H144.166C144.166 50.173 145.098 47.673 145.31 47.126C145.936 47.126 151.492 47.135 152.284 47.135C152.446 47.843 152.947 50.173 152.947 50.173H158L153.593 29.903V29.904ZM146.877 42.975C147.325 41.811 149.047 37.307 149.047 37.307C149.017 37.363 149.491 36.135 149.772 35.371L150.139 37.12L151.401 42.975H146.877Z" fill="url(#paint4_linear)"/>
<path d="M21.052 36.104C19.572 36.104 18.438 36.579 18.438 36.579L18.125 38.439C18.125 38.439 19.06 38.059 20.477 38.059C21.282 38.059 21.869 38.149 21.869 38.802C21.869 39.199 21.798 39.346 21.798 39.346C21.798 39.346 21.164 39.294 20.87 39.294C19.003 39.294 17.042 40.089 17.042 42.494C17.042 44.387 18.327 44.819 19.126 44.819C20.649 44.819 21.306 43.832 21.34 43.829L21.269 44.654H23.169L24.017 38.71C24.016 36.185 21.816 36.104 21.052 36.104V36.104ZM19.986 43.011C19.316 43.011 19.141 42.501 19.141 42.195C19.141 41.605 19.461 40.895 21.044 40.895C21.413 40.895 21.452 40.934 21.514 40.945C21.556 41.308 21.287 43.011 19.986 43.011Z" fill="url(#paint5_linear)"/>
<path d="M27.917 38.097C28.22 38.097 29.391 38.193 29.391 38.193L29.664 36.288C29.664 36.288 28.906 36.119 27.672 36.119C26.075 36.119 24.455 36.757 24.455 38.938C24.455 41.41 27.157 41.158 27.157 42.202C27.157 42.896 26.402 42.953 25.82 42.953C24.812 42.953 23.905 42.609 23.902 42.623L23.614 44.513C23.666 44.527 24.225 44.776 26.037 44.776C26.522 44.776 29.302 44.902 29.302 42.033C29.302 39.35 26.729 39.88 26.729 38.802C26.729 38.265 27.147 38.097 27.917 38.097V38.097Z" fill="url(#paint6_linear)"/>
<path d="M32.459 38.34H33.6L33.876 36.31H32.8L33.02 35.05H30.86C30.813 35.097 29.586 42.15 29.586 43.007C29.586 44.281 30.301 44.846 31.306 44.836C32.094 44.83 32.708 44.612 32.925 44.552L33.195 42.717C33.046 42.717 32.83 42.781 32.638 42.781C31.887 42.781 31.804 42.38 31.852 42.085L32.457 38.34H32.459Z" fill="url(#paint7_linear)"/>
<path d="M41.504 26.558H37.652C37.134 27.257 36.648 28.001 36.207 28.728H43.079C42.6018 27.9711 42.0757 27.2463 41.504 26.558Z" fill="url(#paint8_linear)"/>
<path d="M71.56 50.977C71.5288 50.9276 71.4937 50.8808 71.455 50.837C71.4382 50.8201 71.4177 50.8074 71.395 50.8C71.4503 50.7979 71.5028 50.7751 71.542 50.736C71.5727 50.705 71.5917 50.6644 71.5957 50.621C71.5997 50.5775 71.5885 50.5341 71.564 50.498C71.5427 50.4657 71.5109 50.4417 71.474 50.43C71.4166 50.4131 71.3568 50.406 71.297 50.409H71.054V51.115H71.168V50.815H71.234C71.274 50.815 71.306 50.825 71.324 50.841C71.353 50.865 71.395 50.919 71.444 51.004L71.505 51.116H71.647L71.56 50.976V50.977ZM71.305 50.722H71.165V50.509H71.297C71.352 50.509 71.388 50.514 71.409 50.522C71.4284 50.5292 71.4454 50.5416 71.458 50.558C71.4692 50.5742 71.4751 50.5934 71.475 50.613C71.4756 50.6281 71.4728 50.6432 71.4667 50.657C71.4606 50.6709 71.4515 50.6832 71.44 50.693C71.416 50.711 71.37 50.722 71.305 50.722Z" fill="url(#paint9_linear)"/>
<path d="M44.248 30.859H35.007C34.417 31.976 34.025 32.821 33.914 33.031H45.124C44.8737 32.2909 44.5812 31.5657 44.248 30.859V30.859Z" fill="url(#paint10_linear)"/>
<path d="M14.397 34.385L12.27 40.693L12.16 34.385H9.01L7.282 44.664H9.365L10.678 36.915L10.871 44.664H12.358L15.132 36.915L13.902 44.664H16.112L17.815 34.384H14.396L14.397 34.385Z" fill="url(#paint11_linear)"/>
<path d="M56.046 36.104C55.1529 36.1043 54.2672 36.2652 53.431 36.579L53.116 38.439C53.116 38.439 54.053 38.059 55.468 38.059C56.273 38.059 56.862 38.149 56.862 38.802C56.862 39.199 56.787 39.346 56.787 39.346C56.787 39.346 56.155 39.294 55.859 39.294C53.993 39.294 52.033 40.089 52.033 42.494C52.033 44.387 53.32 44.819 54.117 44.819C55.639 44.819 56.297 43.832 56.332 43.829L56.26 44.654H58.16L59.007 38.71C59.012 36.185 56.81 36.104 56.047 36.104H56.046ZM54.983 43.011C54.312 43.011 54.138 42.501 54.138 42.195C54.138 41.605 54.458 40.895 56.041 40.895C56.408 40.895 56.448 40.934 56.511 40.945C56.551 41.308 56.281 43.011 54.983 43.011Z" fill="url(#paint12_linear)"/>
<path d="M71.629 43.717C71.5731 43.6132 71.4874 43.5286 71.383 43.474C71.2583 43.4016 71.1132 43.3726 70.9702 43.3915C70.8273 43.4104 70.6947 43.4761 70.5931 43.5784C70.4915 43.6807 70.4266 43.8137 70.4087 43.9568C70.3908 44.0998 70.4208 44.2448 70.494 44.369C70.5501 44.4717 70.634 44.5566 70.736 44.614C70.8611 44.6838 71.0056 44.7107 71.1475 44.6908C71.2894 44.6708 71.4208 44.605 71.5219 44.5035C71.6229 44.4019 71.6879 44.27 71.7071 44.1281C71.7262 43.9861 71.6985 43.8417 71.628 43.717H71.629ZM71.538 44.314C71.49 44.3972 71.4211 44.4665 71.3382 44.5151C71.2552 44.5637 71.1611 44.5898 71.065 44.591C70.9199 44.5902 70.781 44.5322 70.6784 44.4296C70.5758 44.327 70.5178 44.1881 70.517 44.043C70.517 43.949 70.54 43.858 70.592 43.77C70.6669 43.6501 70.7854 43.564 70.9225 43.5297C71.0596 43.4954 71.2047 43.5156 71.3272 43.5861C71.4497 43.6565 71.5401 43.7717 71.5794 43.9075C71.6188 44.0433 71.6039 44.189 71.538 44.314V44.314Z" fill="url(#paint13_linear)"/>
<path d="M71.283 44.267C71.2534 44.217 71.2189 44.1701 71.18 44.127C71.1629 44.1107 71.1424 44.0984 71.12 44.091C71.1748 44.0884 71.2266 44.0652 71.265 44.026C71.2968 43.9956 71.3165 43.9548 71.3205 43.9111C71.3246 43.8674 71.3127 43.8236 71.287 43.788C71.2653 43.7576 71.2355 43.7341 71.201 43.72C71.1426 43.7029 71.0818 43.6958 71.021 43.699H70.775V44.404H70.89V44.104H70.956C70.996 44.104 71.029 44.113 71.048 44.128C71.078 44.154 71.117 44.207 71.168 44.295L71.228 44.405H71.37L71.283 44.267V44.267ZM71.031 44.008H70.893V43.794H71.022C71.077 43.794 71.114 43.798 71.136 43.805C71.154 43.815 71.171 43.825 71.182 43.843C71.196 43.8634 71.2022 43.8882 71.1995 43.9128C71.1967 43.9374 71.1852 43.9602 71.167 43.977C71.141 44.001 71.097 44.008 71.031 44.008V44.008Z" fill="url(#paint14_linear)"/>
<path d="M63.38 36.206C62.414 36.206 61.697 37.526 61.697 37.526L61.89 36.312H59.878L58.531 44.679H60.747C61.377 41.104 61.492 38.205 62.99 38.735C63.255 37.353 63.51 36.817 63.796 36.234C63.796 36.235 63.662 36.206 63.381 36.206H63.38Z" fill="url(#paint15_linear)"/>
<path d="M68.947 34.396L68.481 37.284C68.481 37.284 67.671 36.161 66.397 36.161C64.418 36.163 62.77 38.547 62.77 41.286C62.77 43.056 63.65 44.789 65.446 44.789C66.74 44.789 67.456 43.886 67.456 43.886L67.362 44.657H69.462L71.112 34.392L68.947 34.396ZM66.21 42.69C65.432 42.69 65.069 42.039 65.069 41.015C65.069 39.34 65.819 38.237 66.769 38.237C67.544 38.238 67.943 38.771 67.943 40.027C67.943 41.167 67.379 42.69 66.21 42.69Z" fill="url(#paint16_linear)"/>
<path d="M76.966 13.902H2.034C0.909 13.902 0 14.812 0 15.936V63.066C0 64.189 0.91 65.099 2.034 65.099H76.966C78.091 65.099 79 64.189 79 63.066V15.936C79 14.812 78.09 13.902 76.966 13.902V13.902ZM71.907 51.079C71.8515 51.1819 71.7675 51.2666 71.665 51.323C71.5655 51.3792 71.4532 51.4087 71.339 51.4087C71.2248 51.4087 71.1125 51.3792 71.013 51.323C70.9125 51.2654 70.8291 51.1823 70.7712 51.082C70.7133 50.9817 70.6829 50.8679 70.6832 50.7521C70.6835 50.6363 70.7145 50.5227 70.7729 50.4227C70.8314 50.3228 70.9152 50.2401 71.016 50.183C71.1152 50.129 71.2261 50.1002 71.339 50.099C71.449 50.099 71.556 50.129 71.659 50.183C71.7631 50.2382 71.8483 50.3232 71.904 50.427C71.9603 50.5263 71.9901 50.6385 71.9906 50.7526C71.9911 50.8668 71.9623 50.9792 71.907 51.079V51.079ZM73.373 39.5C73.376 50.697 64.303 59.778 53.105 59.78C48.0736 59.7891 43.22 57.9193 39.495 54.537C35.7745 57.913 30.9289 59.7806 25.905 59.775C14.712 59.776 5.63 50.694 5.63 39.5C5.63 28.353 14.642 19.297 25.774 19.224H25.904C31.133 19.224 35.9 21.208 39.497 24.463C43.2196 21.084 48.0685 19.2146 53.096 19.22C64.294 19.216 73.373 28.292 73.376 39.49C73.373 39.493 73.373 39.495 73.373 39.5V39.5Z" fill="url(#paint17_linear)"/>
<path d="M37.42 52.32C38.0544 53.1097 38.7474 53.8504 39.493 54.536L39.545 54.493L39.543 54.492H39.547C40.2862 53.8201 40.9748 53.0945 41.607 52.321H37.42V52.32Z" fill="url(#paint18_linear)"/>
<path d="M40.182 41.192C40.182 41.192 40.465 39.794 40.465 39.224C40.465 37.802 39.758 36.067 37.388 36.067C35.218 36.069 33.61 38.407 33.61 41.051C33.61 44.101 35.623 44.826 37.34 44.826C38.923 44.826 39.62 44.471 39.62 44.471L40 42.39C40 42.39 38.795 42.921 37.707 42.921C35.389 42.921 35.795 41.192 35.795 41.192H40.182ZM37.395 38.005C38.614 38.005 38.388 39.374 38.388 39.483H35.992C35.992 39.342 36.219 38.005 37.395 38.005Z" fill="url(#paint19_linear)"/>
<path d="M50.305 36.354C51.403 36.354 52.285 36.971 52.285 36.971L52.638 34.684C52.638 34.684 51.332 34.156 50.208 34.156C47.716 34.156 45.292 36.318 45.292 40.378C45.292 43.071 46.6 44.848 49.176 44.848C49.904 44.848 51.065 44.554 51.065 44.554L51.451 42.198C51.451 42.198 50.393 42.728 49.666 42.728C48.133 42.727 47.519 41.558 47.519 40.304C47.519 37.754 48.836 36.354 50.305 36.354V36.354Z" fill="url(#paint20_linear)"/>
<path d="M34.714 48.062C35.064 48.816 35.474 49.533 35.911 50.232H43.105C43.542 49.5333 43.9361 48.8086 44.285 48.062H34.714V48.062Z" fill="url(#paint21_linear)"/>
<path d="M45.252 36.209C44.286 36.209 43.57 37.528 43.57 37.528L43.764 36.315H41.754L40.407 44.682H42.623C43.251 41.108 43.368 38.208 44.866 38.738C45.129 37.354 45.383 36.818 45.669 36.234C45.669 36.234 45.535 36.206 45.252 36.209Z" fill="url(#paint22_linear)"/>
<defs>
<linearGradient id="paint0_linear" x1="114.422" y1="50.161" x2="126.826" y2="41.239" gradientUnits="userSpaceOnUse">
<stop stop-color="#483156"/>
<stop offset="1" stop-color="#39516E"/>
</linearGradient>
<linearGradient id="paint1_linear" x1="96.409" y1="50.151" x2="108.27" y2="31.608" gradientUnits="userSpaceOnUse">
<stop stop-color="#483156"/>
<stop offset="1" stop-color="#39516E"/>
</linearGradient>
<linearGradient id="paint2_linear" x1="91" y1="40.314" x2="96.513" y2="29.418" gradientUnits="userSpaceOnUse">
<stop stop-color="#483156"/>
<stop offset="1" stop-color="#39516E"/>
</linearGradient>
<linearGradient id="paint3_linear" x1="123.276" y1="50.466" x2="136.364" y2="33.631" gradientUnits="userSpaceOnUse">
<stop stop-color="#483156"/>
<stop offset="1" stop-color="#39516E"/>
</linearGradient>
<linearGradient id="paint4_linear" x1="138.446" y1="50.173" x2="150.234" y2="31.436" gradientUnits="userSpaceOnUse">
<stop stop-color="#483156"/>
<stop offset="1" stop-color="#39516E"/>
</linearGradient>
<linearGradient id="paint5_linear" x1="17.042" y1="44.819" x2="22.456" y2="37.679" gradientUnits="userSpaceOnUse">
<stop stop-color="#483156"/>
<stop offset="1" stop-color="#39516E"/>
</linearGradient>
<linearGradient id="paint6_linear" x1="23.614" y1="44.777" x2="29.145" y2="38.41" gradientUnits="userSpaceOnUse">
<stop stop-color="#483156"/>
<stop offset="1" stop-color="#39516E"/>
</linearGradient>
<linearGradient id="paint7_linear" x1="29.587" y1="44.836" x2="35.58" y2="40.507" gradientUnits="userSpaceOnUse">
<stop stop-color="#483156"/>
<stop offset="1" stop-color="#39516E"/>
</linearGradient>
<linearGradient id="paint8_linear" x1="36.207" y1="28.728" x2="36.725" y2="26.027" gradientUnits="userSpaceOnUse">
<stop stop-color="#483156"/>
<stop offset="1" stop-color="#39516E"/>
</linearGradient>
<linearGradient id="paint9_linear" x1="71.054" y1="51.116" x2="71.487" y2="50.517" gradientUnits="userSpaceOnUse">
<stop stop-color="#483156"/>
<stop offset="1" stop-color="#39516E"/>
</linearGradient>
<linearGradient id="paint10_linear" x1="33.914" y1="33.031" x2="34.239" y2="30.266" gradientUnits="userSpaceOnUse">
<stop stop-color="#483156"/>
<stop offset="1" stop-color="#39516E"/>
</linearGradient>
<linearGradient id="paint11_linear" x1="7.283" y1="44.664" x2="13.099" y2="34.846" gradientUnits="userSpaceOnUse">
<stop stop-color="#483156"/>
<stop offset="1" stop-color="#39516E"/>
</linearGradient>
<linearGradient id="paint12_linear" x1="52.033" y1="44.819" x2="57.448" y2="37.681" gradientUnits="userSpaceOnUse">
<stop stop-color="#483156"/>
<stop offset="1" stop-color="#39516E"/>
</linearGradient>
<linearGradient id="paint13_linear" x1="70.406" y1="44.7" x2="71.158" y2="43.465" gradientUnits="userSpaceOnUse">
<stop stop-color="#483156"/>
<stop offset="1" stop-color="#39516E"/>
</linearGradient>
<linearGradient id="paint14_linear" x1="70.775" y1="44.405" x2="71.208" y2="43.806" gradientUnits="userSpaceOnUse">
<stop stop-color="#483156"/>
<stop offset="1" stop-color="#39516E"/>
</linearGradient>
<linearGradient id="paint15_linear" x1="58.531" y1="44.679" x2="63.996" y2="39.085" gradientUnits="userSpaceOnUse">
<stop stop-color="#483156"/>
<stop offset="1" stop-color="#39516E"/>
</linearGradient>
<linearGradient id="paint16_linear" x1="62.77" y1="44.789" x2="69.225" y2="36.256" gradientUnits="userSpaceOnUse">
<stop stop-color="#483156"/>
<stop offset="1" stop-color="#39516E"/>
</linearGradient>
<linearGradient id="paint17_linear" x1="-8.52466e-07" y1="65.099" x2="22.502" y2="7.89101" gradientUnits="userSpaceOnUse">
<stop stop-color="#483156"/>
<stop offset="1" stop-color="#39516E"/>
</linearGradient>
<linearGradient id="paint18_linear" x1="37.42" y1="54.536" x2="38.252" y2="51.945" gradientUnits="userSpaceOnUse">
<stop stop-color="#483156"/>
<stop offset="1" stop-color="#39516E"/>
</linearGradient>
<linearGradient id="paint19_linear" x1="33.61" y1="44.826" x2="39.083" y2="37.769" gradientUnits="userSpaceOnUse">
<stop stop-color="#483156"/>
<stop offset="1" stop-color="#39516E"/>
</linearGradient>
<linearGradient id="paint20_linear" x1="45.292" y1="44.849" x2="52.138" y2="37.1" gradientUnits="userSpaceOnUse">
<stop stop-color="#483156"/>
<stop offset="1" stop-color="#39516E"/>
</linearGradient>
<linearGradient id="paint21_linear" x1="34.714" y1="50.233" x2="35.092" y2="47.484" gradientUnits="userSpaceOnUse">
<stop stop-color="#483156"/>
<stop offset="1" stop-color="#39516E"/>
</linearGradient>
<linearGradient id="paint22_linear" x1="40.407" y1="44.682" x2="45.873" y2="39.09" gradientUnits="userSpaceOnUse">
<stop stop-color="#483156"/>
<stop offset="1" stop-color="#39516E"/>
</linearGradient>
</defs>
</svg>
