<svg width="63" height="105" viewBox="0 0 63 105" fill="none" xmlns="http://www.w3.org/2000/svg">
    <path d="M31.5 0.867676C20.5019 0.867676 11.5862 9.7834 11.5862 20.7815V46.1263C11.5991 57.1189 20.5073 66.0272 31.5 66.0401C42.4926 66.0272 51.4009 57.1189 51.4138 46.1263V20.7815C51.4138 9.7834 42.4981 0.867676 31.5 0.867676ZM47.7931 24.4022H36.931C35.9313 24.4022 35.1207 25.2127 35.1207 26.2125C35.1207 27.2123 35.9313 28.0229 36.931 28.0229H47.7931V31.6435H36.931C35.9313 31.6435 35.1207 32.4541 35.1207 33.4539C35.1207 34.4536 35.9313 35.2642 36.931 35.2642H47.7931V38.8849H36.931C35.9313 38.8849 35.1207 39.6955 35.1207 40.6953C35.1207 41.695 35.9313 42.5056 36.931 42.5056H47.7931V46.1263H36.931C35.9313 46.1263 35.1207 46.9369 35.1207 47.9366C35.1207 48.9364 35.9313 49.747 36.931 49.747H47.3731C46.4451 53.8006 44.0054 57.3475 40.5517 59.6641V55.178C40.5517 54.1783 39.7411 53.3677 38.7414 53.3677C37.7416 53.3677 36.931 54.1783 36.931 55.178V61.469C35.7609 61.8894 34.5459 62.1725 33.3103 62.3126V55.178C33.3103 54.1783 32.4997 53.3677 31.5 53.3677C30.5002 53.3677 29.6896 54.1783 29.6896 55.178V62.3126C28.4541 62.1725 27.2391 61.8894 26.0689 61.469V55.178C26.0689 54.1783 25.2584 53.3677 24.2586 53.3677C23.2588 53.3677 22.4483 54.1783 22.4483 55.178V59.6641C18.9946 57.3475 16.5549 53.8006 15.6269 49.747H26.0689C27.0687 49.747 27.8793 48.9364 27.8793 47.9366C27.8793 46.9369 27.0687 46.1263 26.0689 46.1263H15.2069V42.5056H26.0689C27.0687 42.5056 27.8793 41.695 27.8793 40.6953C27.8793 39.6955 27.0687 38.8849 26.0689 38.8849H15.2069V35.2642H26.0689C27.0687 35.2642 27.8793 34.4536 27.8793 33.4539C27.8793 32.4541 27.0687 31.6435 26.0689 31.6435H15.2069V28.0229H26.0689C27.0687 28.0229 27.8793 27.2123 27.8793 26.2125C27.8793 25.2127 27.0687 24.4022 26.0689 24.4022H15.2069V20.7815H26.0689C27.0687 20.7815 27.8793 19.9709 27.8793 18.9711C27.8793 17.9714 27.0687 17.1608 26.0689 17.1608H15.6269C16.5549 13.1072 18.9946 9.56027 22.4483 7.24371V11.7297C22.4483 12.7295 23.2588 13.5401 24.2586 13.5401C25.2584 13.5401 26.0689 12.7295 26.0689 11.7297V5.4388C27.2391 5.01834 28.4541 4.73525 29.6896 4.59518V11.7297C29.6896 12.7295 30.5002 13.5401 31.5 13.5401C32.4997 13.5401 33.3103 12.7295 33.3103 11.7297V4.59518C34.5459 4.73525 35.7609 5.01834 36.931 5.4388V11.7297C36.931 12.7295 37.7416 13.5401 38.7414 13.5401C39.7411 13.5401 40.5517 12.7295 40.5517 11.7297V7.24371C44.0054 9.56027 46.4451 13.1072 47.3731 17.1608H36.931C35.9313 17.1608 35.1207 17.9714 35.1207 18.9711C35.1207 19.9709 35.9313 20.7815 36.931 20.7815H47.7931V24.4022Z" fill="url(#paqint0_linear)"/>
    <path d="M58.6552 31.6437V28.023C58.6552 27.0232 57.8446 26.2126 56.8448 26.2126C55.845 26.2126 55.0345 27.0232 55.0345 28.023V46.1264C55.0345 59.1243 44.4978 69.6609 31.5 69.6609C18.5022 69.6609 7.9655 59.1243 7.9655 46.1264V28.023C7.9655 27.0232 7.15492 26.2126 6.15516 26.2126C5.15539 26.2126 4.34481 27.0232 4.34481 28.023V31.6437H0.724121V35.2644H4.34481V46.1264C4.35975 59.0263 13.4334 70.1413 26.0689 72.7385V95.0058H17.0172C12.0207 95.0116 7.97138 99.0609 7.9655 104.057V105.868H55.0345V104.057C55.0286 99.0609 50.9793 95.0116 45.9827 95.0058H36.931V72.7385C49.5665 70.1413 58.6402 59.0263 58.6552 46.1264V35.2644H62.2758V31.6437H58.6552ZM29.6896 73.1893C30.2907 73.2291 30.8881 73.2816 31.5 73.2816C32.1119 73.2816 32.7093 73.2291 33.3103 73.1893V95.0058H29.6896V73.1893ZM45.9827 98.6264C48.2837 98.6292 50.3341 100.079 51.1042 102.247H11.8958C12.6658 100.079 14.7163 98.6292 17.0172 98.6264H45.9827Z" fill="url(#paqint1_linear)"/>
    <defs>
    <linearGradient id="paqint0_linear" x1="31.5" y1="0.867676" x2="31.5" y2="66.0401" gradientUnits="userSpaceOnUse">
    <stop stop-color="#41AFC1"/>
    <stop offset="1" stop-color="#D0E6EB"/>
    </linearGradient>
    <linearGradient id="paqint1_linear" x1="31.5" y1="26.2126" x2="31.5" y2="105.868" gradientUnits="userSpaceOnUse">
    <stop stop-color="#41AFC1"/>
    <stop offset="1" stop-color="#D0E6EB"/>
    </linearGradient>
    </defs>
    </svg>