 <svg width="24" height="24" viewBox="0 0 24 24" fill="none"
                    xmlns="http://www.w3.org/2000/svg">
                    <path
                      d="M20.0161 0H7.1894C6.31912 0 5.61112 0.708047 5.61112 1.57828V1.60331H5.58609C4.71581 1.60331 4.00781 2.31136 4.00781 3.18159V3.20662H3.98278C3.1125 3.20662 2.4045 3.91467 2.4045 4.78491V22.4216C2.4045 23.2919 3.11254 23.9999 3.98278 23.9999H16.8095C17.6798 23.9999 18.3878 23.2919 18.3878 22.4216V22.3966H18.4128C19.2831 22.3966 19.9911 21.6885 19.9911 20.8183V20.7933H20.0161C20.8864 20.7933 21.5944 20.0852 21.5944 19.215V1.57828C21.5944 0.708047 20.8864 0 20.0161 0ZM17.6362 22.4217C17.6362 22.8776 17.2653 23.2485 16.8095 23.2485H3.98273C3.52687 23.2485 3.156 22.8776 3.156 22.4217V15.9833H17.6362V22.4217H17.6362ZM17.6362 15.2317H3.156V4.78495C3.156 4.32909 3.52687 3.95822 3.98273 3.95822H16.8095C17.2653 3.95822 17.6362 4.32909 17.6362 4.78495V15.2317ZM19.2395 20.8184C19.2395 21.2742 18.8686 21.6451 18.4128 21.6451H18.3877V14.3799H19.2395V20.8184ZM19.2395 13.6284H18.3877V4.78495C18.3877 3.91467 17.6797 3.20667 16.8095 3.20667H4.75935V3.18164C4.75935 2.72578 5.13023 2.35491 5.58609 2.35491H18.4128C18.8687 2.35491 19.2396 2.72578 19.2396 3.18164V13.6284H19.2395ZM20.8429 19.215C20.8429 19.6709 20.472 20.0418 20.0161 20.0418H19.9911V12.7766H20.8429V19.215ZM20.8429 12.025H19.9911V3.18164C19.9911 2.31136 19.2831 1.60336 18.4128 1.60336H6.36267V1.57828C6.36267 1.12242 6.73354 0.751547 7.1894 0.751547H20.0161C20.472 0.751547 20.8429 1.12242 20.8429 1.57828V12.025Z"
                      fill="#C7DEE1" />
                    <path
                      d="M11.1589 13.1019L9.31783 6.47405C9.17683 5.9663 8.71033 5.61169 8.18336 5.61169H7.39788C6.87091 5.61169 6.40441 5.9663 6.26336 6.47401L4.4222 13.1019C4.3667 13.3019 4.48375 13.509 4.68377 13.5646C4.88378 13.6201 5.09088 13.503 5.14642 13.3031L5.62666 11.5741H9.95448L10.4347 13.303C10.4809 13.4694 10.632 13.5784 10.7966 13.5784C10.8299 13.5784 10.8638 13.5739 10.8974 13.5646C11.0974 13.509 11.2145 13.3019 11.1589 13.1019ZM5.83544 10.8225L6.98753 6.67515C7.03853 6.49154 7.20728 6.36324 7.39788 6.36324H8.18336C8.37395 6.36324 8.5427 6.49149 8.59366 6.67515L9.7457 10.8225H5.83544Z"
                      fill="#C7DEE1" />
                    <path
                      d="M16.0079 12.8268C15.9941 12.8268 15.9829 12.8156 15.9829 12.8018V11.3989V10.998V9.19428C15.9829 8.98676 15.8147 8.81848 15.6071 8.81848C15.3995 8.81848 15.2313 8.98672 15.2313 9.19428V9.35356C14.8485 9.0207 14.3492 8.81848 13.8033 8.81848C12.6015 8.81848 11.6237 9.7962 11.6237 10.998V11.3989C11.6237 12.6006 12.6015 13.5784 13.8033 13.5784C14.3639 13.5784 14.8756 13.3655 15.2621 13.0166C15.3557 13.3405 15.6542 13.5784 16.0079 13.5784C16.2154 13.5784 16.3837 13.4102 16.3837 13.2026C16.3837 12.995 16.2155 12.8268 16.0079 12.8268ZM15.2313 11.3988C15.2313 12.1862 14.5907 12.8268 13.8033 12.8268C13.0159 12.8268 12.3754 12.1862 12.3754 11.3988V10.998C12.3754 10.2106 13.016 9.57003 13.8033 9.57003C14.5907 9.57003 15.2313 10.2106 15.2313 10.998V11.3988Z"
                      fill="#C7DEE1" />
                    <path
                      d="M15.6072 17.6368H5.18552C4.978 17.6368 4.80972 17.8051 4.80972 18.0126C4.80972 18.2202 4.97796 18.3884 5.18552 18.3884H15.6072C15.8148 18.3884 15.983 18.2202 15.983 18.0126C15.983 17.8051 15.8148 17.6368 15.6072 17.6368Z"
                      fill="#C7DEE1" />
                    <path
                      d="M11.5989 20.8434H5.18552C4.978 20.8434 4.80972 21.0116 4.80972 21.2192C4.80972 21.4267 4.97796 21.595 5.18552 21.595H11.5989C11.8064 21.595 11.9747 21.4267 11.9747 21.2192C11.9747 21.0116 11.8064 20.8434 11.5989 20.8434Z"
                      fill="#C7DEE1" />
                    <path
                      d="M7.59039 19.2401H5.18552C4.978 19.2401 4.80972 19.4083 4.80972 19.6159C4.80972 19.8234 4.97796 19.9917 5.18552 19.9917H7.59039C7.7979 19.9917 7.96618 19.8235 7.96618 19.6159C7.96618 19.4083 7.79795 19.2401 7.59039 19.2401Z"
                      fill="#C7DEE1" />
                    <path
                      d="M15.6075 19.2401H9.19416C8.98664 19.2401 8.81836 19.4083 8.81836 19.6159C8.81836 19.8234 8.98659 19.9917 9.19416 19.9917H15.6075C15.815 19.9917 15.9833 19.8235 15.9833 19.6159C15.9833 19.4083 15.8151 19.2401 15.6075 19.2401Z"
                      fill="#C7DEE1" />
                  </svg>