<svg width="24" height="24" viewBox="0 0 24 24" fill="none"
                    xmlns="http://www.w3.org/2000/svg">
                    <path
                      d="M10.0018 1.44873H14.0129V2.12366H15.4614V1.35425C15.4616 0.607544 14.8544 0 14.1081 0H9.90656C9.16022 0 8.55304 0.607544 8.55304 1.35425V2.12366H10.0018V1.44873Z"
                      fill="#C7DEE1" />
                    <path
                      d="M18.8066 7.86328H5.20768C4.83506 7.86328 4.54173 8.18115 4.57176 8.55267L5.70866 22.6108C5.77201 23.3956 6.42662 24 7.21305 24H16.801C17.5874 24 18.242 23.3956 18.3054 22.6106L19.4423 8.55267C19.4725 8.18115 19.1792 7.86328 18.8066 7.86328ZM8.50047 22.5005C8.48527 22.5015 8.47007 22.502 8.45506 22.502C8.0753 22.502 7.75651 22.2063 7.73289 21.8221L7.02043 10.2812C6.99589 9.88184 7.29966 9.53815 7.69883 9.51361C8.09672 9.48944 8.44187 9.79248 8.46641 10.192L9.17869 21.733C9.20341 22.1323 8.89964 22.4758 8.50047 22.5005ZM12.7395 21.7776C12.7395 22.1776 12.4153 22.5018 12.0152 22.5018C11.6151 22.5018 11.2908 22.1776 11.2908 21.7776V10.2365C11.2908 9.83643 11.6151 9.51215 12.0152 9.51215C12.4151 9.51215 12.7395 9.83643 12.7395 10.2365V21.7776ZM16.9938 10.2792L16.3136 21.8201C16.2911 22.205 15.9717 22.5018 15.5912 22.5018C15.5769 22.5018 15.5625 22.5015 15.548 22.5007C15.1487 22.4771 14.844 22.1343 14.8676 21.735L15.5476 10.1938C15.5711 9.79449 15.9128 9.48981 16.3132 9.51343C16.7126 9.53687 17.0173 9.87982 16.9938 10.2792Z"
                      fill="#C7DEE1" />
                    <path
                      d="M21.3121 5.62793L20.8364 4.2019C20.711 3.82599 20.3591 3.57239 19.9627 3.57239H4.0528C3.65656 3.57239 3.30445 3.82599 3.17921 4.2019L2.7035 5.62793C2.61176 5.90295 2.73115 6.18347 2.95399 6.32336C3.04481 6.38031 3.15229 6.41455 3.27039 6.41455H20.7452C20.8633 6.41455 20.971 6.38031 21.0616 6.32318C21.2845 6.18329 21.4039 5.90277 21.3121 5.62793Z"
                      fill="#C7DEE1" />
                  </svg>