<svg width="94" height="120" viewBox="0 0 94 120"
                  fill="none" xmlns="http://www.w3.org/2000/svg">
                  <path
                    d="M90.0679 79.8132C85.3865 75.1318 77.7695 75.1318 73.0884 79.8132C70.8733 82.0283 69.6166 85.0325 69.5744 88.1508L68.3653 89.5386C64.9136 85.838 60.2228 83.6584 55.1285 83.4169C55.0755 83.4144 55.0225 83.4123 54.9696 83.4102C54.7071 83.3998 54.4441 83.3928 54.1797 83.3928H53.5094H53.3969V82.0937C56.2872 83.2449 59.3568 84.0256 62.4475 84.3842C62.5155 84.3922 62.5832 84.3959 62.6505 84.3959C63.2697 84.3959 63.85 84.0685 64.1676 83.5255C64.5196 82.9234 64.4824 82.1698 64.0724 81.6052C62.9217 80.0209 64.1278 77.4952 65.5089 75.8152C66.3074 74.8463 67.2637 73.985 68.2764 73.0728C69.265 72.1824 70.2841 71.2649 71.1949 70.2017C75.6585 68.2201 78.5174 63.8471 78.5174 58.9358C78.5174 56.8586 77.9943 54.8331 77.0148 53.0371C82.9148 50.9636 86.9711 45.392 86.9711 38.9249C86.9711 36.1586 86.2112 33.4572 84.7736 31.113C84.2662 30.2852 83.1836 30.026 82.3562 30.5334C81.5287 31.041 81.2692 32.1234 81.7766 32.951C82.8752 34.7418 83.4557 36.8076 83.4557 38.9247C83.4557 44.5712 79.4162 49.3248 73.8508 50.2279C73.2196 50.3303 72.6937 50.7676 72.4778 51.3695C72.262 51.9714 72.3899 52.6433 72.8123 53.1236C74.2244 54.73 75.002 56.7939 75.002 58.9356C75.002 62.556 72.828 65.7674 69.4633 67.1174C69.1849 67.2292 68.9397 67.4103 68.7508 67.6435C67.9445 68.6408 66.963 69.5246 65.924 70.4605C64.8604 71.4184 63.7607 72.4089 62.7949 73.581C61.2299 75.4843 59.981 78.0134 60.0996 80.4481C58.286 80.0736 56.5017 79.5413 54.7872 78.8642C54.8472 78.8328 54.9054 78.7988 54.9649 78.767C55.0882 78.7013 55.21 78.6336 55.3322 78.5661C55.4918 78.4777 55.6511 78.3887 55.8089 78.2975C55.9549 78.2131 56.0997 78.1266 56.2441 78.0397C56.3714 77.9628 56.4982 77.8857 56.6238 77.807C56.7923 77.7017 56.9592 77.5948 57.1251 77.4861C57.2198 77.424 57.314 77.3614 57.408 77.2981C57.5983 77.1702 57.7872 77.0403 57.9745 76.9077C58.0366 76.8636 58.098 76.8191 58.1596 76.7748C58.3727 76.6213 58.5836 76.4656 58.7922 76.3063C58.8189 76.2856 58.8454 76.2648 58.8721 76.2441C61.1901 74.4596 63.2301 72.3149 64.9139 69.8617C67.3818 66.2654 68.9517 62.1934 69.5479 57.9163C69.5514 57.891 69.5545 57.8657 69.558 57.8404C69.5971 57.5537 69.6335 57.2664 69.6637 56.9779C69.6724 56.8958 69.6787 56.8133 69.6869 56.7313C69.7099 56.492 69.7328 56.2525 69.7499 56.012C69.7612 55.8559 69.7677 55.6989 69.7762 55.5423C69.7856 55.3684 69.7973 55.195 69.8036 55.0206C69.8158 54.6829 69.8226 54.3442 69.8226 54.0044V51.5387V51.3348C69.8226 50.8415 69.6152 50.3706 69.251 50.0378C68.887 49.7047 68.399 49.5397 67.9082 49.584C67.6994 49.6028 67.4831 49.6122 67.2656 49.6122C67.0701 49.6122 66.876 49.603 66.6834 49.589L66.5116 49.5726C66.355 49.5576 66.1989 49.5405 66.0445 49.5161C66.0227 49.5123 66.0009 49.5088 65.9789 49.5058C65.9756 49.5053 65.973 49.5046 65.9697 49.5041C65.7892 49.4741 65.6106 49.4373 65.4339 49.3949C65.407 49.3883 65.381 49.3822 65.3524 49.3747C65.1841 49.3323 65.0177 49.2833 64.8532 49.2297L64.6727 49.1662C64.5307 49.1158 64.3893 49.0637 64.2506 49.0049C64.2459 49.003 64.2396 49.0005 64.2358 48.9988L64.1688 48.969C64.1627 48.9662 64.1564 48.9634 64.1503 48.9606C64.0042 48.8962 63.8601 48.827 63.7178 48.7534C63.6846 48.7363 63.6513 48.7199 63.6178 48.7021C63.4675 48.6215 63.3201 48.5343 63.1746 48.4433C63.1731 48.4424 63.1715 48.4415 63.1699 48.4405C63.1551 48.4312 63.1403 48.4218 63.1253 48.4126C63.1031 48.3993 63.0834 48.3862 63.0644 48.374C62.9364 48.291 62.8115 48.2019 62.6878 48.111C62.6146 48.0573 62.542 48.0032 62.4712 47.9474C62.4358 47.9195 62.4007 47.8914 62.366 47.863C62.2893 47.8005 62.2143 47.7365 62.1405 47.6716C62.0992 47.6352 62.0585 47.5987 62.0182 47.5616C61.9553 47.504 61.8937 47.4449 61.833 47.3854C61.7845 47.3378 61.7364 47.29 61.6893 47.2415C61.6408 47.1916 61.5937 47.1405 61.5468 47.0894C61.4913 47.0287 61.436 46.9675 61.3823 46.9051C61.3478 46.8651 61.3143 46.8241 61.2806 46.7833C61.2187 46.7083 61.1578 46.6326 61.0989 46.5555C61.0767 46.5262 61.0551 46.4964 61.0333 46.4669C60.967 46.3773 60.9021 46.2869 60.8397 46.1948C60.8275 46.1767 60.8158 46.1582 60.8036 46.1399C60.735 46.0363 60.6682 45.9316 60.6049 45.8249C60.6002 45.8169 60.5957 45.809 60.5911 45.801C60.2355 45.198 59.9629 44.5483 59.7825 43.8677C59.7822 43.8667 59.782 43.8658 59.7818 43.8646C59.759 43.7786 59.7403 43.6912 59.7203 43.604C63.0215 42.8041 66.1263 41.5942 68.9338 39.9927C76.4102 35.736 80.698 29.3142 80.698 22.3739C80.698 16.2818 77.4189 10.5954 71.4644 6.36257C65.692 2.25984 58.0481 0 49.9408 0C38.2852 0 27.7088 4.75405 22.5047 12.2191C21.1189 11.8179 19.6873 11.6151 18.2321 11.6151C14.5074 11.6151 10.9121 12.9626 8.10825 15.409C7.37677 16.0474 7.3013 17.1576 7.9395 17.8893C8.57794 18.6208 9.68817 18.6965 10.4197 18.0581C12.5829 16.1704 15.3572 15.131 18.2321 15.131C19.7311 15.131 21.1976 15.4097 22.5907 15.9595C23.3914 16.2754 24.3038 15.9649 24.7451 15.2257C28.9929 8.11194 38.8828 3.51562 49.9408 3.51562C64.9617 3.51562 77.182 11.9756 77.182 22.3746C77.182 28.016 73.5414 33.3243 67.1927 36.9391C62.9662 39.3498 57.776 40.8166 52.3664 41.1564C52.3094 41.1599 52.2525 41.1634 52.1955 41.1667C51.896 41.1843 51.5955 41.1972 51.2946 41.2077C51.2074 41.2108 51.1204 41.2148 51.033 41.2171C50.6829 41.227 50.332 41.2328 49.9807 41.233C49.9671 41.233 49.9535 41.2335 49.9399 41.2335C49.9303 41.2335 49.9207 41.2333 49.9111 41.2333C49.6216 41.233 49.3329 41.2286 49.0451 41.222C48.9433 41.2197 48.8416 41.2166 48.7399 41.2134C48.5381 41.2073 48.337 41.1993 48.1361 41.1899C48.0244 41.1848 47.9121 41.1803 47.8005 41.1742C47.5404 41.1599 47.2812 41.143 47.0229 41.1238C46.8469 41.1105 46.6715 41.0948 46.4962 41.0793C46.4034 41.0711 46.3106 41.0629 46.2183 41.054C46.0111 41.0341 45.8044 41.013 45.5981 40.9898C45.5892 40.9888 45.5803 40.9877 45.5714 40.9867C39.3853 40.2841 33.6734 38.1048 29.4598 34.7716C29.4117 34.7336 29.3623 34.6989 29.3119 34.6668C27.5042 33.2113 25.9929 31.5515 24.8642 29.7199C24.2857 28.7812 23.816 27.8041 23.468 26.8157C23.1455 25.9 22.1424 25.4193 21.2262 25.7416C20.3105 26.0641 19.8296 27.0677 20.1521 27.9834C20.5831 29.2075 21.1615 30.4122 21.8712 31.5639C22.9106 33.2507 24.2227 34.81 25.7553 36.2235C25.7494 36.2282 25.744 36.2334 25.7381 36.2381C25.616 36.3377 25.4906 36.4328 25.3645 36.5275C25.3299 36.5538 25.2963 36.5816 25.2614 36.6074C25.1257 36.707 24.987 36.802 24.8471 36.8957C24.8192 36.9145 24.7924 36.9349 24.7643 36.9531C24.6919 37.0007 24.6167 37.0445 24.5431 37.0907C24.518 37.1064 24.4929 37.1221 24.4678 37.1376C24.3945 37.1828 24.3228 37.2304 24.2482 37.274C24.1404 37.3373 24.0296 37.3956 23.9196 37.4556C23.8517 37.4927 23.7853 37.532 23.7164 37.5679C23.5364 37.6614 23.3534 37.7507 23.1678 37.8356C22.6978 38.0502 22.346 38.4609 22.2059 38.9582C22.066 39.4556 22.152 39.9895 22.441 40.4177C22.6041 40.6593 22.7414 40.9143 22.8579 41.1775C23.1335 41.8002 23.2798 42.4752 23.2798 43.169C23.2798 43.319 23.2706 43.4673 23.2578 43.6148C23.2549 43.6464 23.2526 43.6783 23.2491 43.7097C23.2346 43.8416 23.2139 43.9715 23.1893 44.1002C23.1802 44.1473 23.1699 44.1944 23.1593 44.241C23.1354 44.3476 23.1085 44.4529 23.078 44.5569C23.0599 44.6181 23.0398 44.6788 23.0194 44.7391C22.9915 44.8216 22.9617 44.9031 22.9296 44.9837C22.9092 45.0348 22.8898 45.0862 22.8678 45.1363C22.8204 45.2446 22.7689 45.3508 22.714 45.4548C22.6915 45.498 22.6678 45.5404 22.6439 45.5828C22.5809 45.6944 22.5157 45.8048 22.4445 45.9109C22.4346 45.9255 22.4239 45.9395 22.4138 45.9541C22.3578 46.0356 22.2971 46.1134 22.2364 46.1912C22.2017 46.2353 22.1698 46.281 22.1335 46.3239C22.0868 46.3797 22.036 46.4312 21.9872 46.4849C21.9209 46.5571 21.8553 46.6298 21.7842 46.6984C21.7369 46.7444 21.687 46.7875 21.6378 46.8316C21.5738 46.8894 21.5098 46.9476 21.4432 47.0017C21.3689 47.0617 21.2916 47.1177 21.2138 47.1733C21.1676 47.2066 21.1224 47.2412 21.075 47.2729C20.9794 47.3364 20.8805 47.395 20.7804 47.4519C20.7457 47.4719 20.7117 47.4934 20.6766 47.5124C20.5678 47.5708 20.4556 47.6233 20.3424 47.6737C20.3112 47.6875 20.281 47.7032 20.2496 47.7163C20.135 47.7644 20.0171 47.8058 19.8982 47.8452C19.8647 47.8562 19.8319 47.8696 19.7979 47.8801C19.681 47.916 19.5612 47.9448 19.441 47.9723C19.4032 47.9807 19.3662 47.9922 19.3282 47.9997C19.2043 48.0247 19.0775 48.0421 18.9502 48.0576C18.9153 48.0618 18.881 48.069 18.8459 48.0726C18.6835 48.0887 18.5187 48.0976 18.3521 48.0976C18.2585 48.0976 18.1655 48.0951 18.0732 48.0901C17.426 48.0548 16.8054 47.8951 16.2221 47.6137C14.5224 46.7983 13.4239 45.0538 13.4239 43.1694C13.4239 42.1987 12.6368 41.4116 11.6661 41.4116C10.6953 41.4116 9.90825 42.1987 9.90825 43.1694C9.90825 46.0129 11.3686 48.6688 13.7035 50.2155V54.0044C13.7035 54.0627 13.7063 54.1206 13.7068 54.179C13.7084 54.4384 13.7126 54.6974 13.7213 54.9557C13.7262 55.1052 13.7346 55.254 13.7419 55.4031C13.7501 55.5676 13.7586 55.7319 13.7696 55.8958C13.7815 56.0767 13.7956 56.2569 13.8111 56.4372C13.8209 56.5515 13.8319 56.6657 13.8432 56.7798C13.8645 56.9983 13.8872 57.2165 13.9135 57.4337C13.9149 57.445 13.9165 57.456 13.9179 57.4672C14.895 65.4489 19.2155 72.5394 25.7508 77.0584C23.1553 78.2579 20.375 79.1108 18.0865 79.4345C18.9549 77.6713 19.1817 75.5788 18.8473 73.7581C18.2846 70.6963 16.4825 68.1601 14.685 65.8248L14.4392 65.5061C12.8853 63.4911 11.4176 61.5882 10.7836 59.4086C10.4328 58.1943 10.4335 56.8656 10.7857 55.7631C11.0726 54.8657 10.6008 53.9017 9.71606 53.5773C6.25904 52.311 3.93639 48.9843 3.93639 45.2997C3.93639 41.9973 5.76076 38.9988 8.69747 37.4741C9.17442 37.2264 9.51192 36.7745 9.61364 36.247C9.71536 35.7194 9.57028 35.1742 9.21966 34.7671C7.36482 32.6132 6.34341 29.8619 6.34341 27.0196C6.34341 25.7064 6.55552 24.4171 6.97411 23.1874C7.28677 22.2684 6.79529 21.2697 5.8763 20.9568C4.95709 20.6439 3.95865 21.1357 3.64576 22.0546C3.10295 23.6498 2.82756 25.3202 2.82756 27.0196C2.82756 30.0257 3.70904 32.9531 5.33982 35.4456C2.26412 37.7521 0.420532 41.372 0.420532 45.2997C0.420532 49.9319 3.04506 54.1595 7.08802 56.2543C6.90779 57.605 7.01372 59.0279 7.40654 60.3875C8.22708 63.2085 9.96966 65.4681 11.6548 67.6532L11.8986 67.9696C13.4975 70.0468 14.9677 72.1011 15.3891 74.3938C15.7357 76.2805 15.0753 78.7002 13.3695 79.4839C12.6992 79.7919 12.2925 80.4854 12.3509 81.2206C12.4095 81.9559 12.9209 82.5765 13.6313 82.7743C14.408 82.9909 15.2864 83.0898 16.2336 83.0898C20.2378 83.0895 25.4606 81.3188 29.3508 79.1724C29.6074 79.2985 29.8667 79.4206 30.1282 79.5395V83.3928H30.0249C30.0218 83.3928 30.019 83.3921 30.0162 83.3921H29.3461C29.0257 83.3921 28.7063 83.4015 28.3877 83.4172C28.316 83.4207 28.2452 83.4273 28.1738 83.4315C27.9319 83.446 27.6905 83.4634 27.4498 83.4868C27.3544 83.4959 27.2599 83.5079 27.165 83.5184C26.9489 83.5426 26.7333 83.5695 26.5181 83.6009C26.4169 83.6157 26.3163 83.6321 26.2158 83.6485C26.0077 83.6823 25.8003 83.7193 25.5935 83.7598C25.4935 83.7795 25.3934 83.7997 25.2938 83.8208C25.0861 83.8651 24.8792 83.9134 24.6729 83.9644C24.5794 83.9876 24.4856 84.0102 24.3924 84.0348C24.1742 84.0922 23.9574 84.155 23.7408 84.2202C23.6646 84.2431 23.588 84.2645 23.5123 84.2884C23.254 84.3697 22.9971 84.4573 22.7417 84.5497C22.7131 84.5602 22.6838 84.5694 22.6549 84.5799C22.6198 84.5928 22.5839 84.6038 22.5485 84.6169C22.5129 84.6303 22.4794 84.6474 22.4447 84.6629C15.1245 87.4529 9.90848 94.5418 9.90848 102.83V118.242C9.90848 119.213 10.6955 120 11.6663 120H41.7593C41.76 120 41.7607 120 41.7612 120C41.7619 120 41.7626 120 41.763 120H71.8581C72.8289 120 73.616 119.213 73.616 118.242V113.97C73.616 112.999 72.8289 112.212 71.8581 112.212C70.8874 112.212 70.1003 112.999 70.1003 113.97V116.484H63.1638L81.7274 100.307C84.8462 100.267 87.8521 99.0108 90.0679 96.7951C94.75 92.1132 94.75 84.4951 90.0679 79.8132ZM66.0412 92.2055L64.3563 94.1391L63.1162 89.6394C64.1805 90.3638 65.1632 91.2219 66.0412 92.2055ZM54.7467 86.9192C54.7828 86.9204 54.8186 86.9225 54.8545 86.9239C54.9813 86.9293 55.1079 86.9351 55.2342 86.9436C55.2731 86.9462 55.3118 86.9492 55.3507 86.952C55.4941 86.9623 55.6373 86.9743 55.78 86.9883C55.7983 86.9902 55.8166 86.9921 55.8349 86.994C56.8814 87.102 57.911 87.313 58.9143 87.6256L61.5857 97.3191L58.9891 100.299L54.8578 98.6616C54.0979 98.3604 53.2315 98.6227 52.7658 99.294L47.8256 106.416L50.9709 97.5554L54.7467 86.9192ZM17.4516 57.3779C17.4481 57.3526 17.445 57.3275 17.4417 57.3022C17.4089 57.0597 17.3796 56.8159 17.3541 56.5717C17.3473 56.5054 17.3417 56.4388 17.3353 56.3725C17.315 56.1604 17.2957 55.9478 17.2807 55.7347C17.2735 55.629 17.2688 55.5224 17.2629 55.4165C17.2526 55.2353 17.2414 55.0541 17.235 54.8722C17.2294 54.707 17.2282 54.5406 17.2257 54.3747C17.2238 54.2509 17.2193 54.1276 17.2193 54.0034V51.5392C17.2322 51.5408 17.2456 51.5415 17.2585 51.5432C17.28 51.546 17.3018 51.5476 17.3234 51.5502C17.3782 51.5568 17.4333 51.5629 17.4884 51.5683C17.5601 51.5755 17.6321 51.5821 17.7043 51.5875C17.7462 51.5905 17.7879 51.5943 17.8299 51.5966C17.8636 51.5987 17.8974 51.6001 17.9314 51.6018C18.0387 51.6069 18.146 51.6093 18.2534 51.6107C18.2628 51.6109 18.2721 51.6114 18.2815 51.6114C18.3047 51.6116 18.3275 51.6137 18.3507 51.6137C18.3605 51.6137 18.3703 51.613 18.3804 51.613C18.4163 51.6128 18.4521 51.6109 18.488 51.6105C18.586 51.6088 18.6837 51.6074 18.7812 51.6025C18.7866 51.6022 18.792 51.6018 18.7974 51.6015C18.8314 51.5997 18.867 51.5971 18.9171 51.5929C18.9258 51.5924 18.9345 51.5915 18.9434 51.5908C19.0287 51.5849 19.114 51.5793 19.1986 51.5708C19.1996 51.5708 19.2007 51.5706 19.2017 51.5706C19.2031 51.5704 19.2045 51.5704 19.2057 51.5701C19.2216 51.5685 19.2375 51.5662 19.2535 51.5645C19.2785 51.5615 19.3039 51.5589 19.3287 51.5556L19.3812 51.549C19.46 51.5394 19.5387 51.5301 19.617 51.5183C19.6186 51.5181 19.6203 51.5179 19.6219 51.5176C19.624 51.5174 19.6261 51.5169 19.6282 51.5165C19.643 51.5141 19.6578 51.5113 19.6725 51.509C19.6927 51.5057 19.7131 51.5022 19.7332 51.4986C19.8371 51.4815 19.9404 51.4635 20.0431 51.4426C20.0539 51.4403 20.0646 51.4377 20.0757 51.4356C21.3867 51.1642 22.6111 50.5851 23.6553 49.7362C23.6916 49.7069 23.727 49.6766 23.7628 49.6466C23.8381 49.5833 23.9126 49.5187 23.9857 49.4526C24.0382 49.4055 24.0905 49.3579 24.1416 49.3096C24.1566 49.2953 24.1723 49.2822 24.187 49.2679C24.2149 49.2412 24.2412 49.213 24.2686 49.1861C24.2979 49.1572 24.3274 49.1282 24.3563 49.0989C24.3895 49.0651 24.4238 49.0321 24.4563 48.9976C24.4957 48.9564 24.5339 48.9142 24.5724 48.8722C24.5953 48.8472 24.6178 48.8216 24.6406 48.7963C24.7102 48.7187 24.7786 48.6405 24.8449 48.5603C24.866 48.535 24.8862 48.5092 24.9071 48.4837C24.9708 48.4049 25.0341 48.3257 25.0948 48.2448C25.1229 48.2076 25.1499 48.1694 25.1773 48.1316C25.2274 48.0625 25.2778 47.9936 25.3259 47.923C25.3702 47.8583 25.4121 47.7923 25.4545 47.7264C25.4831 47.6816 25.5127 47.6376 25.5406 47.5923C26.0815 46.7165 26.4652 45.7347 26.6562 44.6861C26.6585 44.6727 26.6609 44.6594 26.6635 44.646C26.6878 44.5077 26.7089 44.3685 26.7267 44.2281C26.7305 44.1984 26.7347 44.1686 26.7382 44.1388C26.7528 44.0118 26.7642 43.8838 26.7729 43.7549C26.7755 43.7195 26.779 43.6841 26.7811 43.6485C26.79 43.4898 26.7956 43.3302 26.7956 43.1692C26.7956 42.1356 26.6093 41.1238 26.2486 40.1741C26.2538 40.1711 26.2585 40.1676 26.2636 40.1645C26.4434 40.0546 26.6203 39.9405 26.7952 39.8233C26.85 39.7865 26.9039 39.7485 26.9583 39.7113C27.0856 39.6236 27.2114 39.5345 27.3361 39.4431C27.3938 39.4007 27.4514 39.3583 27.5086 39.3152C27.6406 39.2155 27.7706 39.1134 27.8993 39.0093C27.931 38.9838 27.9638 38.9601 27.9949 38.9343C28.0043 38.9266 28.013 38.9184 28.0224 38.9109C28.1874 38.7747 28.35 38.6348 28.5096 38.4913C28.5183 38.4836 28.5274 38.4763 28.5361 38.4684C31.2762 40.3933 34.4787 41.9167 37.953 42.9817C38.0126 43 38.0721 43.018 38.1316 43.0361C38.4202 43.123 38.7098 43.2077 39.0021 43.288C39.0349 43.2972 39.0677 43.3063 39.1005 43.3152C39.3762 43.3905 39.6534 43.4619 39.9319 43.5313C40.043 43.559 40.1543 43.5862 40.2659 43.6131C40.4815 43.6649 40.698 43.7148 40.9153 43.7634C41.0625 43.7962 41.2099 43.8283 41.3578 43.8594C41.5723 43.9047 41.7874 43.9485 42.0035 43.9905C42.1411 44.0172 42.2791 44.043 42.4174 44.0683C42.608 44.1032 42.799 44.1362 42.9905 44.1686C43.1705 44.1988 43.3507 44.2281 43.5316 44.2562C43.7414 44.2888 43.9516 44.32 44.1623 44.3493C44.2994 44.3683 44.437 44.3866 44.5746 44.4044C44.7893 44.432 45.0047 44.4578 45.2203 44.4822C45.3586 44.4977 45.4966 44.5131 45.6354 44.5274C45.888 44.5534 46.1414 44.5771 46.3955 44.5984C46.5115 44.6083 46.6275 44.6174 46.7437 44.6261C47.0163 44.6469 47.2894 44.6652 47.5633 44.6807C47.6217 44.684 47.6798 44.688 47.7384 44.691C48.0501 44.7072 48.3628 44.7191 48.6759 44.7285C48.7643 44.7311 48.8529 44.7334 48.9415 44.7355C49.274 44.7435 49.6071 44.7489 49.9408 44.7489C49.9483 44.7489 49.9558 44.7487 49.9633 44.7487C50.3327 44.7484 50.7014 44.7419 51.0698 44.7323C51.1722 44.7297 51.2749 44.7271 51.3771 44.7238C51.7176 44.7126 52.0575 44.6978 52.3966 44.6784C52.4426 44.6758 52.489 44.6748 52.5347 44.6723C52.6326 44.6664 52.7294 44.657 52.8272 44.6505C53.0332 44.6366 53.2387 44.6212 53.444 44.6045C53.6121 44.5909 53.7806 44.5785 53.9482 44.5628C54.0961 44.549 54.2428 44.5316 54.3902 44.5164C54.5104 44.5037 54.6311 44.492 54.7511 44.4784C54.9888 44.4517 55.2257 44.4226 55.462 44.3919C55.4943 44.3877 55.5267 44.383 55.5593 44.3788C55.795 44.3477 56.0313 44.3179 56.2654 44.2827C56.2882 44.3884 56.3156 44.4925 56.3414 44.5973C56.3554 44.6537 56.3676 44.7109 56.3824 44.7672C56.415 44.8912 56.4518 45.0133 56.4883 45.1359C56.5038 45.1869 56.5186 45.238 56.5347 45.2889C56.5753 45.4176 56.6184 45.5448 56.6634 45.6716C56.6751 45.7047 56.6875 45.7375 56.6997 45.7705C56.9153 46.3583 57.1795 46.9251 57.49 47.4665C57.5027 47.4887 57.5156 47.5108 57.5285 47.5328C57.6039 47.6624 57.6813 47.7908 57.7621 47.9174C57.7659 47.9233 57.7699 47.9289 57.7734 47.9348C57.9344 48.186 58.1057 48.4307 58.2871 48.669C58.3047 48.6922 58.3214 48.7162 58.3392 48.7391C58.4079 48.828 58.4793 48.9149 58.5511 49.0019C58.6052 49.0677 58.6598 49.1333 58.7153 49.198C58.7779 49.2705 58.841 49.3426 58.9054 49.4137C58.9858 49.5025 59.0686 49.5897 59.1522 49.6762C59.1989 49.7244 59.2443 49.7737 59.2919 49.821C59.4302 49.9593 59.5722 50.094 59.7182 50.2258C59.7375 50.2429 59.7574 50.2595 59.7766 50.2766C59.9109 50.3959 60.0485 50.5122 60.1891 50.6256C60.2207 50.6509 60.2526 50.676 60.2845 50.7013C60.344 50.7484 60.4024 50.7969 60.4631 50.8431C60.5957 50.9439 60.7307 51.0404 60.8669 51.1349C60.8683 51.1358 60.8704 51.1375 60.8718 51.1384C60.8807 51.1445 60.8901 51.1506 60.899 51.1567C62.3355 52.1462 63.9574 52.776 65.6739 53.0162C65.6807 53.0172 65.6875 53.0183 65.6943 53.0193C65.7079 53.0211 65.7215 53.023 65.7349 53.0244L65.7417 53.0254C65.8117 53.0347 65.8818 53.0444 65.9524 53.0526L65.9653 53.0542C65.9779 53.0558 65.9906 53.0572 66.0032 53.0584L66.2036 53.0788C66.2137 53.0797 66.224 53.0807 66.2341 53.0816L66.2678 53.0842C66.2805 53.0854 66.2929 53.087 66.3056 53.0879V54.0044C66.3056 54.3273 66.299 54.6496 66.2866 54.9704C66.2859 54.9899 66.284 55.0089 66.2833 55.0283C65.9083 64.0152 60.6215 72.058 52.6497 76.0067C52.4519 76.1042 52.2511 76.1973 52.05 76.2899C51.9726 76.3255 51.8967 76.3632 51.8189 76.3981C51.5981 76.4973 51.374 76.5913 51.1493 76.6843C51.0783 76.7136 51.0086 76.745 50.9372 76.7736C50.8617 76.8043 50.7829 76.8343 50.7058 76.8648C50.4515 76.9644 50.1963 77.0619 49.9373 77.1535C49.9371 77.1535 49.9371 77.1535 49.9369 77.1538C49.6654 77.2496 49.3922 77.3406 49.1175 77.4266C47.1937 78.0294 45.1948 78.3915 43.1571 78.5047C42.7019 78.5326 42.2454 78.5459 41.7619 78.5459C41.1642 78.5459 40.5696 78.5248 39.9785 78.4824C39.5545 78.4522 39.1326 78.41 38.7124 78.358C37.1365 78.163 35.5898 77.8156 34.0833 77.3188C33.5663 77.1481 33.0534 76.9611 32.5463 76.7553C32.546 76.7553 32.5458 76.7551 32.5456 76.7551C31.717 76.4192 30.9159 76.0407 30.1416 75.6261C30.1418 75.6259 30.1413 75.6254 30.1406 75.6249C23.1746 71.8719 18.5152 65.0699 17.4516 57.3779ZM24.611 87.627C24.8515 87.552 25.0946 87.4831 25.3395 87.4194C25.361 87.4137 25.3826 87.4081 25.4044 87.4027C25.8881 87.279 26.3808 87.178 26.8807 87.0997C26.9103 87.095 26.9398 87.0905 26.9693 87.0861C27.462 87.012 27.9619 86.9609 28.4681 86.9333C28.5063 86.9312 28.5448 86.9291 28.5832 86.9274C28.6484 86.9244 28.7142 86.9246 28.7796 86.9225L35.6986 106.413L30.7603 99.2928C30.424 98.8081 29.8786 98.5367 29.3152 98.5367C29.0986 98.5367 28.8792 98.5768 28.6681 98.6604L20.6998 101.818L24.611 87.627ZM13.4243 116.484V102.829C13.4243 97.3632 16.1939 92.5325 20.4028 89.6644L16.3732 104.285C16.196 104.928 16.3978 105.615 16.894 106.06C17.3902 106.506 18.0954 106.632 18.7153 106.386L28.6662 102.443L38.4042 116.484H13.4243ZM41.7626 112.987L32.4778 86.8306C32.7827 86.7366 33.0598 86.5606 33.2761 86.3169C33.6096 85.9407 33.7662 85.4396 33.7062 84.9404C33.6642 84.5916 33.6438 84.2731 33.6438 83.9668V80.8679C33.6602 80.8728 33.6766 80.8768 33.6931 80.8817C33.979 80.9677 34.2659 81.0484 34.5539 81.125C34.6209 81.1428 34.6884 81.1597 34.7555 81.177C35.0105 81.2427 35.2662 81.305 35.5228 81.3636C35.5706 81.3744 35.6182 81.3863 35.666 81.3969C35.9573 81.4616 36.2496 81.5206 36.543 81.5759C36.6138 81.5893 36.6848 81.602 36.7559 81.6146C37.023 81.6629 37.2907 81.7077 37.5595 81.748C37.5966 81.7536 37.6336 81.7599 37.6706 81.7653C37.968 81.8087 38.2666 81.8464 38.5659 81.8801C38.6386 81.8884 38.7112 81.8961 38.7839 81.9036C39.068 81.9336 39.3525 81.9601 39.638 81.9814C39.66 81.983 39.682 81.9854 39.7043 81.987C40.0076 82.0091 40.3116 82.0245 40.6165 82.0367C40.6905 82.0398 40.7646 82.0423 40.8387 82.0447C41.1459 82.0545 41.4539 82.0613 41.7626 82.0613C42.3105 82.0613 42.8519 82.0454 43.3624 82.014C43.6694 81.9969 43.9758 81.9737 44.2814 81.9467C44.381 81.9378 44.4801 81.9268 44.5795 81.917C44.7872 81.8963 44.9948 81.8743 45.2018 81.8492C45.3159 81.8354 45.4301 81.8199 45.544 81.8047C45.7387 81.7784 45.933 81.7505 46.1271 81.7203C46.2412 81.7025 46.3551 81.6847 46.4688 81.6655C46.6715 81.6312 46.8736 81.5942 47.0751 81.5555C47.1759 81.5363 47.2767 81.5183 47.377 81.4979C47.6482 81.443 47.9182 81.384 48.1875 81.3212C48.2161 81.3144 48.2449 81.309 48.2735 81.3022C48.5704 81.2316 48.8662 81.1555 49.1608 81.0753C49.2527 81.0502 49.3441 81.0228 49.4358 80.9968C49.5844 80.9546 49.7334 80.9143 49.8813 80.8698V83.967C49.8813 84.2743 49.8609 84.5926 49.819 84.9401C49.7587 85.4394 49.9153 85.9405 50.2488 86.3169C50.4651 86.5609 50.7424 86.7371 51.0476 86.8308L41.7626 112.987ZM45.1212 116.484L54.8597 102.444L56.5399 103.11L52.1843 108.108C51.5772 108.805 51.6131 109.853 52.2665 110.506L58.2447 116.484H45.1212ZM60.7005 113.968L55.9129 109.18L60.8217 103.547C60.8221 103.547 60.8226 103.546 60.8231 103.546L64.8567 98.9168C64.8574 98.9161 64.8578 98.9152 64.8585 98.9145L69.6524 93.413C69.656 93.409 69.6592 93.4051 69.6628 93.4011L70.3635 92.5969C70.3673 92.6065 70.3715 92.6157 70.3753 92.6253C70.4463 92.8095 70.521 92.9921 70.6012 93.1723C70.6087 93.1894 70.6174 93.2061 70.6251 93.2232C70.6982 93.3858 70.7744 93.5466 70.8548 93.706C70.885 93.7658 70.9176 93.8243 70.9488 93.8839C71.0095 93.9994 71.0709 94.1145 71.1353 94.2282C71.1735 94.2952 71.2134 94.3613 71.2528 94.4279C71.3146 94.5319 71.3772 94.6355 71.4421 94.7377C71.4853 94.8057 71.5296 94.8732 71.5743 94.9404C71.6402 95.0398 71.7077 95.138 71.7766 95.2355C71.8232 95.3014 71.8701 95.3672 71.9181 95.4322C71.9908 95.5306 72.0658 95.6274 72.1415 95.7237C72.1891 95.7842 72.2362 95.8451 72.2849 95.9047C72.37 96.0085 72.4579 96.1102 72.5467 96.2115C72.5899 96.2607 72.6318 96.3111 72.6759 96.3598C72.8102 96.5082 72.9475 96.654 73.0898 96.796C73.2318 96.9378 73.3776 97.0751 73.5257 97.2092C73.5745 97.2533 73.6249 97.295 73.6743 97.3383C73.7753 97.4267 73.8766 97.5143 73.9802 97.599C74.0399 97.6479 74.1011 97.6951 74.1618 97.7426C74.2579 97.8183 74.3547 97.8931 74.4529 97.9655C74.5176 98.0133 74.5832 98.06 74.6488 98.1064C74.7466 98.1755 74.845 98.243 74.9444 98.3091C75.0114 98.3536 75.0785 98.3975 75.1462 98.4406C75.2486 98.5055 75.3522 98.5686 75.4565 98.6302C75.5226 98.6693 75.5884 98.7092 75.6552 98.7472C75.7689 98.8116 75.8842 98.873 75.9998 98.9337C76.0588 98.9647 76.1172 98.9972 76.177 99.0272C76.3312 99.105 76.4873 99.1789 76.6445 99.2497C76.6668 99.2597 76.6884 99.271 76.7106 99.2808C76.8902 99.3605 77.072 99.435 77.2553 99.5058C77.2647 99.5096 77.2738 99.5138 77.2834 99.5173L60.7005 113.968ZM87.5823 94.3093C85.8927 95.9989 83.5539 96.9024 81.1649 96.7847C79.0553 96.6821 77.0697 95.8025 75.5746 94.3093C75.3878 94.1225 75.2104 93.9277 75.0431 93.7264C73.8717 92.3157 73.1866 90.5633 73.0966 88.7145V88.7143C72.9822 86.326 73.8855 83.9879 75.5744 82.299C77.1784 80.6949 79.3108 79.8116 81.5784 79.8116C83.8459 79.8116 85.978 80.6949 87.5823 82.299C90.8936 85.6102 90.8936 90.998 87.5823 94.3093Z"
                    fill="url(#paintt0_linear)" />
                  <defs>
                    <linearGradient id="paintt0_linear" x1="47" y1="0" x2="47" y2="120" gradientUnits="userSpaceOnUse">
                      <stop stop-color="#41AFC1" />
                      <stop offset="1" stop-color="#D0E6EB" />
                    </linearGradient>
                  </defs>
                </svg>