<svg width="266" height="869" viewBox="0 0 266 869" fill="none" xmlns="http://www.w3.org/2000/svg">
    <path
      d="M254.835 165.121L254.783 166.226L255.682 166.268L255.908 165.4L254.835 165.121ZM178.425 2.33371L178.398 3.43943L178.399 3.43945L178.425 2.33371ZM10.9791 166.581L9.90432 166.85L10.1223 167.72L11.0205 167.686L10.9791 166.581ZM50.0985 165.121L50.1399 166.226L51.411 166.178L51.1894 164.928L50.0985 165.121ZM87.0243 45.768L86.9843 44.6626L86.9724 44.6631L87.0243 45.768ZM178.425 45.768L178.385 46.8733L178.39 46.8735L178.425 45.768ZM215.716 163.296L214.626 163.1L214.401 164.342L215.664 164.401L215.716 163.296ZM254.835 165.121C255.908 165.4 255.908 165.399 255.908 165.399V165.397C255.908 165.397 255.909 165.394 255.91 165.392C255.911 165.388 255.912 165.38 255.914 165.371C255.92 165.353 255.927 165.326 255.936 165.29C255.954 165.218 255.981 165.113 256.016 164.975C256.086 164.697 256.189 164.287 256.32 163.755C256.581 162.69 256.954 161.136 257.401 159.173C258.295 155.247 259.486 149.688 260.678 143.145C263.059 130.069 265.449 113.023 265.449 97.2321H263.233C263.233 112.831 260.87 129.729 258.498 142.75C257.314 149.255 256.128 154.783 255.241 158.683C254.797 160.632 254.427 162.174 254.167 163.229C254.039 163.755 253.937 164.16 253.868 164.432C253.834 164.569 253.807 164.672 253.79 164.74C253.781 164.775 253.774 164.801 253.77 164.818C253.767 164.827 253.766 164.832 253.765 164.837C253.764 164.839 253.763 164.841 253.763 164.841C253.763 164.841 253.763 164.842 254.835 165.121ZM265.449 97.2321C265.449 40.0952 226.252 2.33778 178.45 1.22797L178.399 3.43945C224.923 4.5196 263.233 41.2209 263.233 97.2321H265.449ZM178.451 1.22799C148.089 0.497572 117.36 0.497571 86.9976 1.22799L87.0501 3.43945C117.377 2.7099 148.071 2.70987 178.398 3.43943L178.451 1.22799ZM86.9976 1.22799C39.2016 2.33767 2.21577e-06 39.3593 0 97.2321H2.21577C2.21577 40.4968 40.5207 4.51972 87.0501 3.43945L86.9976 1.22799ZM0 97.2321C-1.10788e-06 112.296 2.48186 129.711 4.95338 143.327C6.19037 150.142 7.4273 156.019 8.35518 160.194C8.81915 162.281 9.20594 163.943 9.47699 165.083C9.6125 165.654 9.71909 166.094 9.79191 166.393C9.82833 166.542 9.8563 166.656 9.87524 166.732C9.88471 166.77 9.89191 166.8 9.89679 166.819C9.89922 166.829 9.90107 166.836 9.90234 166.841C9.90297 166.844 9.90344 166.845 9.90378 166.847L9.90417 166.849C9.90417 166.849 9.90432 166.85 10.9791 166.581C12.0539 166.312 12.0539 166.312 12.0539 166.312L12.0536 166.311C12.0536 166.311 12.0529 166.309 12.0523 166.307C12.0512 166.302 12.0495 166.294 12.0471 166.286C12.0426 166.267 12.0356 166.239 12.0264 166.202C12.0079 166.127 11.9805 166.016 11.9447 165.869C11.8729 165.576 11.7674 165.14 11.633 164.573C11.3641 163.442 10.9798 161.791 10.5184 159.715C9.59532 155.563 8.36445 149.714 7.13364 142.933C4.66951 129.357 2.21576 112.097 2.21577 97.2321H0ZM11.0205 167.686L50.1399 166.226L50.0571 164.016L10.9377 165.476L11.0205 167.686ZM50.0985 165.121C51.1894 164.928 51.1894 164.928 51.1894 164.928L51.1891 164.926C51.1891 164.926 51.1884 164.923 51.188 164.92C51.187 164.914 51.1855 164.905 51.1835 164.894C51.1795 164.872 51.1735 164.838 51.1655 164.792C51.1497 164.703 51.1262 164.569 51.0955 164.393C51.034 164.041 50.9439 163.523 50.829 162.855C50.5995 161.52 50.2714 159.589 49.8777 157.207C49.0902 152.445 48.0403 145.882 46.9905 138.682C44.8867 124.255 42.7976 107.36 42.7976 97.2321H40.5818C40.5818 107.544 42.6971 124.593 44.7977 139.001C45.8501 146.218 46.9024 152.795 47.6915 157.568C48.0861 159.955 48.415 161.89 48.6453 163.23C48.7604 163.899 48.8509 164.42 48.9126 164.774C48.9435 164.95 48.9672 165.084 48.9832 165.175C48.9912 165.221 48.9973 165.256 49.0014 165.278C49.0034 165.29 49.0049 165.299 49.006 165.305C49.0065 165.308 49.0071 165.311 49.0071 165.311L49.0075 165.313C49.0075 165.313 49.0076 165.313 50.0985 165.121ZM42.7976 97.2321C42.7976 81.0656 48.1888 68.7596 56.3763 60.3636C64.5734 51.9578 75.6342 47.4082 87.0761 46.8728L86.9724 44.6631C75.0158 45.2227 63.4093 49.9804 54.7887 58.8206C46.1585 67.6706 40.5818 80.5491 40.5818 97.2321H42.7976ZM87.0643 46.8733C117.382 45.7792 147.701 45.7792 178.385 46.8733L178.465 44.6626C147.727 43.5667 117.356 43.5666 86.9843 44.6626L87.0643 46.8733ZM178.39 46.8735C201.178 47.5844 222.651 65.6984 222.651 97.2321H224.867C224.867 64.5269 202.468 45.4115 178.459 44.6625L178.39 46.8735ZM222.651 97.2321C222.651 107.909 220.653 124.352 218.641 138.181C217.637 145.083 216.633 151.314 215.88 155.82C215.503 158.072 215.19 159.894 214.97 161.15C214.861 161.78 214.774 162.267 214.716 162.597C214.686 162.763 214.664 162.888 214.648 162.973C214.641 163.015 214.635 163.047 214.631 163.068C214.629 163.079 214.628 163.087 214.627 163.092C214.627 163.095 214.626 163.098 214.626 163.098V163.1C214.626 163.1 214.626 163.1 215.716 163.296C216.806 163.492 216.806 163.492 216.806 163.492V163.49C216.806 163.49 216.807 163.486 216.808 163.484C216.808 163.478 216.811 163.47 216.813 163.46C216.816 163.438 216.822 163.405 216.829 163.362C216.845 163.277 216.867 163.15 216.897 162.984C216.956 162.651 217.043 162.161 217.153 161.531C217.373 160.269 217.688 158.443 218.066 156.184C218.82 151.667 219.827 145.42 220.834 138.499C222.844 124.679 224.867 108.089 224.867 97.2321H222.651ZM215.664 164.401L254.783 166.226L254.887 164.016L215.768 162.191L215.664 164.401ZM4.76388 403.288H3.656V404.394H4.76388V403.288ZM260.685 403.288V404.394H261.793V403.288H260.685ZM260.685 355.474H261.793V354.823L261.222 354.507L260.685 355.474ZM98.7235 265.686L99.2614 264.718L99.2112 264.69L99.1586 264.668L98.7235 265.686ZM66.185 251.816L66.2691 250.713L65.7499 252.832L66.185 251.816ZM99.8203 254.371L99.7362 255.474L99.7782 255.477H99.8203V254.371ZM260.685 254.371V255.477H261.793V254.371H260.685ZM260.685 212.032H261.793V210.925H260.685V212.032ZM4.76389 212.032V210.925H3.65601V212.032H4.76389ZM4.76389 259.846H3.65601V260.496L4.22604 260.812L4.76389 259.846ZM166.725 349.634L166.188 350.601L166.238 350.628L166.29 350.651L166.725 349.634ZM199.264 363.504L199.183 364.607L199.699 362.486L199.264 363.504ZM164.532 360.949L164.613 359.845L164.573 359.843H164.532V360.949ZM4.76388 360.949V359.843H3.656V360.949H4.76388ZM4.76388 404.394H260.685V402.182H4.76388V404.394ZM261.793 403.288V355.474H259.577V403.288H261.793ZM261.222 354.507L99.2614 264.718L98.1856 266.652L260.148 356.441L261.222 354.507ZM99.1586 264.668L66.62 250.798L65.7499 252.832L98.2885 266.702L99.1586 264.668ZM66.1009 252.919L99.7362 255.474L99.9044 253.268L66.2691 250.713L66.1009 252.919ZM99.8203 255.477H260.685V253.265H99.8203V255.477ZM261.793 254.371V212.032H259.577V254.371H261.793ZM260.685 210.925H4.76389V213.138H260.685V210.925ZM3.65601 212.032V259.846H5.87178V212.032H3.65601ZM4.22604 260.812L166.188 350.601L167.263 348.666L5.30174 258.878L4.22604 260.812ZM166.29 350.651L198.829 364.52L199.699 362.486L167.161 348.617L166.29 350.651ZM199.345 362.4L164.613 359.845L164.451 362.052L199.183 364.607L199.345 362.4ZM164.532 359.843H4.76388V362.055H164.532V359.843ZM3.656 360.949V403.288H5.87177V360.949H3.656ZM260.685 483.439H261.793V482.333H260.685V483.439ZM4.76388 437.814L5.37957 436.894L3.656 435.744V437.814H4.76388ZM4.76388 483.804H3.656V484.414L4.17345 484.739L4.76388 483.804ZM220.103 525.413H221.211V524.307H220.103V525.413ZM220.103 599.872V600.978H221.211V599.872H220.103ZM4.76388 599.872V598.766H3.656V599.872H4.76388ZM4.76387 642.576H3.65599V643.682H4.76387V642.576ZM260.685 642.576V643.682H261.793V642.576H260.685ZM260.685 482.333H168.188V484.545H260.685V482.333ZM168.188 482.333C120.835 482.333 80.1187 470.967 51.2361 459.597C36.7967 453.913 25.3211 448.23 17.46 443.971C13.5297 441.842 10.5035 440.069 8.46281 438.83C7.44249 438.21 6.66861 437.724 6.15133 437.394C5.89269 437.229 5.69822 437.103 5.56916 437.019C5.50464 436.977 5.45647 436.945 5.42481 436.924C5.40898 436.914 5.39729 436.906 5.38974 436.901C5.38597 436.899 5.38323 436.898 5.38153 436.895L5.37957 436.894C5.37957 436.894 5.37957 436.894 4.76388 437.814C4.14821 438.734 4.14956 438.735 4.14956 438.735L4.15249 438.737C4.15496 438.738 4.15848 438.74 4.16302 438.744C4.17213 438.749 4.18539 438.758 4.20278 438.77C4.23758 438.793 4.28892 438.827 4.35666 438.871C4.49212 438.959 4.69314 439.09 4.95845 439.259C5.48906 439.597 6.27684 440.092 7.31161 440.72C9.3811 441.975 12.4388 443.767 16.4031 445.915C24.3315 450.211 35.8888 455.934 50.4233 461.655C79.4886 473.097 120.485 484.545 168.188 484.545V482.333ZM3.656 437.814V483.804H5.87177V437.814H3.656ZM4.76388 483.804C4.17345 484.739 4.1748 484.74 4.1748 484.74L4.17767 484.742C4.18008 484.744 4.18351 484.746 4.18793 484.748C4.19679 484.754 4.20968 484.762 4.22656 484.773C4.26034 484.794 4.31015 484.825 4.37585 484.864C4.50723 484.945 4.70217 485.065 4.95951 485.218C5.4742 485.527 6.23854 485.978 7.24344 486.551C9.25318 487.698 12.2253 489.332 16.0869 491.29C23.8098 495.209 35.0924 500.429 49.3516 505.647C77.8673 516.081 118.305 526.519 165.994 526.519V524.307C118.627 524.307 78.4495 513.939 50.1141 503.57C35.9478 498.386 24.7459 493.203 17.0908 489.318C13.2633 487.377 10.3229 485.76 8.34247 484.631C7.35225 484.066 6.60206 483.623 6.10099 483.323C5.85046 483.172 5.66221 483.057 5.53739 482.981C5.47497 482.942 5.42841 482.913 5.39785 482.895C5.38257 482.885 5.37129 482.878 5.36403 482.874C5.3604 482.871 5.35616 482.869 5.35616 482.869L5.35447 482.868C5.35447 482.868 5.35432 482.868 4.76388 483.804ZM165.994 526.519H220.103V524.307H165.994V526.519ZM218.995 525.413V599.872H221.211V525.413H218.995ZM220.103 598.766H4.76388V600.978H220.103V598.766ZM3.656 599.872L3.65599 642.576H5.87176L5.87177 599.872H3.656ZM4.76387 643.682H260.685V641.47H4.76387V643.682ZM261.793 642.576V483.439H259.577V642.576H261.793ZM260.685 759.465H261.793V758.653L261.017 758.41L260.685 759.465ZM4.76387 679.166L5.09605 678.111L3.65599 677.66V679.166H4.76387ZM4.76387 724.06H3.65599V724.878L4.43806 725.118L4.76387 724.06ZM71.3034 744.5H72.4113V743.684L71.6292 743.443L71.3034 744.5ZM71.3034 829.179L71.6292 830.236L72.4113 829.996V829.179H71.3034ZM4.76387 849.618L4.43806 848.561L3.65599 848.802V849.618H4.76387ZM260.685 814.214L261.018 815.269L261.793 815.025V814.214H260.685ZM111.154 817.134H110.046V818.61L111.465 818.196L111.154 817.134ZM111.154 756.545L111.472 755.485L110.046 755.058V756.545H111.154ZM213.522 787.204L213.834 788.266L217.421 787.218L213.84 786.145L213.522 787.204ZM261.017 758.41L5.09605 678.111L4.43171 680.221L260.353 760.52L261.017 758.41ZM3.65599 679.166V724.06H5.87176V679.166H3.65599ZM4.43806 725.118L70.9776 745.557L71.6292 743.443L5.08969 723.003L4.43806 725.118ZM70.1955 744.5V829.179H72.4113V744.5H70.1955ZM70.9776 828.121L4.43806 848.561L5.08968 850.676L5.87176 850.435L71.6292 830.236L70.9776 828.121ZM261.793 814.214V759.465H259.577V813.404V814.214H261.793ZM112.262 817.134V756.545H110.046V817.134H112.262ZM110.836 757.604L213.204 788.264L213.84 786.145L111.472 755.485L110.836 757.604ZM213.211 786.142L110.843 816.072L111.465 818.196L213.834 788.266L213.211 786.142Z"
      fill="url(#paiint0_linear)" />
    <path d="M4.76387 849.618H3.65599L3.65598 868.243H5.87175L5.87176 850.435L5.08968 850.676L4.76387 849.618Z"
      fill="url(#paaiint1_linear)" />
    <path d="M261.018 815.269L260.685 814.214H259.577V813.404L85.4816 868.277H92.8404L261.018 815.269Z"
      fill="url(#paaiint2_linear)" />
    <defs>
      <linearGradient id="paiint0_linear" x1="132.724" y1="0.680176" x2="132.724" y2="868.277"
        gradientUnits="userSpaceOnUse">
        <stop stop-color="#B6E1E8" />
        <stop offset="1" stop-color="#DCDCDC" stop-opacity="0.63" />
      </linearGradient>
      <linearGradient id="paaiint1_linear" x1="132.724" y1="0.680176" x2="132.724" y2="868.277"
        gradientUnits="userSpaceOnUse">
        <stop stop-color="#B6E1E8" />
        <stop offset="1" stop-color="#DCDCDC" stop-opacity="0.63" />
      </linearGradient>
      <linearGradient id="paaiint2_linear" x1="132.724" y1="0.680176" x2="132.724" y2="868.277"
        gradientUnits="userSpaceOnUse">
        <stop stop-color="#B6E1E8" />
        <stop offset="1" stop-color="#DCDCDC" stop-opacity="0.63" />
      </linearGradient>
    </defs>
  </svg>