<svg class="svg-thanks" width="576" height="515" viewBox="0 0 576 515" fill="none" xmlns="http://www.w3.org/2000/svg">
    <path d="M483.713 145.39C483.713 145.39 443.429 138.442 405.051 179.994" stroke="white" stroke-width="1.0093" stroke-miterlimit="10" stroke-linecap="round" stroke-dasharray="4.04 4.04"/>
    <path d="M486.841 515H191.247C182.537 515 175.324 507.916 175.324 499.06V494.292H502.764V499.06C502.764 507.779 495.687 515 486.841 515Z" fill="#01001E"/>
    <path d="M494.326 504.1H183.762C177.093 504.1 173.147 496.743 176.685 491.158L255.483 369.09C256.98 366.637 259.702 365.275 262.56 365.275H415.664C418.522 365.275 421.108 366.773 422.741 369.09L501.539 491.158C504.941 496.743 500.995 504.1 494.326 504.1Z" fill="#151523"/>
    <path d="M200.094 472.903L261.88 374.404H417.979L477.86 472.903H200.094Z" fill="url(#paint0_linear)"/>
    <path d="M375.381 493.611H307.607C305.293 493.611 303.932 491.159 305.157 489.251L307.198 485.982C307.743 485.164 308.695 484.619 309.648 484.619H373.476C374.564 484.619 375.517 485.164 375.925 485.982L377.967 489.251C378.919 491.022 377.558 493.611 375.381 493.611Z" fill="#01001E"/>
    <path opacity="0.3" d="M207.305 443.748L255.482 368.954C256.979 366.502 259.7 365.14 262.558 365.14H415.663C418.521 365.14 421.107 366.638 422.74 368.954L207.305 443.748Z" fill="url(#paint1_linear)"/>
    <path d="M318.63 329.99C247.181 350.698 246.093 468.407 389.126 429.307" stroke="white" stroke-width="1.0093" stroke-miterlimit="10" stroke-linecap="round" stroke-dasharray="4.04 4.04"/>
    <path d="M286.649 398.382L184.035 350.835H247.182L286.649 398.382Z" fill="url(#paint2_linear)"/>
    <path opacity="0.18" d="M286.649 398.382L184.035 350.835H247.182L286.649 398.382Z" fill="url(#paint3_linear)"/>
    <path d="M177.822 352.421L502.676 352.421V158.284L177.822 158.284V352.421Z" fill="url(#paint4_linear)"/>
    <path opacity="0.4" d="M177.822 352.421L502.676 352.421V158.284L177.822 158.284V352.421Z" fill="url(#paint5_linear)"/>
    <path opacity="0.36" d="M340.268 223.045L499.361 349.2H181.176L340.268 223.045Z" fill="url(#paint6_linear)"/>
    <path d="M340.268 229.993L502.627 352.47H177.773L340.268 229.993Z" fill="url(#paint7_linear)"/>
    <path opacity="0.18" d="M340.268 229.993L502.627 352.47H177.773L340.268 229.993Z" fill="url(#paint8_linear)"/>
    <path opacity="0.75" d="M354.015 278.084L497.593 163.373H184.443L326.388 278.084C334.554 284.624 345.986 284.624 354.015 278.084Z" fill="url(#paint9_linear)"/>
    <path d="M353.469 270.864L502.627 158.469H177.773L326.931 270.864C334.825 276.722 345.576 276.722 353.469 270.864Z" fill="url(#paint10_linear)"/>
    <path d="M60.1903 170.321C-48.548 249.066 -7.72011 403.831 185.94 398.382C477.86 390.207 604.426 169.913 491.061 146.071" stroke="white" stroke-width="1.0093" stroke-miterlimit="10" stroke-linecap="round" stroke-dasharray="4.04 4.04"/>
    <path d="M332.291 83.1452L419.289 141.618L454.184 89.59L367.186 31.1175L332.291 83.1452Z" fill="url(#paint11_linear)"/>
    <path opacity="0.4" d="M332.291 83.1452L419.289 141.618L454.184 89.59L367.186 31.1175L332.291 83.1452Z" fill="url(#paint12_linear)"/>
    <path opacity="0.36" d="M399.062 77.6802L419.067 140.077L333.873 82.8572L399.062 77.6802Z" fill="url(#paint13_linear)"/>
    <path d="M397.836 79.5879L419.338 141.576L332.375 83.13L397.836 79.5879Z" fill="url(#paint14_linear)"/>
    <path opacity="0.18" d="M397.836 79.5879L419.338 141.576L332.375 83.13L397.836 79.5879Z" fill="url(#paint15_linear)"/>
    <path opacity="0.75" d="M392.936 94.9823L452.001 90.0778L368.031 33.6758L385.451 89.9415C386.54 93.2112 389.534 95.2547 392.936 94.9823Z" fill="url(#paint16_linear)"/>
    <path d="M394.025 92.9389L454.178 89.6692L367.215 31.2236L386.948 88.1706C388.037 91.1678 390.895 93.0751 394.025 92.9389Z" fill="url(#paint17_linear)"/>
    <path d="M242.184 114.639L311.838 41.6309L268.335 0.0392466L198.682 73.0473L242.184 114.639Z" fill="url(#paint18_linear)"/>
    <path opacity="0.4" d="M242.184 114.639L311.838 41.6309L268.335 0.0392466L198.682 73.0473L242.184 114.639Z" fill="url(#paint19_linear)"/>
    <path opacity="0.36" d="M247.862 50.433L310.329 41.7139L242.146 113.238L247.862 50.433Z" fill="url(#paint20_linear)"/>
    <path d="M249.495 51.9311L311.826 41.5771L242.146 114.6L249.495 51.9311Z" fill="url(#paint21_linear)"/>
    <path opacity="0.18" d="M249.495 51.9311L311.826 41.5771L242.146 114.6L249.495 51.9311Z" fill="url(#paint22_linear)"/>
    <path opacity="0.75" d="M263.242 59.0158L268.277 2.20508L201.184 72.6395L257.39 65.2827C260.52 64.874 262.97 62.2855 263.242 59.0158Z" fill="url(#paint23_linear)"/>
    <path d="M261.473 57.6535L268.277 0.0253906L198.598 73.0482L255.757 63.6479C258.751 63.103 261.2 60.6507 261.473 57.6535Z" fill="url(#paint24_linear)"/>
    <path d="M502.765 117.598C502.765 117.598 491.469 128.36 466.972 117.598C442.612 106.835 365.311 55.065 314.957 76.1817C264.602 97.2984 219.691 239.938 163.213 229.039" stroke="white" stroke-width="1.0093" stroke-miterlimit="10" stroke-linecap="round" stroke-dasharray="4.04 4.04"/>
    <path d="M227.576 223.994L350.439 193.034L332.002 119.713L209.139 150.674L227.576 223.994Z" fill="#B6E1E8"/>
    <path opacity="0.4" d="M227.576 223.994L350.439 193.034L332.002 119.713L209.139 150.674L227.576 223.994Z" fill="#B6E1E8"/>
    <path opacity="0.36" d="M276.712 159.558L348.841 192.119L228.535 222.363L276.712 159.558Z" fill="#B6E1E8"/>
    <path d="M277.393 162.147L350.475 193.073L227.719 223.998L277.393 162.147Z" fill="#B6E1E8"/>
    <path opacity="0.18" d="M277.393 162.147L350.475 193.073L227.719 223.998L277.393 162.147Z" fill="#B6E1E8"/>
    <path opacity="0.75" d="M287.192 179.04L330.606 121.957L212.205 151.793L276.713 181.629C280.388 183.4 284.743 182.31 287.192 179.04Z" fill="#B6E1E8"/>
    <path d="M286.376 176.316L332.104 119.641L209.348 150.567L276.442 178.904C279.844 180.403 283.927 179.313 286.376 176.316Z" fill="#B6E1E8"/>
    <path d="M399.878 399.744L401.375 405.602L398.926 426.038L467.517 383.668L426.008 392.523L399.878 399.744Z" fill="#B6E1E8"/>
    <path opacity="0.4" d="M399.878 399.744L401.375 405.602L398.926 426.038L467.517 383.668L426.008 392.523L399.878 399.744Z" fill="#B6E1E8"/>
    <path d="M388.039 395.249L467.517 383.668L401.376 405.603L388.039 395.249Z" fill="#B6E1E8"/>
    <path d="M403.416 409.417L467.516 383.668L416.345 421.133L403.416 409.417Z" fill="#B6E1E8"/>
    <path d="M509.025 89.2602L510.658 95.1184L509.434 115.69L575.575 69.5059L534.611 80.6773L509.025 89.2602Z" fill="url(#paint25_linear)"/>
    <path opacity="0.4" d="M509.025 89.2602L510.658 95.1184L509.434 115.69L575.575 69.5059L534.611 80.6773L509.025 89.2602Z" fill="url(#paint26_linear)"/>
    <path d="M496.912 85.5818L575.574 69.5059L510.657 95.1184L496.912 85.5818Z" fill="url(#paint27_linear)"/>
    <path d="M512.973 98.7968L575.575 69.5059L526.582 109.696L512.973 98.7968Z" fill="url(#paint28_linear)"/>
    <path d="M65.6348 140.349L67.6762 146.071L67.5401 166.643L131.095 117.053L90.812 130.404L65.6348 140.349Z" fill="url(#paint29_linear)"/>
    <path opacity="0.4" d="M65.6348 140.349L67.6762 146.071L67.5401 166.643L131.095 117.053L90.812 130.404L65.6348 140.349Z" fill="url(#paint30_linear)"/>
    <path d="M53.3867 137.216L131.096 117.053L67.6765 146.072L53.3867 137.216Z" fill="url(#paint31_linear)"/>
    <path d="M70.127 149.613L131.097 117.053L84.2806 159.831L70.127 149.613Z" fill="url(#paint32_linear)"/>
    <path d="M163.211 229.04C144.294 222.228 146.744 196.888 175.323 195.253" stroke="white" stroke-width="1.0093" stroke-miterlimit="10" stroke-linecap="round" stroke-dasharray="4.04 4.04"/>
    <defs>
    <linearGradient id="paint0_linear" x1="200.094" y1="472.903" x2="226.236" y2="351.438" gradientUnits="userSpaceOnUse">
    <stop stop-color="#483156"/>
    <stop offset="1" stop-color="#39516E"/>
    </linearGradient>
    <linearGradient id="paint1_linear" x1="207.305" y1="443.748" x2="228.716" y2="347.063" gradientUnits="userSpaceOnUse">
    <stop stop-color="#483156"/>
    <stop offset="1" stop-color="#39516E"/>
    </linearGradient>
    <linearGradient id="paint2_linear" x1="184.035" y1="398.382" x2="200.023" y2="341.529" gradientUnits="userSpaceOnUse">
    <stop stop-color="#483156"/>
    <stop offset="1" stop-color="#39516E"/>
    </linearGradient>
    <linearGradient id="paint3_linear" x1="184.035" y1="398.382" x2="200.023" y2="341.529" gradientUnits="userSpaceOnUse">
    <stop stop-color="#483156"/>
    <stop offset="1" stop-color="#39516E"/>
    </linearGradient>
    <linearGradient id="paint4_linear" x1="502.676" y1="158.284" x2="422.384" y2="379.653" gradientUnits="userSpaceOnUse">
    <stop stop-color="#483156"/>
    <stop offset="1" stop-color="#39516E"/>
    </linearGradient>
    <linearGradient id="paint5_linear" x1="502.676" y1="158.284" x2="422.384" y2="379.653" gradientUnits="userSpaceOnUse">
    <stop stop-color="#483156"/>
    <stop offset="1" stop-color="#39516E"/>
    </linearGradient>
    <linearGradient id="paint6_linear" x1="181.176" y1="349.2" x2="218.201" y2="195.334" gradientUnits="userSpaceOnUse">
    <stop stop-color="#483156"/>
    <stop offset="1" stop-color="#39516E"/>
    </linearGradient>
    <linearGradient id="paint7_linear" x1="177.773" y1="352.47" x2="212.135" y2="202.303" gradientUnits="userSpaceOnUse">
    <stop stop-color="#483156"/>
    <stop offset="1" stop-color="#39516E"/>
    </linearGradient>
    <linearGradient id="paint8_linear" x1="177.773" y1="352.47" x2="212.135" y2="202.303" gradientUnits="userSpaceOnUse">
    <stop stop-color="#483156"/>
    <stop offset="1" stop-color="#39516E"/>
    </linearGradient>
    <linearGradient id="paint9_linear" x1="184.443" y1="282.989" x2="218.398" y2="136.523" gradientUnits="userSpaceOnUse">
    <stop stop-color="#483156"/>
    <stop offset="1" stop-color="#39516E"/>
    </linearGradient>
    <linearGradient id="paint10_linear" x1="177.773" y1="260.215" x2="206.89" y2="113.846" gradientUnits="userSpaceOnUse">
    <stop stop-color="#473A60"/>
    <stop offset="1" stop-color="#305E76"/>
    </linearGradient>
    <linearGradient id="paint11_linear" x1="334.694" y1="79.5619" x2="397.388" y2="24.6937" gradientUnits="userSpaceOnUse">
    <stop stop-color="#1E7A89"/>
    <stop offset="1" stop-color="#3F486A"/>
    </linearGradient>
    <linearGradient id="paint12_linear" x1="334.694" y1="79.5619" x2="397.388" y2="24.6937" gradientUnits="userSpaceOnUse">
    <stop stop-color="#1E7A89"/>
    <stop offset="1" stop-color="#3F486A"/>
    </linearGradient>
    <linearGradient id="paint13_linear" x1="419.067" y1="81.9776" x2="393.742" y2="159.608" gradientUnits="userSpaceOnUse">
    <stop stop-color="#1E7A89"/>
    <stop offset="1" stop-color="#3F486A"/>
    </linearGradient>
    <linearGradient id="paint14_linear" x1="419.338" y1="83.8572" x2="394.727" y2="161.372" gradientUnits="userSpaceOnUse">
    <stop stop-color="#1E7A89"/>
    <stop offset="1" stop-color="#3F486A"/>
    </linearGradient>
    <linearGradient id="paint15_linear" x1="419.338" y1="83.8572" x2="394.727" y2="161.372" gradientUnits="userSpaceOnUse">
    <stop stop-color="#1E7A89"/>
    <stop offset="1" stop-color="#3F486A"/>
    </linearGradient>
    <linearGradient id="paint16_linear" x1="452.001" y1="37.8998" x2="427.163" y2="114.244" gradientUnits="userSpaceOnUse">
    <stop stop-color="#1E7A89"/>
    <stop offset="1" stop-color="#3F486A"/>
    </linearGradient>
    <linearGradient id="paint17_linear" x1="454.178" y1="35.4746" x2="429.759" y2="112.718" gradientUnits="userSpaceOnUse">
    <stop stop-color="#1E7A89"/>
    <stop offset="1" stop-color="#3F486A"/>
    </linearGradient>
    <linearGradient id="paint18_linear" x1="268.335" y1="0.0392466" x2="300.858" y2="65.4433" gradientUnits="userSpaceOnUse">
    <stop stop-color="#483156"/>
    <stop offset="1" stop-color="#39516E"/>
    </linearGradient>
    <linearGradient id="paint19_linear" x1="268.335" y1="0.0392466" x2="300.858" y2="65.4433" gradientUnits="userSpaceOnUse">
    <stop stop-color="#483156"/>
    <stop offset="1" stop-color="#39516E"/>
    </linearGradient>
    <linearGradient id="paint20_linear" x1="242.146" y1="113.238" x2="283.955" y2="47.5697" gradientUnits="userSpaceOnUse">
    <stop stop-color="#483156"/>
    <stop offset="1" stop-color="#39516E"/>
    </linearGradient>
    <linearGradient id="paint21_linear" x1="242.146" y1="114.6" x2="284.813" y2="47.5177" gradientUnits="userSpaceOnUse">
    <stop stop-color="#483156"/>
    <stop offset="1" stop-color="#39516E"/>
    </linearGradient>
    <linearGradient id="paint22_linear" x1="242.146" y1="114.6" x2="284.813" y2="47.5177" gradientUnits="userSpaceOnUse">
    <stop stop-color="#483156"/>
    <stop offset="1" stop-color="#39516E"/>
    </linearGradient>
    <linearGradient id="paint23_linear" x1="201.184" y1="72.6395" x2="242.368" y2="7.99939" gradientUnits="userSpaceOnUse">
    <stop stop-color="#483156"/>
    <stop offset="1" stop-color="#39516E"/>
    </linearGradient>
    <linearGradient id="paint24_linear" x1="198.598" y1="73.0482" x2="241.265" y2="5.966" gradientUnits="userSpaceOnUse">
    <stop stop-color="#483156"/>
    <stop offset="1" stop-color="#39516E"/>
    </linearGradient>
    <linearGradient id="paint25_linear" x1="511.244" y1="116.888" x2="527.621" y2="56.5008" gradientUnits="userSpaceOnUse">
    <stop stop-color="#257289"/>
    <stop offset="1" stop-color="#188191"/>
    </linearGradient>
    <linearGradient id="paint26_linear" x1="511.244" y1="116.888" x2="527.621" y2="56.5008" gradientUnits="userSpaceOnUse">
    <stop stop-color="#257289"/>
    <stop offset="1" stop-color="#188191"/>
    </linearGradient>
    <linearGradient id="paint27_linear" x1="499.534" y1="95.7827" x2="504.036" y2="60.4033" gradientUnits="userSpaceOnUse">
    <stop stop-color="#257289"/>
    <stop offset="1" stop-color="#188191"/>
    </linearGradient>
    <linearGradient id="paint28_linear" x1="515.059" y1="110.738" x2="528.374" y2="57.6642" gradientUnits="userSpaceOnUse">
    <stop stop-color="#257289"/>
    <stop offset="1" stop-color="#188191"/>
    </linearGradient>
    <linearGradient id="paint29_linear" x1="67.8168" y1="167.929" x2="86.7636" y2="103.929" gradientUnits="userSpaceOnUse">
    <stop stop-color="#257289"/>
    <stop offset="1" stop-color="#188191"/>
    </linearGradient>
    <linearGradient id="paint30_linear" x1="67.8168" y1="167.929" x2="86.7636" y2="103.929" gradientUnits="userSpaceOnUse">
    <stop stop-color="#257289"/>
    <stop offset="1" stop-color="#188191"/>
    </linearGradient>
    <linearGradient id="paint31_linear" x1="55.977" y1="146.824" x2="61.7972" y2="106.941" gradientUnits="userSpaceOnUse">
    <stop stop-color="#257289"/>
    <stop offset="1" stop-color="#188191"/>
    </linearGradient>
    <linearGradient id="paint32_linear" x1="72.1593" y1="160.941" x2="87.4724" y2="105.092" gradientUnits="userSpaceOnUse">
    <stop stop-color="#257289"/>
    <stop offset="1" stop-color="#188191"/>
    </linearGradient>
    </defs>
    </svg>