<svg width="190" height="70" viewBox="0 0 190 70" fill="none" xmlns="http://www.w3.org/2000/svg">
<path d="M189.035 41.847C188.83 40.6023 187.833 39.8555 186.391 39.8389C185.946 39.8323 185.505 39.8788 185.073 39.829C184.221 39.736 183.997 40.0348 184.003 40.745C184.044 44.23 184.032 47.7117 184.019 51.1868C184.01 53.0089 182.319 54.8809 180.287 55.3555C173.978 56.8126 167.676 58.2929 161.36 59.7366C160.651 59.8993 159.903 59.9823 159.181 59.9756C158.865 59.9756 158.43 59.7234 158.294 59.4778C158.206 59.3151 158.484 58.9202 158.701 58.7177C158.988 58.4721 159.354 58.2763 159.73 58.1402C160.887 57.7054 162.064 57.3104 163.234 56.9022C167.919 55.2626 172.612 53.6429 177.29 51.9933C179.401 51.2432 180.54 49.7629 180.574 47.8943C180.682 41.8403 180.628 35.7864 180.603 29.7258C180.603 28.7666 180.13 27.9667 179.044 27.5518C177.795 27.0805 176.697 27.4555 175.612 27.9999C168.982 31.3289 162.354 34.6513 155.717 37.9736C153.764 38.9527 152.676 40.37 152.686 42.388C152.708 48.1133 152.692 53.8287 152.698 59.5475C152.698 59.8329 152.727 60.125 152.812 60.3971C153.465 62.3421 155.159 63.4573 157.499 63.4573C162.165 63.4706 166.846 63.4639 171.515 63.4639C176.167 63.4639 180.805 63.4706 185.457 63.4573C186.467 63.4573 187.397 63.2382 188.154 62.5811C189.136 61.7513 189.085 60.6958 189.085 59.6437C189.095 54.0677 189.095 48.4983 189.088 42.9124C189.098 42.5639 189.091 42.1988 189.035 41.847ZM169.635 40.058C170.105 38.7735 171.13 37.9703 172.694 37.7645C173.729 37.6251 174.631 38.2989 174.78 39.2813C175.003 40.7948 173.205 42.5539 171.429 42.5473C169.947 42.5473 169.12 41.4553 169.635 40.058Z" fill="url(#paint0_linear)"/>
<path d="M29.5808 8.61517C29.5808 10.7904 29.5808 12.9206 29.5808 15.0713C28.0147 15.0713 26.5574 15.0713 24.9875 15.0713C24.9875 12.8757 24.9875 10.7454 24.9875 8.59473C24.1365 8.59473 23.3981 8.59473 22.5859 8.59473C22.5859 13.9796 22.5859 19.2705 22.5859 24.5736C23.4253 24.5736 24.1831 24.5736 25.0613 24.5736C25.0613 22.1531 25.0613 19.7979 25.0613 17.4183C26.6157 17.4183 28.0536 17.4183 29.5963 17.4183C29.5963 19.8307 29.5963 22.1899 29.5963 24.5818C30.4707 24.5818 31.2284 24.5818 32.0406 24.5818C32.0406 19.2337 32.0406 13.9347 32.0406 8.61517C31.209 8.61517 30.4512 8.61517 29.5808 8.61517Z" fill="url(#paint1_linear)"/>
<path d="M90.6726 52.5979C89.9498 48.7994 87.2062 46.4934 82.8267 46.1131C81.1013 45.9741 79.3448 46.0886 77.4834 46.0886C77.4834 42.7399 77.4834 39.3544 77.4834 35.9771C76.1622 35.9771 74.9653 35.9771 73.7373 35.9771C73.7373 45.2831 73.7373 54.5237 73.7373 64.0914C76.508 64.0914 79.1855 64.259 81.828 64.0464C85.7878 63.7357 88.8073 62.0797 90.2218 58.682C91.0456 56.7112 91.0612 54.6586 90.6726 52.5979ZM84.8785 56.8584C84.1829 59.9658 81.1596 61.4296 77.5145 60.5219C77.5145 57.071 77.499 53.6773 77.5456 50.2755C77.5456 50.0506 77.9187 49.6826 78.1868 49.6294C81.8319 48.8158 84.2684 50.0915 84.9018 53.293C85.1272 54.4419 85.135 55.7053 84.8785 56.8584Z" fill="url(#paint2_linear)"/>
<path d="M16.7296 8.07143e-05C15.4045 8.07143e-05 14.0871 0.00416948 12.7659 8.07143e-05C10.9006 -0.00809682 9.35395 0.605219 8.08322 1.78687C3.71923 5.8511 4.8656 13.5707 10.6713 15.2185C8.72053 18.3014 6.78141 21.3761 4.74902 24.5981C5.57674 24.5981 6.21405 24.5531 6.83581 24.6104C7.65965 24.688 8.08322 24.4059 8.46405 23.764C9.91742 21.2821 11.4602 18.837 12.9679 16.3756C13.6635 15.2471 13.749 15.2144 15.3889 15.5456C15.3889 18.5222 15.3889 21.5233 15.3889 24.5204C16.3799 24.5204 17.2387 24.5204 18.1713 24.5204C18.1713 24.0052 18.1713 23.5718 18.1713 23.1302C18.1713 15.8277 18.1713 8.52107 18.1713 1.21445C18.1713 8.43234e-05 18.1674 0.00416948 16.7296 8.07143e-05ZM15.3112 12.9696C13.4187 12.9492 11.4446 13.4439 10.0029 11.9515C8.35136 10.2465 7.88115 8.27574 8.49126 6.11279C8.54177 5.94106 8.62338 5.77751 8.68944 5.61396C9.91742 2.64143 11.5379 1.81549 15.3112 2.31023C15.3112 5.86337 15.3112 9.36744 15.3112 12.9696Z" fill="url(#paint3_linear)"/>
<path d="M85.5027 22.2797C81.3796 23.7271 78.535 22.4187 77.7889 18.6407C77.3964 16.6822 77.5363 14.7114 78.2164 12.8019C79.1335 10.1933 80.956 9.41642 83.9871 10.2792C84.0454 10.2955 84.1154 10.2669 84.2203 10.2505C84.5234 9.85392 84.8343 9.43687 85.1723 8.9912C82.6698 7.26165 79.2384 7.67462 77.3731 9.85802C75.9314 11.5426 75.3679 13.4929 75.1853 15.5414C74.9793 17.8924 75.2552 20.174 76.7319 22.2388C78.2786 24.3976 80.9599 25.4117 83.719 24.7329C85.6659 24.2504 85.8835 24.0378 85.5027 22.2797Z" fill="url(#paint4_linear)"/>
<path d="M20.2267 60.7717C20.2267 52.4715 20.2267 44.2653 20.2267 35.9856C15.3964 35.9856 10.7176 35.9856 6.15545 35.9856C5.96115 40.1929 5.86788 44.3308 5.54923 48.4604C5.26555 52.124 4.49612 55.718 2.95726 59.1771C2.44819 60.3178 1.83809 61.0702 0.283679 60.7962C0.202073 60.784 0.101036 60.8494 0 60.8903C0 63.9323 0 66.958 0 69.9837C1.4184 69.9837 2.75519 69.9837 4.20078 69.9837C4.20078 67.927 4.20078 65.9522 4.20078 63.9814C9.30312 63.9814 14.3044 63.9814 19.4145 63.9814C19.4145 66.0176 19.4145 67.9883 19.4145 70C20.8368 70 22.1425 70 23.4949 70C23.4949 66.9253 23.4949 63.8914 23.4949 60.7717C22.3718 60.7717 21.3342 60.7717 20.2267 60.7717ZM15.6684 60.739C12.513 60.739 9.3925 60.739 6.45856 60.739C7.24353 58.6701 8.20338 56.6339 8.78628 54.52C9.95597 50.2717 9.9482 45.9131 9.97929 41.5668C9.98706 40.8962 9.97929 40.2175 9.97929 39.4815C11.8873 39.4815 13.7371 39.4815 15.6723 39.4815C15.6684 46.5142 15.6684 53.5673 15.6684 60.739Z" fill="url(#paint5_linear)"/>
<path d="M59.7711 22.4962C59.06 22.7129 58.376 22.9746 57.661 23.1259C55.6675 23.5511 54.2452 23.085 53.4874 21.7643C52.5975 20.2188 52.6403 18.5587 52.6947 16.821C55.2517 16.821 57.7076 16.821 60.2141 16.821C60.3773 14.2205 60.0742 11.7836 58.5081 9.56753C57.1325 7.62128 54.7504 7.31053 52.8579 8.90924C52.1467 9.5062 51.5483 10.2708 51.1286 11.0477C49.955 13.2106 49.5081 15.5412 49.784 17.9045C49.9589 19.3724 50.3436 20.8648 50.9382 22.2468C51.8009 24.2789 53.7944 25.3174 56.0988 25.0598C57.2141 24.9372 58.3294 24.606 59.3786 24.2217C60.5483 23.7964 60.5794 23.4039 59.7711 22.4962ZM53.9421 10.7778C54.7892 9.66974 56.1882 9.70245 56.9382 10.8637C57.7776 12.1516 57.8786 13.5745 57.8436 15.0669C56.0211 15.0669 54.354 15.0669 52.6053 15.0669C52.6869 13.505 52.9706 12.0576 53.9421 10.7778Z" fill="url(#paint6_linear)"/>
<path d="M66.6832 36.5085C66.52 36.3 66.314 35.9852 66.1081 35.977C64.8684 35.9238 63.6249 35.9443 62.2532 35.9443C62.2532 39.8245 62.2532 43.6516 62.2532 47.4991C59.5563 47.4991 56.9915 47.4991 54.2091 47.4991C54.2091 43.6189 54.2091 39.8164 54.2091 35.9647C52.7052 35.9647 51.3335 35.9647 49.9189 35.9647C49.9189 45.3893 49.9189 54.7649 49.9189 64.1854C51.3762 64.1854 52.7713 64.1854 54.2635 64.1854C54.2635 63.7765 54.2635 63.4249 54.2635 63.0814C54.2635 59.7859 54.2596 56.5108 54.2635 53.2193C54.2635 51.408 54.2635 51.408 56.3231 51.408C58.2739 51.408 60.2247 51.408 62.2843 51.408C62.2843 55.7462 62.2843 59.9535 62.2843 64.1936C63.7959 64.1936 65.1949 64.1936 66.6444 64.1936C66.6638 63.8828 66.6949 63.6171 66.6949 63.3636C66.6949 54.5236 66.6949 45.6837 66.6949 36.852C66.6949 36.7334 66.7493 36.5862 66.6832 36.5085Z" fill="url(#paint7_linear)"/>
<path d="M69.0818 14.8625C70.5818 13.0471 72.0157 11.1949 73.473 9.35901C73.6517 9.13413 73.8072 8.89699 74.0559 8.55353C73.5857 8.55353 73.3098 8.58624 73.0494 8.54944C71.9846 8.39815 71.3357 8.76206 70.7566 9.56345C69.4781 11.3298 68.0598 13.0144 66.6919 14.7276C66.5364 14.9197 66.3421 15.0874 65.9691 15.4676C65.9691 13.0103 65.9691 10.8269 65.9691 8.59851C65.1297 8.59851 64.3952 8.59851 63.5947 8.59851C63.5947 13.8567 63.5947 19.0289 63.5947 24.1971C64.4108 24.1971 65.1452 24.1971 66.0041 24.1971C66.0041 22.3449 65.9652 20.5295 66.0274 18.7223C66.0507 18.1008 66.3227 17.4793 66.4781 16.8578C66.9406 17.1563 67.1388 17.4221 67.3136 17.7001C68.5533 19.6586 69.7774 21.6171 71.0287 23.5634C71.1919 23.821 71.4717 24.1685 71.7359 24.2053C72.4432 24.2993 73.1699 24.238 74.0442 24.238C72.3033 21.4495 70.6789 18.8163 69.0157 16.1954C68.7009 15.7048 68.6776 15.3491 69.0818 14.8625Z" fill="url(#paint8_linear)"/>
<path d="M126.165 35.8874C125.465 35.8629 125.15 36.0714 124.902 36.6316C123.219 40.5323 121.494 44.4125 119.78 48.3009C119.03 50.0018 118.253 51.7028 117.495 53.4037C117.421 53.3955 117.363 53.3792 117.289 53.371C117.289 47.5813 117.289 41.7916 117.289 35.9569C115.781 35.9569 114.382 35.9569 112.948 35.9569C112.948 45.3979 112.948 54.8062 112.948 64.2185C114.382 64.2185 115.735 64.2185 117.211 64.2185C119.92 58.0608 122.628 51.8786 125.36 45.6432C125.36 51.85 125.36 58.0281 125.36 64.2021C127.062 64.2021 128.64 64.2021 130.264 64.2021C130.264 54.7612 130.264 45.3856 130.264 35.9079C128.854 35.9079 127.509 35.9487 126.165 35.8874Z" fill="url(#paint9_linear)"/>
<path d="M43.9699 60.1581C42.637 60.5915 41.4362 61.0863 40.1694 61.3602C36.0541 62.2475 33.365 61.0495 32.1914 57.9093C31.286 55.4969 31.3209 53.0069 31.2821 50.3778C35.7899 50.3778 40.1616 50.3778 44.7121 50.3778C44.5256 48.1903 44.5062 46.056 44.1292 43.9911C43.6513 41.4029 42.7031 38.9211 40.7406 36.8358C39.0036 34.9918 36.9129 34.4561 34.3054 35.2003C31.5968 35.9731 29.9453 37.7639 28.8339 39.886C25.5774 46.1132 25.2976 52.5285 27.7924 58.9969C28.5424 60.9513 29.8132 62.6523 31.9272 63.7399C35.4712 65.5757 41.2031 64.9379 44.7976 62.2925C44.514 61.5565 44.2264 60.8123 43.9699 60.1581ZM33.3106 40.1436C33.944 39.2073 34.7873 38.4427 36.2018 38.5122C37.5852 38.5899 38.4051 39.3504 38.9608 40.3399C40.1888 42.5601 40.3948 44.9397 40.3831 47.4093C37.2899 47.4093 34.3015 47.4093 31.1538 47.4093C31.387 44.7966 31.8222 42.3475 33.3106 40.1436Z" fill="url(#paint10_linear)"/>
<path d="M45.9863 22.4515C45.9863 17.8067 45.9863 13.2191 45.9863 8.59473C43.3166 8.59473 40.7557 8.59473 38.0471 8.59473C38.0471 9.63327 38.0821 10.5655 38.0432 11.5018C37.9111 14.7565 37.7984 18.0152 36.5083 21.1309C36.1896 21.8996 35.9526 22.7214 34.7207 22.5497C34.7207 24.2833 34.7207 25.9352 34.7207 27.5789C35.4979 27.5789 36.1935 27.5789 37.0096 27.5789C37.0096 26.4544 37.0096 25.3832 37.0096 24.3119C39.9163 24.3119 42.6987 24.3119 45.6093 24.3119C45.6093 25.4445 45.6093 26.5158 45.6093 27.5625C46.4254 27.5625 47.1132 27.5625 47.7738 27.5625C47.7738 25.8289 47.7738 24.177 47.7738 22.5251C47.1521 22.5006 46.6236 22.4761 45.9863 22.4515ZM43.4798 22.4515C41.6689 22.4515 39.9668 22.4515 38.1326 22.4515C40.4526 18.6735 40.1378 14.6134 40.3049 10.5614C41.3658 10.5614 42.3917 10.5614 43.4798 10.5614C43.4798 14.5193 43.4798 18.4405 43.4798 22.4515Z" fill="url(#paint11_linear)"/>
<path d="M94.6914 35.9487C94.6914 45.4101 94.6914 54.802 94.7031 64.198C96.0399 64.198 97.3106 64.198 98.6707 64.198C98.6707 55.7261 98.6707 47.3155 98.6707 38.7904C102.759 38.7904 106.769 38.7904 110.768 38.7904C110.768 37.7805 110.768 36.8851 110.768 35.9487C105.397 35.9487 100.097 35.9487 94.6914 35.9487Z" fill="url(#paint12_linear)"/>
<defs>
<linearGradient id="paint0_linear" x1="152.686" y1="63.4656" x2="173.288" y2="29.258" gradientUnits="userSpaceOnUse">
<stop stop-color="#483156"/>
<stop offset="1" stop-color="#39516E"/>
</linearGradient>
<linearGradient id="paint1_linear" x1="22.5859" y1="24.5818" x2="32.8964" y2="14.5351" gradientUnits="userSpaceOnUse">
<stop stop-color="#483156"/>
<stop offset="1" stop-color="#39516E"/>
</linearGradient>
<linearGradient id="paint2_linear" x1="73.7373" y1="64.1542" x2="91.9153" y2="45.8906" gradientUnits="userSpaceOnUse">
<stop stop-color="#483156"/>
<stop offset="1" stop-color="#39516E"/>
</linearGradient>
<linearGradient id="paint3_linear" x1="4.74902" y1="24.6229" x2="20.5431" y2="10.4372" gradientUnits="userSpaceOnUse">
<stop stop-color="#483156"/>
<stop offset="1" stop-color="#39516E"/>
</linearGradient>
<linearGradient id="paint4_linear" x1="75.125" y1="24.9417" x2="86.1055" y2="13.7469" gradientUnits="userSpaceOnUse">
<stop stop-color="#483156"/>
<stop offset="1" stop-color="#39516E"/>
</linearGradient>
<linearGradient id="paint5_linear" x1="0" y1="70" x2="21.7618" y2="45.233" gradientUnits="userSpaceOnUse">
<stop stop-color="#483156"/>
<stop offset="1" stop-color="#39516E"/>
</linearGradient>
<linearGradient id="paint6_linear" x1="49.7051" y1="25.0985" x2="60.8092" y2="13.8112" gradientUnits="userSpaceOnUse">
<stop stop-color="#483156"/>
<stop offset="1" stop-color="#39516E"/>
</linearGradient>
<linearGradient id="paint7_linear" x1="49.9189" y1="64.1936" x2="68.1423" y2="46.3425" gradientUnits="userSpaceOnUse">
<stop stop-color="#483156"/>
<stop offset="1" stop-color="#39516E"/>
</linearGradient>
<linearGradient id="paint8_linear" x1="63.5947" y1="24.2577" x2="73.7088" y2="13.1833" gradientUnits="userSpaceOnUse">
<stop stop-color="#483156"/>
<stop offset="1" stop-color="#39516E"/>
</linearGradient>
<linearGradient id="paint9_linear" x1="112.948" y1="64.2185" x2="131.227" y2="45.8123" gradientUnits="userSpaceOnUse">
<stop stop-color="#483156"/>
<stop offset="1" stop-color="#39516E"/>
</linearGradient>
<linearGradient id="paint10_linear" x1="26.1279" y1="64.7869" x2="45.4168" y2="44.9492" gradientUnits="userSpaceOnUse">
<stop stop-color="#483156"/>
<stop offset="1" stop-color="#39516E"/>
</linearGradient>
<linearGradient id="paint11_linear" x1="34.7207" y1="27.5789" x2="46.8734" y2="13.811" gradientUnits="userSpaceOnUse">
<stop stop-color="#483156"/>
<stop offset="1" stop-color="#39516E"/>
</linearGradient>
<linearGradient id="paint12_linear" x1="94.6914" y1="64.198" x2="112.878" y2="47.1444" gradientUnits="userSpaceOnUse">
<stop stop-color="#483156"/>
<stop offset="1" stop-color="#39516E"/>
</linearGradient>
</defs>
</svg>
