<svg width="96" height="120" viewBox="0 0 96 120"
fill="none" xmlns="http://www.w3.org/2000/svg">
<path
  d="M82.1279 48.9026H26.3133C25.3421 48.9026 24.5551 49.6899 24.5551 50.6609C24.5551 51.6319 25.3423 52.4191 26.3133 52.4191H82.1279C83.0991 52.4191 83.8862 51.6319 83.8862 50.6609C83.8862 49.6899 83.0991 48.9026 82.1279 48.9026Z"
  fill="url(#paiintt0_linear)" />
<path
  d="M82.1279 60.5491H26.3133C25.3421 60.5491 24.5551 61.3363 24.5551 62.3074C24.5551 63.2784 25.3423 64.0656 26.3133 64.0656H82.1279C83.0991 64.0656 83.8862 63.2784 83.8862 62.3074C83.8862 61.3363 83.0991 60.5491 82.1279 60.5491Z"
  fill="url(#paiintt1_linear)" />
<path
  d="M82.1279 72.1957H26.3133C25.3421 72.1957 24.5551 72.9829 24.5551 73.954C24.5551 74.925 25.3423 75.7122 26.3133 75.7122H82.1279C83.0991 75.7122 83.8862 74.925 83.8862 73.954C83.8862 72.9829 83.0991 72.1957 82.1279 72.1957Z"
  fill="url(#paiintt2_linear)" />
<path
  d="M82.128 83.8423H54.2207C53.2494 83.8423 52.4624 84.6296 52.4624 85.6006C52.4624 86.5716 53.2497 87.3588 54.2207 87.3588H82.128C83.0992 87.3588 83.8862 86.5716 83.8862 85.6006C83.8862 84.6296 83.0992 83.8423 82.128 83.8423Z"
  fill="url(#paiintt3_linear)" />
<path
  d="M82.128 95.4888H54.2207C53.2494 95.4888 52.4624 96.276 52.4624 97.247C52.4624 98.2181 53.2497 99.0053 54.2207 99.0053H82.128C83.0992 99.0053 83.8862 98.2181 83.8862 97.247C83.8862 96.276 83.0992 95.4888 82.128 95.4888Z"
  fill="url(#paiintt4_linear)" />
<path
  d="M94.1166 83.2106C95.0879 83.2106 95.8749 82.4234 95.8749 81.4523V10.6155C95.8749 7.42312 93.2776 4.82578 90.0854 4.82578H16.3163C14.9387 1.97273 12.0162 0 8.64172 0C3.94555 0 0.125 3.82055 0.125 8.51649L0.125234 111.423C0.125 111.443 0.125 111.463 0.125 111.483H0.125234C0.125234 116.179 3.94555 120 8.64172 120H77.2761C80.4685 120 83.0656 117.402 83.0656 114.21V111.288H90.0854C93.2778 111.288 95.8749 108.69 95.8749 105.498V89.775C95.8749 88.804 95.0879 88.0167 94.1166 88.0167C93.1454 88.0167 92.3584 88.804 92.3584 89.775V105.498C92.3584 106.751 91.3388 107.771 90.0856 107.771H17.1584V8.51649C17.1584 8.45813 17.1552 8.40047 17.154 8.34234H90.0854C91.3386 8.34234 92.3581 9.36211 92.3581 10.6153V81.4523C92.3584 82.4234 93.1456 83.2106 94.1166 83.2106ZM3.6418 8.51649C3.6418 5.75953 5.88476 3.51656 8.64172 3.51656C11.3987 3.51656 13.6416 5.75953 13.6416 8.51649V104.605C10.6149 102.405 6.59891 102.441 3.6418 104.593V8.51649ZM79.5491 114.21C79.5491 115.463 78.5295 116.483 77.2763 116.483H8.64172C5.88476 116.483 3.64203 114.24 3.64203 111.483C3.64203 105.754 11.7779 104.564 13.4286 110.037C13.6524 110.78 14.3363 111.288 15.1121 111.288H79.5491V114.21Z"
  fill="url(#paiintt5_linear)" />
<path
  d="M83.8864 18.84C83.8864 17.0593 82.4377 15.6106 80.6572 15.6106H42.5058C41.5346 15.6106 40.7476 16.3979 40.7476 17.3689C40.7476 18.3399 41.5348 19.1272 42.5058 19.1272H80.3696V38.821H28.0719V19.1274H34.2856C35.2569 19.1274 36.0439 18.3401 36.0439 17.3691C36.0439 16.3981 35.2566 15.6108 34.2856 15.6108H27.7845C26.0037 15.6108 24.5551 17.0595 24.5551 18.8403V39.109C24.5551 40.8898 26.0037 42.3383 27.7845 42.3383H80.6572C82.4377 42.3383 83.8864 40.8896 83.8864 39.109V18.84Z"
  fill="url(#paiintt6_linear)" />
<path
  d="M27.7845 83.8423C26.0037 83.8423 24.5551 85.291 24.5551 87.0715V95.7762C24.5551 97.557 26.0037 99.0054 27.7845 99.0054H44.8376C46.6184 99.0054 48.0671 97.5567 48.0671 95.7762V87.0715C48.0671 85.2907 46.6184 83.8423 44.8376 83.8423H27.7845ZM44.5503 95.4889H28.0719V87.3591H44.5503V95.4889Z"
  fill="url(#paiintt7_linear)" />
<defs>
  <linearGradient id="paiintt0_linear" x1="54.2206" y1="48.9026" x2="54.2206" y2="52.4191"
    gradientUnits="userSpaceOnUse">
    <stop stop-color="#41AFC1" />
    <stop offset="1" stop-color="#D0E6EB" />
  </linearGradient>
  <linearGradient id="paiintt1_linear" x1="54.2206" y1="60.5491" x2="54.2206" y2="64.0656"
    gradientUnits="userSpaceOnUse">
    <stop stop-color="#41AFC1" />
    <stop offset="1" stop-color="#D0E6EB" />
  </linearGradient>
  <linearGradient id="paiintt2_linear" x1="54.2206" y1="72.1957" x2="54.2206" y2="75.7122"
    gradientUnits="userSpaceOnUse">
    <stop stop-color="#41AFC1" />
    <stop offset="1" stop-color="#D0E6EB" />
  </linearGradient>
  <linearGradient id="paiintt3_linear" x1="68.1743" y1="83.8423" x2="68.1743" y2="87.3588"
    gradientUnits="userSpaceOnUse">
    <stop stop-color="#41AFC1" />
    <stop offset="1" stop-color="#D0E6EB" />
  </linearGradient>
  <linearGradient id="paiintt4_linear" x1="68.1743" y1="95.4888" x2="68.1743" y2="99.0053"
    gradientUnits="userSpaceOnUse">
    <stop stop-color="#41AFC1" />
    <stop offset="1" stop-color="#D0E6EB" />
  </linearGradient>
  <linearGradient id="paiintt5_linear" x1="48" y1="0" x2="48" y2="120" gradientUnits="userSpaceOnUse">
    <stop stop-color="#41AFC1" />
    <stop offset="1" stop-color="#D0E6EB" />
  </linearGradient>
  <linearGradient id="paiintt6_linear" x1="54.2207" y1="15.6106" x2="54.2207" y2="42.3383"
    gradientUnits="userSpaceOnUse">
    <stop stop-color="#41AFC1" />
    <stop offset="1" stop-color="#D0E6EB" />
  </linearGradient>
  <linearGradient id="paiintt7_linear" x1="36.3111" y1="83.8423" x2="36.3111" y2="99.0054"
    gradientUnits="userSpaceOnUse">
    <stop stop-color="#41AFC1" />
    <stop offset="1" stop-color="#D0E6EB" />
  </linearGradient>
</defs>
</svg>