<svg width="120" height="120" viewBox="0 0 120 120" fill="none" xmlns="http://www.w3.org/2000/svg">
    <g clip-path="#39516e">
      <path
        d="M94.1278 48.9026H38.3132C37.342 48.9026 36.5549 49.6899 36.5549 50.6609C36.5549 51.6319 37.3422 52.4191 38.3132 52.4191H94.1278C95.099 52.4191 95.886 51.6319 95.886 50.6609C95.886 49.6899 95.099 48.9026 94.1278 48.9026Z"
        fill="#39516e" />
      <path
        d="M94.1278 60.5491H38.3132C37.342 60.5491 36.5549 61.3364 36.5549 62.3074C36.5549 63.2784 37.3422 64.0657 38.3132 64.0657H94.1278C95.099 64.0657 95.886 63.2784 95.886 62.3074C95.886 61.3364 95.099 60.5491 94.1278 60.5491Z"
        fill="#39516e" />
      <path
        d="M94.1278 72.1957H38.3132C37.342 72.1957 36.5549 72.983 36.5549 73.954C36.5549 74.925 37.3422 75.7123 38.3132 75.7123H94.1278C95.099 75.7123 95.886 74.925 95.886 73.954C95.886 72.983 95.099 72.1957 94.1278 72.1957Z"
        fill="#39516e" />
      <path
        d="M94.128 83.8423H66.2207C65.2494 83.8423 64.4624 84.6295 64.4624 85.6005C64.4624 86.5716 65.2497 87.3588 66.2207 87.3588H94.128C95.0992 87.3588 95.8862 86.5716 95.8862 85.6005C95.8862 84.6295 95.0992 83.8423 94.128 83.8423Z"
        fill="#39516e" />
      <path
        d="M94.128 95.4888H66.2207C65.2494 95.4888 64.4624 96.2761 64.4624 97.2471C64.4624 98.2181 65.2497 99.0054 66.2207 99.0054H94.128C95.0992 99.0054 95.8862 98.2181 95.8862 97.2471C95.8862 96.2761 95.0992 95.4888 94.128 95.4888Z"
        fill="#39516e" />
      <path
        d="M106.117 83.2106C107.088 83.2106 107.875 82.4234 107.875 81.4523V10.6155C107.875 7.42312 105.278 4.82578 102.085 4.82578H28.3163C26.9387 1.97273 24.0162 0 20.6417 0C15.9455 0 12.125 3.82055 12.125 8.51649L12.1252 111.423C12.125 111.443 12.125 111.463 12.125 111.483H12.1252C12.1252 116.179 15.9455 120 20.6417 120H89.2761C92.4685 120 95.0656 117.402 95.0656 114.21V111.288H102.085C105.278 111.288 107.875 108.69 107.875 105.498V89.775C107.875 88.804 107.088 88.0167 106.117 88.0167C105.145 88.0167 104.358 88.804 104.358 89.775V105.498C104.358 106.751 103.339 107.771 102.086 107.771H29.1584V8.51649C29.1584 8.45813 29.1552 8.40047 29.154 8.34234H102.085C103.339 8.34234 104.358 9.36211 104.358 10.6153V81.4523C104.358 82.4234 105.146 83.2106 106.117 83.2106ZM15.6418 8.51649C15.6418 5.75953 17.8848 3.51656 20.6417 3.51656C23.3987 3.51656 25.6416 5.75953 25.6416 8.51649V104.605C22.6149 102.405 18.5989 102.441 15.6418 104.593V8.51649ZM91.5491 114.21C91.5491 115.463 90.5295 116.483 89.2763 116.483H20.6417C17.8848 116.483 15.642 114.24 15.642 111.483C15.642 105.754 23.7779 104.564 25.4286 110.037C25.6524 110.78 26.3363 111.288 27.1121 111.288H91.5491V114.21Z"
        fill="#39516e" />
      <path
        d="M95.8863 18.84C95.8863 17.0592 94.4376 15.6106 92.657 15.6106H54.5057C53.5345 15.6106 52.7474 16.3978 52.7474 17.3688C52.7474 18.3399 53.5347 19.1271 54.5057 19.1271H92.3695V38.821H40.0717V19.1274H46.2855C47.2567 19.1274 48.0438 18.3401 48.0438 17.3691C48.0438 16.3981 47.2565 15.6108 46.2855 15.6108H39.7844C38.0036 15.6108 36.5549 17.0595 36.5549 18.8403V39.109C36.5549 40.8898 38.0036 42.3382 39.7844 42.3382H92.657C94.4376 42.3382 95.8863 40.8896 95.8863 39.109V18.84Z"
        fill="#39516e" />
      <path
        d="M39.7844 83.8423C38.0036 83.8423 36.5549 85.2909 36.5549 87.0715V95.7762C36.5549 97.5569 38.0036 99.0054 39.7844 99.0054H56.8375C58.6183 99.0054 60.067 97.5567 60.067 95.7762V87.0715C60.067 85.2907 58.6183 83.8423 56.8375 83.8423H39.7844ZM56.5502 95.4888H40.0717V87.3591H56.5502V95.4888Z"
        fill="#39516e" />
    </g>
    <defs>
      <clipPath id="clip0">
        <rect width="120" height="120" fill="white" />
      </clipPath>
    </defs>
  </svg>
