<svg width="90" height="90" viewBox="0 0 90 90" fill="none" xmlns="http://www.w3.org/2000/svg">
    <path
      d="M75.8085 60.383C75.7904 60.4011 75.772 60.4183 75.7539 60.4364L72.6406 57.3231C78.7416 51.2427 82.5228 42.836 82.5228 33.5623C82.5228 15.0558 67.467 0 48.9606 0C39.7166 0 31.3338 3.75662 25.2581 9.82336L22.117 6.68232C22.7989 5.99555 22.7976 4.88602 22.1126 4.20117C21.4262 3.51475 20.313 3.51475 19.6267 4.20117C12.6997 11.1282 8.43596 20.3113 7.62121 30.0593C6.81596 39.6921 9.40029 49.34 14.8982 57.2261C15.2399 57.7162 15.7863 57.9788 16.3417 57.9788C16.6887 57.9788 17.0392 57.8763 17.3454 57.6628C18.1417 57.1075 18.3374 56.0118 17.7821 55.2155C7.93657 41.0936 8.90108 22.3131 19.745 9.2823L22.9008 12.4381C18.2126 18.2106 15.3983 25.5633 15.3983 33.5621C15.3983 52.0683 30.4541 67.1244 48.9606 67.1244C56.9294 67.1244 64.2571 64.3308 70.0197 59.6742L73.1475 62.8021C60.2775 73.4467 41.707 74.5029 27.6793 64.9881C26.8758 64.4428 25.7828 64.6527 25.2378 65.4562C24.6929 66.2595 24.9024 67.3527 25.7059 67.8976C32.2566 72.3408 39.7129 74.6735 47.2028 74.9821V79.4531H40.8746C36.0283 79.4531 32.0856 83.3959 32.0856 88.2422C32.0856 89.213 32.8725 90 33.8434 90H64.0778C65.0486 90 65.8356 89.213 65.8356 88.2422C65.8356 83.3959 61.8928 79.4531 57.0465 79.4531H50.7184V74.9779C60.8163 74.5414 70.7258 70.4377 78.2944 62.869C78.9808 62.1826 78.9808 61.0696 78.2944 60.383C77.608 59.6967 76.4949 59.6967 75.8085 60.383ZM48.4587 8.13428L52.0174 3.67031C64.3924 4.92609 74.5715 13.7232 77.8747 25.3804L77.4554 25.7542C77.0615 26.1056 76.7468 26.5312 76.5252 27.0005L76.1727 26.0313C76.0209 25.6136 75.7973 25.2304 75.5085 24.8922L73.9219 23.0347C73.2173 22.21 72.1913 21.7369 71.1067 21.7369H69.1645C68.3016 21.7369 67.5125 22.2096 67.1054 22.9706C66.709 23.7115 66.7407 24.602 67.1847 25.3111C66.1544 26.1443 65.0001 26.8309 63.7775 27.3354L61.3642 22.7127V21.6904C61.3642 21.2101 61.1677 20.7506 60.8202 20.4189L58.4227 18.1301C58.2422 17.9578 58.0272 17.826 57.7916 17.7432L50.8311 15.2972C50.6439 15.2314 50.4466 15.1979 50.2483 15.1979H44.193C42.2136 15.1979 40.383 16.1278 39.2035 17.6344L37.8197 15.696L39.5303 11.5495L47.6658 8.6973C47.9778 8.58779 48.2525 8.39268 48.4587 8.13428ZM57.223 45.2044C57.6143 46.4672 57.6143 46.4672 57.0838 47.0445C56.9904 47.1459 56.9036 47.2386 56.8222 47.3251C56.2124 47.9742 55.6858 48.5348 55.265 49.8604C55.1824 50.1205 55.0885 50.2265 54.8371 50.5093C54.6109 50.764 54.3295 51.081 54.0623 51.5385C53.7306 52.1063 53.6209 52.6526 53.5409 53.0517C53.4688 53.4106 53.4411 53.5131 53.3683 53.6024C52.7465 54.366 51.7464 55.0935 51.2336 55.2607C51.0325 54.9543 50.633 54.2174 50.0852 52.5913C49.892 52.0181 49.6299 51.4404 49.3763 50.8818C48.8885 49.8074 48.3357 48.5896 48.5556 47.9088L48.6514 47.6153C49.0994 46.2495 49.5628 44.8372 48.7247 42.8291C48.4587 42.1915 48.0384 41.7292 47.7007 41.3576C47.5661 41.2095 47.3652 40.9885 47.3132 40.889C47.2863 40.7605 47.2873 40.5875 47.2887 40.3717C47.2933 39.6628 47.3012 38.4762 46.14 37.3892C44.5284 35.8803 42.6441 36.3465 41.5183 36.6249C41.1954 36.7049 40.8903 36.7803 40.6366 36.8102C39.0033 37.002 37.5457 36.3892 36.6397 35.1285C35.6842 33.799 35.5478 32.0055 36.2834 30.4481C36.6459 29.681 37.2163 29.0392 37.8767 28.296C38.0277 28.1262 38.1801 27.9547 38.3321 27.7794C38.5991 27.4718 38.882 27.0701 39.1817 26.6447C39.493 26.2027 40.0681 25.3865 40.3327 25.1779C40.8282 24.9217 42.17 24.8743 42.9768 24.8456C43.354 24.8323 43.7114 24.8196 44.0389 24.7938C44.0391 24.8825 44.0459 24.9718 44.0598 25.061C44.1445 25.6064 44.4808 26.0803 44.9675 26.3408C45.189 26.4593 45.5163 26.6774 45.8626 26.9084C46.9183 27.6121 48.1151 28.4099 49.3123 28.4862C50.5011 28.5618 51.1738 27.8761 51.4273 27.6177C51.4386 27.6061 51.4496 27.5947 51.4609 27.5834C51.5405 27.5168 51.6179 27.4403 51.6896 27.3549C51.7957 27.3841 51.9039 27.4133 52.013 27.4428C52.6504 27.6154 53.9724 27.9733 54.2994 28.2456C54.7888 28.7728 55.2022 29.8429 55.5673 30.7879C55.7552 31.2745 55.9496 31.7774 56.1616 32.2305C56.2486 32.4163 56.3342 32.6078 56.4213 32.8017C57.0112 34.1179 57.7456 35.756 59.29 36.7655C59.8478 37.1301 60.4932 37.296 61.0833 37.4024C60.7657 37.7425 60.3974 38.0855 60.0163 38.4404C58.4151 39.9317 56.2219 41.9743 57.223 45.2044ZM29.0787 50.4884L28.1697 55.2329C23.5437 50.793 20.3323 44.8915 19.2854 38.2788L21.9824 37.4027L27.0978 41.2921C27.3119 41.4548 27.5606 41.5665 27.8246 41.618L31.0258 42.2436C31.396 42.316 31.5886 42.561 31.6706 42.7006C31.7525 42.8402 31.8722 43.1279 31.7547 43.4865C31.4568 44.395 31.4554 45.3556 31.7509 46.2649L32.1589 47.5205C32.3227 48.0247 32.0458 48.5678 31.5417 48.7317L30.2618 49.1474C29.6526 49.3453 29.1991 49.8591 29.0787 50.4884ZM48.9604 63.6087C42.3445 63.6087 36.2224 61.4577 31.2531 57.8204L32.3355 52.1699L32.6275 52.075C34.9752 51.3125 36.2648 48.7819 35.5021 46.4342L35.0941 45.1786C35.0306 44.9833 35.031 44.7769 35.0949 44.582C35.4948 43.3628 35.3519 42.0288 34.703 40.9221C34.054 39.8152 32.9594 39.0393 31.6999 38.793L28.8999 38.246L23.3779 34.0472C22.9193 33.6988 22.3192 33.5969 21.7707 33.7748L18.9375 34.6952C18.9234 34.319 18.9139 33.9416 18.9139 33.5621C18.9139 17.444 31.6716 4.25109 47.6194 3.54691L46.025 5.54678L37.6241 8.49217C37.1514 8.65793 36.7717 9.01758 36.5807 9.48076L34.1988 15.2548C33.968 15.8145 34.0413 16.4537 34.3931 16.9465L38.0672 22.0936C38.1289 22.1799 38.1998 22.2569 38.2741 22.3295C37.6095 22.8145 37.0264 23.6007 36.3078 24.6206C36.0718 24.9557 35.8276 25.3021 35.6771 25.4754C35.534 25.6403 35.3908 25.8015 35.2488 25.9613C34.4788 26.8276 33.6825 27.7235 33.1044 28.9471C31.823 31.6594 32.0836 34.8144 33.7847 37.1811C35.434 39.4761 38.1483 40.6424 41.0467 40.3024C41.5198 40.2469 41.9675 40.1361 42.3624 40.0384C43.3751 39.7879 43.5655 39.7958 43.7371 39.9565C43.7494 39.9679 43.7587 39.9776 43.7657 39.985C43.7747 40.0644 43.7736 40.2267 43.7729 40.3494C43.7705 40.7037 43.7673 41.1889 43.9011 41.7396C44.1215 42.6477 44.6863 43.2691 45.0987 43.7228C45.2338 43.8715 45.4381 44.0963 45.4798 44.1837C45.7999 44.9506 45.7014 45.3284 45.3105 46.52L45.2096 46.8288C44.5715 48.8046 45.4604 50.7625 46.1748 52.3359C46.4023 52.8369 46.6171 53.3101 46.7533 53.7144C47.9685 57.3212 48.9384 58.1739 49.727 58.5323C50.1721 58.7347 50.6219 58.8213 51.0661 58.8212C53.6183 58.821 55.9783 55.9651 56.0941 55.8229C56.7264 55.0464 56.8836 54.2623 56.9876 53.7434C57.0224 53.57 57.0618 53.3735 57.0977 53.3122C57.1892 53.1552 57.3053 53.0248 57.4657 52.8439C57.8208 52.4442 58.307 51.8964 58.6157 50.9244C58.7948 50.3601 58.8848 50.2643 59.3846 49.7324C59.474 49.6371 59.5697 49.5353 59.6723 49.4237C61.5709 47.3579 61.0677 45.7342 60.5811 44.164C60.2791 43.1898 60.7244 42.5856 62.4126 41.0135C63.1528 40.3242 63.9182 39.6114 64.5241 38.7343C64.8131 38.3159 65.6925 37.0426 65.1142 35.7013C64.5452 34.3818 63.1623 34.1698 62.1524 34.0149C61.8557 33.9694 61.3614 33.8936 61.2032 33.8161C60.5273 33.3668 60.071 32.3487 59.6296 31.3639C59.5347 31.1523 59.441 30.9435 59.3461 30.7408C59.1856 30.3977 59.0211 29.9719 58.847 29.5214C58.3629 28.2683 57.8143 26.8479 56.847 25.8228C55.9435 24.8651 54.3437 24.432 52.9322 24.0499C52.488 23.9296 52.0686 23.8159 51.8052 23.7189C51.4818 23.5995 51.1306 23.5779 50.7949 23.6565C50.0645 23.8279 49.5981 24.0247 49.2358 24.3153C49.1139 24.4132 48.9963 24.5326 48.8922 24.6709C48.6113 24.5079 48.3026 24.3083 48.0467 24.1392C48.101 23.6225 47.9704 23.1993 47.8372 22.9175C46.9851 21.1152 44.3203 21.2433 43.7942 21.2873C43.5379 21.3087 43.205 21.3205 42.8527 21.333C42.3473 21.3509 41.7957 21.3706 41.2397 21.4235L41.5431 20.5782C41.9434 19.463 43.0084 18.7137 44.1932 18.7137H49.9488L56.2694 20.9347L57.8489 22.4427V23.1442C57.8489 23.4276 57.9175 23.7066 58.0485 23.9578L61.3815 30.3421C61.7907 31.1259 62.7181 31.4838 63.548 31.1778L64.5184 30.8199C66.8363 29.9653 68.9849 28.5899 70.732 26.843C71.1489 26.4259 71.318 25.8427 71.2194 25.2903C71.2301 25.2984 71.24 25.3078 71.2488 25.3181L72.8354 27.1756C72.8499 27.1928 72.8614 27.2122 72.8689 27.2331L74.6199 32.0481C74.8252 32.6127 75.3047 33.0333 75.8911 33.1634C76.0177 33.1915 76.1451 33.2051 76.2719 33.2051C76.733 33.2051 77.1815 33.0235 77.5148 32.6902L78.3484 31.8565C78.5602 31.6447 78.7479 31.4128 78.9112 31.1646C78.974 31.9558 79.007 32.7551 79.007 33.5621C79.007 50.1298 65.5281 63.6087 48.9604 63.6087ZM57.0467 82.9688C59.3383 82.9688 61.2932 84.4381 62.0188 86.4844H35.9025C36.6279 84.4381 38.583 82.9688 40.8748 82.9688H57.0467Z"
      fill="url(#paintt0_linear)" />
    <path
      d="M20.8696 59.588C19.8988 59.588 19.1118 60.375 19.1118 61.3458V61.626C19.1118 62.5969 19.8988 63.3838 20.8696 63.3838C21.8405 63.3838 22.6274 62.5969 22.6274 61.626V61.3458C22.6274 60.375 21.8405 59.588 20.8696 59.588Z"
      fill="url(#paintt1_linear)" />
    <defs>
      <linearGradient id="paintt0_linear" x1="44.9999" y1="0" x2="44.9999" y2="90"
        gradientUnits="userSpaceOnUse">
        <stop stop-color="#41AFC1" />
        <stop offset="1" stop-color="#D0E6EB" />
      </linearGradient>
      <linearGradient id="paintt1_linear" x1="20.8696" y1="59.588" x2="20.8696" y2="63.3838"
        gradientUnits="userSpaceOnUse">
        <stop stop-color="#41AFC1" />
        <stop offset="1" stop-color="#D0E6EB" />
      </linearGradient>
    </defs>
  </svg>