<svg class="about-svg-slider" width="120" height="120"
viewBox="0 0 120 120" fill="none" xmlns="http://www.w3.org/2000/svg">
<g clip-path="#41AFC1">
  <path
    d="M109.109 110.297H106.609V88.7691C106.609 85.7805 104.178 83.3491 101.189 83.3491H97.3493C97.255 79.6301 94.2025 76.6331 90.4612 76.6331H66.0873V73.8091C66.0873 72.843 65.3043 72.0602 64.3384 72.0602C63.3725 72.0602 62.5895 72.843 62.5895 73.8091V76.6331H52.4204C51.4546 76.6331 50.6715 77.4159 50.6715 78.382C50.6715 79.3481 51.4546 80.1309 52.4204 80.1309H90.4612C92.2739 80.1309 93.7591 81.559 93.8514 83.3491H35.8798C35.9719 81.559 37.4572 80.1309 39.2698 80.1309H44.4348C45.4006 80.1309 46.1837 79.3481 46.1837 78.382C46.1837 77.4159 45.4006 76.6331 44.4348 76.6331H39.2698C35.5285 76.6331 32.476 79.6301 32.3818 83.3491H28.5422C25.5537 83.3491 23.1223 85.7805 23.1223 88.7691V96.735C21.4662 96.4296 20.4828 95.8116 19.9015 94.3371C19.2727 92.742 17.3684 79.7407 18.2267 75.589C19.1429 71.156 22.7091 67.0096 28.0112 64.2133C33.6352 61.2468 40.4968 58.9602 45.9186 58.2463C63.164 55.9774 80.6561 61.0553 94.008 72.1835L94.3556 73.5839C95.0228 76.2722 97.4681 78.0933 100.132 78.093C100.569 78.093 101.013 78.0438 101.454 77.9416L101.546 77.9205C103.11 77.5586 104.433 76.6057 105.273 75.2369C106.111 73.8691 106.361 72.2585 105.974 70.7015L89.5457 4.50921C88.769 1.38029 85.5813 -0.573694 82.4479 0.150995L82.353 0.172792C80.7899 0.534198 79.4676 1.48623 78.629 2.85358C77.7902 4.22163 77.541 5.83319 77.9275 7.39109L78.3421 9.06195C75.348 16.3627 71.0587 22.9494 65.5806 28.6424C60.0039 34.4382 53.4582 39.0419 46.1258 42.3262C43.9876 43.2838 41.7228 44.0144 39.3252 44.7873C37.3702 45.4178 35.3487 46.0698 33.4142 46.8543C29.5995 48.4014 24.6509 50.5729 20.2055 53.658C13.59 58.2492 9.09846 64.2993 7.55861 70.6936C6.59791 74.6829 6.6483 79.2534 7.71236 84.6661C7.7358 84.7854 10.2256 96.8503 11.929 99.4744C13.6001 102.067 16.2448 104.033 19.1799 104.866C19.9095 105.076 20.6621 105.22 21.4095 105.295C21.7904 105.335 22.1757 105.356 22.5547 105.358L22.7979 105.359C22.801 105.359 22.8043 105.359 22.8073 105.359C22.8204 105.359 22.8336 105.359 22.8467 105.359L23.1232 105.351V110.297H20.6218C18.4071 110.297 16.6053 112.099 16.6053 114.314V115.984C16.6053 118.198 18.4069 120 20.6218 120H109.109C111.324 120 113.126 118.198 113.126 115.984V114.314C113.126 112.099 111.324 110.297 109.109 110.297ZM81.6102 4.68241C81.9548 4.12061 82.4983 3.72944 83.1456 3.57944L83.2281 3.56022C83.4105 3.51803 83.5933 3.49788 83.7738 3.49788C84.8709 3.49788 85.8766 4.24671 86.1508 5.35155L102.579 71.5439C102.738 72.1837 102.636 72.8461 102.291 73.4083C101.946 73.9715 101.401 74.3636 100.751 74.5139L100.671 74.5326C99.3801 74.8312 98.0702 74.0278 97.7507 72.7411L97.2644 70.7817C97.2644 70.7814 97.2644 70.7812 97.2644 70.7812L81.8753 8.77765C81.8753 8.77742 81.8753 8.77742 81.8751 8.77718L81.322 6.54874C81.1628 5.90772 81.2652 5.24491 81.6102 4.68241ZM23.1223 101.854L22.7928 101.862L22.5734 101.86C22.3081 101.859 22.0379 101.844 21.7632 101.815C21.2175 101.761 20.6731 101.656 20.1397 101.503C18.0061 100.897 16.0847 99.4669 14.8648 97.5748C13.9442 96.1566 11.9035 87.858 11.1434 83.9915C10.1785 79.0837 10.1178 75.0018 10.958 71.5127C12.297 65.9538 16.2889 60.6332 22.1989 56.5317C26.3609 53.6432 31.0808 51.5751 34.7276 50.0959C36.5431 49.3595 38.5027 48.7276 40.3977 48.1166C42.7791 47.3486 45.2417 46.5543 47.5545 45.5186C55.2983 42.0503 62.211 37.1884 68.1004 31.0682C72.8249 26.158 76.7148 20.6199 79.7045 14.555L92.6456 66.6953C79.0797 56.9038 62.1597 52.5806 45.4618 54.779C39.5689 55.5548 32.4355 57.9255 26.3792 61.12C20.1497 64.406 15.9298 69.4216 14.8013 74.8816C13.7857 79.7958 15.8419 93.5768 16.6475 95.6203C18.0021 99.0579 20.8758 99.9717 23.1223 100.285V101.854ZM109.109 116.502H20.6218C20.3358 116.502 20.1031 116.27 20.1031 115.984V114.314C20.1031 114.028 20.3358 113.795 20.6218 113.795H81.0219C81.9878 113.795 82.7709 113.013 82.7709 112.047C82.7709 111.08 81.9878 110.298 81.0219 110.298H26.6204V89.4459V88.7693C26.6204 87.7094 27.4826 86.8474 28.5422 86.8474H101.189C102.249 86.8474 103.111 87.7097 103.111 88.7693V110.298H89.1695C88.2037 110.298 87.4206 111.08 87.4206 112.047C87.4206 113.013 88.2037 113.795 89.1695 113.795H109.109C109.395 113.795 109.628 114.028 109.628 114.314V115.984H109.628C109.628 116.27 109.395 116.502 109.109 116.502Z"
    fill="url(#paintt0_linear)" />
  <path
    d="M68.1994 90.2346C66.7901 90.2346 65.4509 90.671 64.3385 91.4665C63.2264 90.6708 61.8869 90.2346 60.4776 90.2346C56.8115 90.2346 53.8291 93.217 53.8291 96.8832C53.8291 104.149 63.2981 107.938 63.7012 108.096C63.9061 108.176 64.1224 108.216 64.3385 108.216C64.5546 108.216 64.7709 108.176 64.9758 108.096C65.3789 107.938 74.8479 104.149 74.8479 96.8832C74.8479 93.217 71.8655 90.2346 68.1994 90.2346ZM64.3507 104.559C62.524 103.695 57.3269 100.882 57.3269 96.8832C57.3269 95.146 58.7404 93.7324 60.4776 93.7324C61.4533 93.7324 62.3585 94.174 62.9611 94.9442C63.2927 95.3674 63.8006 95.6149 64.3383 95.6149C64.8759 95.6149 65.3841 95.3674 65.7155 94.9442C66.318 94.174 67.2234 93.7324 68.1989 93.7324C69.9361 93.7324 71.3496 95.146 71.3496 96.8832C71.3501 100.568 66.7758 103.44 64.3507 104.559Z"
    fill="url(#paintt1_linear)" />
</g>
<defs>
  <linearGradient id="paintt0_linear" x1="60" y1="0" x2="60" y2="120" gradientUnits="userSpaceOnUse">
    <stop stop-color="#41AFC1" />
    <stop offset="1" stop-color="#D0E6EB" />
  </linearGradient>
  <linearGradient id="paintt1_linear" x1="64.3385" y1="90.2346" x2="64.3385" y2="108.216"
    gradientUnits="userSpaceOnUse">
    <stop stop-color="#41AFC1" />
    <stop offset="1" stop-color="#41AFC1" />
  </linearGradient>
</defs>
</svg>