<svg class="left-menu-items" width="44" height="42" viewBox="0 0 44 42" fill="none"
                xmlns="http://www.w3.org/2000/svg">
                <path
                  d="M21.8917 0.202393C12.6304 0.202393 2.66406 4.74814 2.66406 14.727V25.1481L3.26786 24.9533C3.71705 23.9786 4.39467 23.1358 5.24219 22.4943V18.3725C5.64566 18.5156 6.0793 18.5942 6.53125 18.5942C8.6637 18.5942 10.3984 16.8595 10.3984 14.727C10.3984 9.81081 17.0591 7.92422 21.9887 7.92422C27.7592 7.92422 33.6016 10.2607 33.6016 14.727C33.6016 16.8595 35.3363 18.5942 37.4688 18.5942C37.9207 18.5942 38.3543 18.5156 38.7578 18.3725V22.4943C39.6214 23.1481 40.315 24.0067 40.7632 25.0052L41.3316 25.1696C41.333 25.1699 41.3346 25.1697 41.3359 25.17V14.727C41.3359 5.0882 31.5825 0.202393 21.8917 0.202393Z"
                  fill="url(#ppaint0_linear)" />
                <path
                  d="M9.10938 23.7505C6.97692 23.7505 5.24219 25.4852 5.24219 27.6177V37.9302C5.24219 40.0626 6.97692 41.7974 9.10938 41.7974C11.2418 41.7974 12.9766 40.0626 12.9766 37.9302V27.6177C12.9766 25.4851 11.2418 23.7505 9.10938 23.7505Z"
                  fill="url(#ppaint1_linear)" />
                <path
                  d="M34.8906 23.7505C32.7582 23.7505 31.0234 25.4852 31.0234 27.6177V37.9302C31.0234 40.0626 32.7582 41.7974 34.8906 41.7974C37.0231 41.7974 38.7578 40.0626 38.7578 37.9302V27.6177C38.7578 25.4851 37.0231 23.7505 34.8906 23.7505Z"
                  fill="url(#ppaint2_linear)" />
                <path
                  d="M41.4219 27.8762V37.6713C42.9145 37.1355 44 35.7377 44 34.0628V31.4847C44 29.8098 42.9145 28.412 41.4219 27.8762Z"
                  fill="url(#ppaint3_linear)" />
                <path
                  d="M0 31.4849V34.063C0 35.7379 1.08548 37.1357 2.57812 37.6715C2.57812 34.4042 2.57812 31.1437 2.57812 27.8765C1.08548 28.4122 0 29.81 0 31.4849Z"
                  fill="url(#ppaint4_linear)" />
                <defs>
                  <linearGradient id="ppaint0_linear" x1="22" y1="0.202393" x2="22" y2="25.17"
                    gradientUnits="userSpaceOnUse">
                    <stop stop-color="#41AFC1" />
                    <stop offset="1" stop-color="#D0E6EB" />
                  </linearGradient>
                  <linearGradient id="ppaint1_linear" x1="9.10938" y1="23.7505" x2="9.10938" y2="41.7974"
                    gradientUnits="userSpaceOnUse">
                    <stop stop-color="#41AFC1" />
                    <stop offset="1" stop-color="#D0E6EB" />
                  </linearGradient>
                  <linearGradient id="ppaint2_linear" x1="34.8906" y1="23.7505" x2="34.8906" y2="41.7974"
                    gradientUnits="userSpaceOnUse">
                    <stop stop-color="#41AFC1" />
                    <stop offset="1" stop-color="#D0E6EB" />
                  </linearGradient>
                  <linearGradient id="ppaint3_linear" x1="42.7109" y1="27.8762" x2="42.7109" y2="37.6713"
                    gradientUnits="userSpaceOnUse">
                    <stop stop-color="#41AFC1" />
                    <stop offset="1" stop-color="#D0E6EB" />
                  </linearGradient>
                  <linearGradient id="ppaint4_linear" x1="1.28906" y1="27.8765" x2="1.28906" y2="37.6715"
                    gradientUnits="userSpaceOnUse">
                    <stop stop-color="#41AFC1" />
                    <stop offset="1" stop-color="#D0E6EB" />
                  </linearGradient>
                </defs>
              </svg>