<svg width="129" height="129" viewBox="0 0 129 129" fill="none" xmlns="http://www.w3.org/2000/svg">
    <g filter="url(#filter0_d)">
      <circle cx="80.5" cy="40.5" r="40.5" fill="#FEFEFF" />
      <circle cx="80.5" cy="40.5" r="40" stroke="url(#painnt0_linear)" />
    </g>
    <path
      d="M98.341 33.4595C98.0009 33.0037 97.3774 32.8673 96.8782 33.1394L84.9926 39.619L77.5984 33.2788C77.145 32.8901 76.4687 32.916 76.0465 33.3383L62.3323 47.0516C61.8873 47.4992 61.8895 48.2228 62.3372 48.6677C62.6952 49.0235 63.2441 49.1023 63.6878 48.8617L75.5733 42.3822L82.9744 48.7246C83.4278 49.1133 84.1041 49.0874 84.5263 48.6651L98.2405 34.9518C98.6401 34.5485 98.683 33.9128 98.341 33.4595Z"
      fill="url(#paint1_linear)" />
    <defs>
      <filter id="filter0_d" x="0" y="0" width="129" height="129" filterUnits="userSpaceOnUse"
        color-interpolation-filters="sRGB">
        <feFlood flood-opacity="0" result="BackgroundImageFix" />
        <feColorMatrix in="SourceAlpha" type="matrix" values="0 0 0 0 0 0 0 0 0 0 0 0 0 0 0 0 0 0 127 0" />
        <feOffset dx="-16" dy="24" />
        <feGaussianBlur stdDeviation="12" />
        <feColorMatrix type="matrix" values="0 0 0 0 0 0 0 0 0 0 0 0 0 0 0 0 0 0 0.04 0" />
        <feBlend mode="normal" in2="BackgroundImageFix" result="effect1_dropShadow" />
        <feBlend mode="normal" in="SourceGraphic" in2="effect1_dropShadow" result="shape" />
      </filter>
      <linearGradient id="painnt0_linear" x1="44.2078" y1="81" x2="124.221" y2="13.9764"
        gradientUnits="userSpaceOnUse">
        <stop stop-color="#F7F7F7" />
        <stop offset="1" stop-color="white" />
      </linearGradient>
      <linearGradient id="paint1_linear" x1="62" y1="49" x2="67.1206" y2="29.7152" gradientUnits="userSpaceOnUse">
        <stop stop-color="#483156" />
        <stop offset="1" stop-color="#39516E" />
      </linearGradient>
    </defs>
  </svg>