<svg width="50" height="50" viewBox="0 0 50 50" fill="none"
                xmlns="http://www.w3.org/2000/svg">
                <path
                  d="M40.8833 11.5835C36.988 7.68018 31.9136 5.38857 26.4648 5.03936V2.92969H28.6133C29.4223 2.92969 30.0781 2.27383 30.0781 1.46484C30.0781 0.655859 29.4223 0 28.6133 0H21.3867C20.5777 0 19.9219 0.655859 19.9219 1.46484C19.9219 2.27383 20.5777 2.92969 21.3867 2.92969H23.5351V5.03936C19.7991 5.27881 16.2394 6.43164 13.1149 8.39131L11.7234 6.99697C11.0462 6.31836 10.1453 5.94473 9.18661 5.94473C8.22792 5.94473 7.32704 6.31846 6.6499 6.99697L4.53359 9.11787C3.14052 10.5137 3.14052 12.785 4.53359 14.1809L5.93456 15.5848C3.72333 19.1229 2.53915 23.2179 2.53915 27.4955C2.53915 33.5061 4.87509 39.1571 9.11669 43.4075C13.3591 47.6587 18.9999 50 25 50C31.0001 50 36.6409 47.6587 40.8833 43.4075C45.1249 39.1571 47.4608 33.5061 47.4608 27.4955C47.4608 21.485 45.1249 15.8339 40.8833 11.5835ZM6.60732 11.1874L8.72372 9.0666C8.89052 8.89951 9.08535 8.87451 9.18671 8.87451C9.28808 8.87451 9.483 8.89941 9.6498 9.0666L10.7113 10.1303C10.1608 10.5866 9.62841 11.0709 9.11679 11.5836C8.60663 12.0948 8.1247 12.6268 7.6705 13.1768L6.60732 12.1114C6.35302 11.8566 6.35302 11.4421 6.60732 11.1874ZM25 47.0703C14.2305 47.0703 5.46884 38.2891 5.46884 27.4955C5.46884 16.702 14.2305 7.9207 25 7.9207C35.7695 7.9207 44.5311 16.7019 44.5311 27.4955C44.5311 38.2892 35.7695 47.0703 25 47.0703Z"
                  fill="url(#paint0_linear)" />
                <path
                  d="M25 10.6666C15.7381 10.6666 8.20303 18.216 8.20303 27.4955C8.20303 36.775 15.7381 44.3244 25 44.3244C34.2619 44.3244 41.797 36.775 41.797 27.4955C41.797 18.216 34.2619 10.6666 25 10.6666ZM26.4649 41.3172V39.605C26.4649 38.796 25.809 38.1402 25 38.1402C24.191 38.1402 23.5352 38.796 23.5352 39.605V41.3172C17.0551 40.6322 11.8916 35.4558 11.2097 28.9604H12.8906C13.6996 28.9604 14.3555 28.3045 14.3555 27.4955C14.3555 26.6865 13.6996 26.0307 12.8906 26.0307H11.2098C11.8916 19.5353 17.0551 14.3589 23.5352 13.6739V15.3861C23.5352 16.195 24.191 16.8509 25 16.8509C25.809 16.8509 26.4649 16.195 26.4649 15.3861V13.6739C32.9449 14.3589 38.1084 19.5353 38.7903 26.0307H37.1094C36.3004 26.0307 35.6445 26.6865 35.6445 27.4955C35.6445 28.3045 36.3004 28.9604 37.1094 28.9604H38.7902C38.1084 35.4558 32.9449 40.6322 26.4649 41.3172Z"
                  fill="url(#paint1_linear)" />
                <path
                  d="M28.6134 26.6501H26.5468V20.7256C26.5468 19.9166 25.8909 19.2607 25.0819 19.2607C24.2729 19.2607 23.6171 19.9166 23.6171 20.7256V28.115C23.6171 28.9239 24.2729 29.5798 25.0819 29.5798H28.6134C29.4224 29.5798 30.0782 28.9239 30.0782 28.115C30.0782 27.306 29.4224 26.6501 28.6134 26.6501Z"
                  fill="url(#paint2_linear)" />
                <defs>
                  <linearGradient id="paint0_linear" x1="2.53915" y1="50" x2="32.4643" y2="5.70122"
                    gradientUnits="userSpaceOnUse">
                    <stop stop-color="#483156" />
                    <stop offset="1" stop-color="#39516E" />
                  </linearGradient>
                  <linearGradient id="paint1_linear" x1="8.20303" y1="44.3244" x2="27.482" y2="12.6194"
                    gradientUnits="userSpaceOnUse">
                    <stop stop-color="#483156" />
                    <stop offset="1" stop-color="#39516E" />
                  </linearGradient>
                  <linearGradient id="paint2_linear" x1="23.6171" y1="29.5798" x2="30.2711" y2="22.7151"
                    gradientUnits="userSpaceOnUse">
                    <stop stop-color="#483156" />
                    <stop offset="1" stop-color="#39516E" />
                  </linearGradient>
                </defs>
              </svg> 