 <svg class="svg-sula" width="266" height="867" viewBox="0 0 266 867" fill="none"
        xmlns="http://www.w3.org/2000/svg">
        <path
          d="M254.835 164.623L254.783 165.726L255.682 165.768L255.908 164.902L254.835 164.623ZM178.425 2.1837L178.398 3.28706L178.399 3.28708L178.425 2.1837ZM10.9791 166.08L9.90432 166.349L10.1223 167.217L11.0205 167.183L10.9791 166.08ZM50.0985 164.623L50.1399 165.726L51.411 165.679L51.1894 164.431L50.0985 164.623ZM87.0243 45.5252L86.9843 44.4222L86.9724 44.4228L87.0243 45.5252ZM178.425 45.5252L178.385 46.6283L178.39 46.6284L178.425 45.5252ZM215.716 162.802L214.626 162.607L214.401 163.846L215.664 163.905L215.716 162.802ZM254.835 164.623C255.908 164.902 255.908 164.9 255.908 164.9V164.899C255.908 164.899 255.909 164.896 255.91 164.894C255.911 164.889 255.912 164.882 255.914 164.873C255.92 164.855 255.927 164.828 255.936 164.792C255.954 164.721 255.981 164.616 256.016 164.478C256.086 164.201 256.189 163.791 256.32 163.26C256.581 162.198 256.954 160.647 257.401 158.688C258.295 154.771 259.486 149.224 260.678 142.694C263.059 129.647 265.449 112.637 265.449 96.8795H263.233C263.233 112.445 260.87 129.307 258.498 142.3C257.314 148.791 256.128 154.307 255.241 158.199C254.797 160.144 254.427 161.683 254.167 162.735C254.039 163.26 253.937 163.664 253.868 163.936C253.834 164.073 253.807 164.175 253.79 164.244C253.781 164.278 253.774 164.305 253.77 164.321C253.767 164.33 253.766 164.335 253.765 164.34C253.764 164.342 253.763 164.344 253.763 164.344C253.763 164.344 253.763 164.345 254.835 164.623ZM265.449 96.8795C265.449 39.8646 226.252 2.18776 178.45 1.08031L178.399 3.28708C224.923 4.36492 263.233 40.9879 263.233 96.8795H265.449ZM178.451 1.08033C148.089 0.351478 117.36 0.351477 86.9976 1.08033L87.0501 3.28708C117.377 2.55908 148.071 2.55906 178.398 3.28706L178.451 1.08033ZM86.9976 1.08033C39.2016 2.18765 2.21577e-06 39.1303 0 96.8795H2.21577C2.21577 40.2653 40.5207 4.36504 87.0501 3.28708L86.9976 1.08033ZM0 96.8795C-1.10788e-06 111.912 2.48186 129.289 4.95338 142.877C6.19037 149.676 7.4273 155.541 8.35518 159.707C8.81915 161.789 9.20594 163.448 9.47699 164.586C9.6125 165.155 9.71909 165.595 9.79191 165.893C9.82833 166.042 9.8563 166.155 9.87524 166.232C9.88471 166.269 9.89191 166.299 9.89679 166.318C9.89922 166.328 9.90107 166.335 9.90234 166.34C9.90297 166.343 9.90344 166.344 9.90378 166.346L9.90417 166.347C9.90417 166.347 9.90432 166.349 10.9791 166.08C12.0539 165.812 12.0539 165.812 12.0539 165.812L12.0536 165.811C12.0536 165.811 12.0529 165.809 12.0523 165.807C12.0512 165.802 12.0495 165.794 12.0471 165.786C12.0426 165.767 12.0356 165.739 12.0264 165.702C12.0079 165.628 11.9805 165.516 11.9447 165.37C11.8729 165.077 11.7674 164.642 11.633 164.077C11.3641 162.948 10.9798 161.3 10.5184 159.229C9.59532 155.085 8.36445 149.249 7.13364 142.483C4.66951 128.936 2.21576 111.713 2.21577 96.8795H0ZM11.0205 167.183L50.1399 165.726L50.0571 163.521L10.9377 164.978L11.0205 167.183ZM50.0985 164.623C51.1894 164.431 51.1894 164.431 51.1894 164.431L51.1891 164.429C51.1891 164.429 51.1884 164.426 51.188 164.423C51.187 164.417 51.1855 164.408 51.1835 164.397C51.1795 164.375 51.1735 164.341 51.1655 164.296C51.1497 164.206 51.1262 164.073 51.0955 163.897C51.034 163.546 50.9439 163.029 50.829 162.362C50.5995 161.03 50.2714 159.103 49.8777 156.727C49.0902 151.974 48.0403 145.426 46.9905 138.241C44.8867 123.845 42.7976 106.985 42.7976 96.8795H40.5818C40.5818 107.17 42.6971 124.182 44.7977 138.559C45.8501 145.76 46.9024 152.324 47.6915 157.086C48.0861 159.468 48.415 161.4 48.6453 162.736C48.7604 163.404 48.8509 163.924 48.9126 164.277C48.9435 164.452 48.9672 164.587 48.9832 164.678C48.9912 164.723 48.9973 164.758 49.0014 164.78C49.0034 164.792 49.0049 164.801 49.006 164.807C49.0065 164.81 49.0071 164.813 49.0071 164.813L49.0075 164.816C49.0075 164.816 49.0076 164.816 50.0985 164.623ZM42.7976 96.8795C42.7976 80.7476 48.1888 68.4678 56.3763 60.0897C64.5734 51.7019 75.6342 47.162 87.0761 46.6277L86.9724 44.4228C75.0158 44.9811 63.4093 49.7287 54.7887 58.55C46.1585 67.3811 40.5818 80.2321 40.5818 96.8795H42.7976ZM87.0643 46.6283C117.382 45.5365 147.701 45.5365 178.385 46.6283L178.465 44.4222C147.727 43.3287 117.356 43.3286 86.9843 44.4222L87.0643 46.6283ZM178.39 46.6284C201.178 47.3378 222.651 65.4131 222.651 96.8795H224.867C224.867 64.2441 202.468 45.1695 178.459 44.4221L178.39 46.6284ZM222.651 96.8795C222.651 107.534 220.653 123.942 218.641 137.741C217.637 144.628 216.633 150.846 215.88 155.343C215.503 157.59 215.19 159.407 214.97 160.661C214.861 161.289 214.774 161.776 214.716 162.105C214.686 162.27 214.664 162.395 214.648 162.48C214.641 162.522 214.635 162.554 214.631 162.575C214.629 162.586 214.628 162.594 214.627 162.599C214.627 162.602 214.626 162.605 214.626 162.605V162.607C214.626 162.607 214.626 162.607 215.716 162.802C216.806 162.998 216.806 162.998 216.806 162.998V162.996C216.806 162.996 216.807 162.992 216.808 162.99C216.808 162.984 216.811 162.976 216.813 162.966C216.816 162.944 216.822 162.912 216.829 162.869C216.845 162.784 216.867 162.657 216.897 162.491C216.956 162.159 217.043 161.67 217.153 161.041C217.373 159.782 217.688 157.959 218.066 155.706C218.82 151.198 219.827 144.965 220.834 138.058C222.844 124.267 224.867 107.714 224.867 96.8795H222.651ZM215.664 163.905L254.783 165.726L254.887 163.521L215.768 161.7L215.664 163.905ZM4.76388 402.282H3.656V403.386H4.76388V402.282ZM260.685 402.282V403.386H261.793V402.282H260.685ZM260.685 354.57H261.793V353.92L261.222 353.606L260.685 354.57ZM98.7235 264.973L99.2614 264.008L99.2112 263.98L99.1586 263.958L98.7235 264.973ZM66.185 251.133L66.2691 250.033L65.7499 252.148L66.185 251.133ZM99.8203 253.683L99.7362 254.783L99.7782 254.786H99.8203V253.683ZM260.685 253.683V254.786H261.793V253.683H260.685ZM260.685 211.434H261.793V210.33H260.685V211.434ZM4.76389 211.434V210.33H3.65601V211.434H4.76389ZM4.76389 259.146H3.65601V259.795L4.22604 260.111L4.76389 259.146ZM166.725 348.743L166.188 349.707L166.238 349.735L166.29 349.757L166.725 348.743ZM199.264 362.583L199.183 363.683L199.699 361.568L199.264 362.583ZM164.532 360.033L164.613 358.932L164.573 358.93H164.532V360.033ZM4.76388 360.033V358.93H3.656V360.033H4.76388ZM4.76388 403.386H260.685V401.179H4.76388V403.386ZM261.793 402.282V354.57H259.577V402.282H261.793ZM261.222 353.606L99.2614 264.008L98.1856 265.938L260.148 355.535L261.222 353.606ZM99.1586 263.958L66.62 250.118L65.7499 252.148L98.2885 265.988L99.1586 263.958ZM66.1009 252.234L99.7362 254.783L99.9044 252.582L66.2691 250.033L66.1009 252.234ZM99.8203 254.786H260.685V252.579H99.8203V254.786ZM261.793 253.683V211.434H259.577V253.683H261.793ZM260.685 210.33H4.76389V212.538H260.685V210.33ZM3.65601 211.434V259.146H5.87178V211.434H3.65601ZM4.22604 260.111L166.188 349.707L167.263 347.777L5.30174 258.18L4.22604 260.111ZM166.29 349.757L198.829 363.597L199.699 361.568L167.161 347.727L166.29 349.757ZM199.345 361.482L164.613 358.932L164.451 361.134L199.183 363.683L199.345 361.482ZM164.532 358.93H4.76388V361.137H164.532V358.93ZM3.656 360.033V402.282H5.87177V360.033H3.656ZM260.685 482.262H261.793V481.158H260.685V482.262ZM4.76388 436.735L5.37957 435.817L3.656 434.669V436.735H4.76388ZM4.76388 482.626H3.656V483.235L4.17345 483.56L4.76388 482.626ZM220.103 524.146H221.211V523.043H220.103V524.146ZM220.103 598.446V599.55H221.211V598.446H220.103ZM4.76388 598.446V597.343H3.656V598.446H4.76388ZM4.76387 641.059H3.65599V642.163H4.76387V641.059ZM260.685 641.059V642.163H261.793V641.059H260.685ZM260.685 481.158H168.188V483.365H260.685V481.158ZM168.188 481.158C120.835 481.158 80.1187 469.817 51.2361 458.471C36.7967 452.799 25.3211 447.128 17.46 442.878C13.5297 440.753 10.5035 438.984 8.46281 437.748C7.44249 437.13 6.66861 436.644 6.15133 436.316C5.89269 436.151 5.69822 436.025 5.56916 435.941C5.50464 435.899 5.45647 435.867 5.42481 435.846C5.40898 435.837 5.39729 435.829 5.38974 435.823C5.38597 435.821 5.38323 435.82 5.38153 435.818L5.37957 435.817C5.37957 435.817 5.37957 435.817 4.76388 436.735C4.14821 437.652 4.14956 437.653 4.14956 437.653L4.15249 437.655C4.15496 437.656 4.15848 437.659 4.16302 437.662C4.17213 437.668 4.18539 437.676 4.20278 437.689C4.23758 437.712 4.28892 437.745 4.35666 437.789C4.49212 437.877 4.69314 438.007 4.95845 438.176C5.48906 438.514 6.27684 439.007 7.31161 439.634C9.3811 440.887 12.4388 442.675 16.4031 444.818C24.3315 449.105 35.8888 454.815 50.4233 460.525C79.4886 471.942 120.485 483.365 168.188 483.365V481.158ZM3.656 436.735V482.626H5.87177V436.735H3.656ZM4.76388 482.626C4.17345 483.56 4.1748 483.561 4.1748 483.561L4.17767 483.562C4.18008 483.564 4.18351 483.566 4.18793 483.569C4.19679 483.574 4.20968 483.582 4.22656 483.593C4.26034 483.614 4.31015 483.645 4.37585 483.684C4.50723 483.765 4.70217 483.884 4.95951 484.038C5.4742 484.346 6.23854 484.796 7.24344 485.368C9.25318 486.512 12.2253 488.142 16.0869 490.097C23.8098 494.007 35.0924 499.215 49.3516 504.423C77.8673 514.835 118.305 525.25 165.994 525.25V523.043C118.627 523.043 78.4495 512.697 50.1141 502.35C35.9478 497.177 24.7459 492.005 17.0908 488.129C13.2633 486.192 10.3229 484.578 8.34247 483.452C7.35225 482.888 6.60206 482.446 6.10099 482.146C5.85046 481.996 5.66221 481.881 5.53739 481.805C5.47497 481.766 5.42841 481.737 5.39785 481.719C5.38257 481.709 5.37129 481.702 5.36403 481.698C5.3604 481.696 5.35616 481.693 5.35616 481.693L5.35447 481.692C5.35447 481.692 5.35432 481.692 4.76388 482.626ZM165.994 525.25H220.103V523.043H165.994V525.25ZM218.995 524.146V598.446H221.211V524.146H218.995ZM220.103 597.343H4.76388V599.55H220.103V597.343ZM3.656 598.446L3.65599 641.059H5.87176L5.87177 598.446H3.656ZM4.76387 642.163H260.685V639.956H4.76387V642.163ZM261.793 641.059V482.262H259.577V641.059H261.793ZM260.685 757.699H261.793V756.889L261.017 756.646L260.685 757.699ZM4.76387 677.571L5.09605 676.518L3.65599 676.068V677.571H4.76387ZM4.76387 722.37H3.65599V723.185L4.43806 723.425L4.76387 722.37ZM71.3034 742.766H72.4113V741.951L71.6292 741.711L71.3034 742.766ZM71.3034 827.264L71.6292 828.319L72.4113 828.079V827.264H71.3034ZM4.76387 847.66L4.43806 846.605L3.65599 846.845V847.66H4.76387ZM260.685 812.331L261.018 813.384L261.793 813.14V812.331H260.685ZM111.154 815.245H110.046V816.718L111.465 816.304L111.154 815.245ZM111.154 754.785L111.472 753.728L110.046 753.302V754.785H111.154ZM213.522 785.379L213.834 786.438L217.421 785.392L213.84 784.322L213.522 785.379ZM261.017 756.646L5.09605 676.518L4.43171 678.624L260.353 758.752L261.017 756.646ZM3.65599 677.571V722.37H5.87176V677.571H3.65599ZM4.43806 723.425L70.9776 743.821L71.6292 741.711L5.08969 721.315L4.43806 723.425ZM70.1955 742.766V827.264H72.4113V742.766H70.1955ZM70.9776 826.209L4.43806 846.605L5.08968 848.715L5.87176 848.475L71.6292 828.319L70.9776 826.209ZM261.793 812.331V757.699H259.577V811.523V812.331H261.793ZM112.262 815.245V754.785H110.046V815.245H112.262ZM110.836 755.842L213.204 786.436L213.84 784.322L111.472 753.728L110.836 755.842ZM213.211 784.319L110.843 814.185L111.465 816.304L213.834 786.438L213.211 784.319Z"
          fill="url(#paint0_liinear)" />
        <path d="M4.76387 847.66H3.65599L3.65598 866.245H5.87175L5.87176 848.475L5.08968 848.715L4.76387 847.66Z"
          fill="url(#paaint1_liinear)" />
        <path d="M261.018 813.384L260.685 812.331H259.577V811.523L85.4816 866.279H92.8404L261.018 813.384Z"
          fill="url(#paaint2_liinear)" />
        <defs>
          <linearGradient id="paint0_liinear" x1="132.724" y1="0.533691" x2="132.724" y2="866.279"
            gradientUnits="userSpaceOnUse">
            <stop stop-color="#B6E1E8" />
            <stop offset="1" stop-color="#DCDCDC" stop-opacity="0.63" />
          </linearGradient>
          <linearGradient id="paaint1_liinear" x1="132.724" y1="0.533691" x2="132.724" y2="866.279"
            gradientUnits="userSpaceOnUse">
            <stop stop-color="#B6E1E8" />
            <stop offset="1" stop-color="#DCDCDC" stop-opacity="0.63" />
          </linearGradient>
          <linearGradient id="paaint2_liinear" x1="132.724" y1="0.533691" x2="132.724" y2="866.279"
            gradientUnits="userSpaceOnUse">
            <stop stop-color="#B6E1E8" />
            <stop offset="1" stop-color="#DCDCDC" stop-opacity="0.63" />
          </linearGradient>
        </defs>
      </svg>