<svg width="44" height="44" viewBox="0 0 44 44" fill="#969cad" xmlns="http://www.w3.org/2000/svg">
    <g>
        <g>
            <path
                d="M29.5851 32.2707C29.377 32.2707 29.2084 32.4394 29.2084 32.6475V34.0801H26.9653V31.1406C26.9653 30.9326 26.7966 30.7639 26.5885 30.7639C26.3804 30.7639 26.2118 30.9326 26.2118 31.1406V34.0801H17.7881V31.1406C17.7881 30.9326 17.6195 30.7639 17.4114 30.7639C17.2033 30.7639 17.0347 30.9326 17.0347 31.1406V34.0801H14.7915V30.4174C14.7915 29.5879 14.9723 28.7912 15.3288 28.0495C15.4189 27.862 15.34 27.6369 15.1525 27.5468C14.965 27.4567 14.7399 27.5355 14.6498 27.7231C14.2439 28.5675 14.0381 29.474 14.0381 30.4175V34.4569C14.0381 34.6649 14.2067 34.8336 14.4148 34.8336H29.585C29.7931 34.8336 29.9617 34.6649 29.9617 34.4569V32.6475C29.9618 32.4394 29.7932 32.2707 29.5851 32.2707Z" />
            <path
                d="M24.5764 24.248C25.6392 23.6272 26.4597 22.6349 26.8582 21.4504C26.8758 21.4509 26.8935 21.4518 26.9112 21.4518C27.9918 21.4518 28.8709 20.5726 28.8709 19.492C28.8709 19.1683 28.7916 18.863 28.652 18.5937C28.6896 17.8876 28.6923 17.2128 28.6601 16.5805C28.7262 16.5627 28.7869 16.5275 28.8349 16.477C28.9061 16.4022 28.9434 16.3017 28.9383 16.1987C28.8159 13.7232 28.0223 11.8572 26.5795 10.6526C25.4153 9.68053 23.8317 9.16675 21.9997 9.16675C20.3418 9.16675 18.8728 9.5918 17.7513 10.3958C17.5823 10.5171 17.5434 10.7524 17.6647 10.9215C17.786 11.0906 18.0213 11.1293 18.1903 11.0081C19.183 10.2964 20.5002 9.92015 21.9996 9.92015C26.8343 9.92015 27.9534 13.4612 28.1589 15.8405H25.186H24.3952V14.7016C24.3952 13.3807 23.3207 12.3062 21.9998 12.3062C20.6789 12.3062 19.6043 13.3807 19.6043 14.7016V15.8405H18.8135H15.8396C15.9727 14.2414 16.4228 12.9431 17.1801 11.977C17.3085 11.8133 17.2798 11.5765 17.116 11.4482C16.9523 11.3198 16.7156 11.3484 16.5872 11.5122C15.6704 12.6817 15.157 14.2584 15.061 16.1986C15.0559 16.3016 15.0933 16.4022 15.1644 16.4769C15.2124 16.5274 15.2732 16.5626 15.3392 16.5805C15.307 17.2131 15.3097 17.8882 15.3474 18.5941C15.208 18.8633 15.1287 19.1685 15.1287 19.492C15.1287 20.5726 16.0079 21.4517 17.0885 21.4517C17.1061 21.4517 17.1238 21.4508 17.1415 21.4504C17.54 22.6348 18.3604 23.6271 19.4231 24.2479C17.9185 24.4524 16.5323 25.2014 15.5309 26.372C15.3957 26.5301 15.4142 26.7679 15.5723 26.9032C15.7304 27.0385 15.9682 27.0199 16.1035 26.8618C17.0215 25.7885 18.3075 25.1186 19.6957 24.9742C19.7443 25.4184 19.9009 26.1227 20.3959 26.6371C20.7988 27.0558 21.3384 27.2681 21.9996 27.2681C22.6609 27.2681 23.2004 27.0558 23.6033 26.6371C24.0985 26.1226 24.2551 25.418 24.3036 24.9738C27.0553 25.2589 29.2081 27.5914 29.2081 30.4172V31.1404C29.2081 31.3484 29.3768 31.5171 29.5849 31.5171C29.793 31.5171 29.9616 31.3484 29.9616 31.1404V30.4172C29.9617 27.2693 27.6132 24.6599 24.5764 24.248ZM27.926 17.816C27.6074 17.621 27.2155 17.5144 26.8193 17.5346C26.6922 17.4621 26.3503 17.2265 25.888 16.5939H27.9065C27.927 16.9845 27.9335 17.3929 27.926 17.816ZM27.0499 20.6901C27.0985 20.4072 27.1242 20.1167 27.1242 19.8202V18.3049C27.6881 18.4058 28.1175 18.8996 28.1175 19.4921C28.1175 20.1102 27.6499 20.621 27.0499 20.6901ZM21.9998 13.0596C22.8202 13.0596 23.502 13.6643 23.6228 14.4514H20.3768C20.4977 13.6643 21.1794 13.0596 21.9998 13.0596ZM20.3578 15.2048H23.6419V15.8405H20.3578V15.2048ZM15.8822 19.492C15.8822 18.8995 16.3116 18.4058 16.8755 18.3049V19.8201C16.8755 20.1166 16.9011 20.4072 16.9497 20.6901C16.3497 20.621 15.8822 20.1102 15.8822 19.492ZM17.1804 17.5346C16.7841 17.5144 16.3921 17.6211 16.0733 17.8162C16.0659 17.3931 16.0723 16.9847 16.0928 16.5939H18.1116C17.6495 17.2261 17.3077 17.462 17.1804 17.5346ZM17.6289 19.8201V18.1441C17.9235 17.9584 18.4232 17.5356 19.0229 16.5939H24.9767C25.5757 17.5337 26.0796 17.9578 26.3707 18.143V19.8201C26.3707 22.2302 24.4099 24.191 21.9998 24.191C19.5896 24.191 17.6289 22.2302 17.6289 19.8201ZM21.9997 26.5147C21.5462 26.5147 21.2 26.3847 20.9413 26.1173C20.6109 25.7758 20.4928 25.2795 20.4509 24.9444H23.5484C23.5064 25.2797 23.3883 25.7759 23.058 26.1173C22.7993 26.3847 22.4531 26.5147 21.9997 26.5147Z" />
            <path
                d="M19.699 17.9844C19.4909 17.9844 19.3223 18.153 19.3223 18.3611V19.4255C19.3223 19.6335 19.4909 19.8022 19.699 19.8022C19.9071 19.8022 20.0757 19.6335 20.0757 19.4255V18.3611C20.0757 18.153 19.907 17.9844 19.699 17.9844Z" />
            <path
                d="M24.3006 19.8022C24.5086 19.8022 24.6773 19.6335 24.6773 19.4255V18.3611C24.6773 18.1531 24.5086 17.9844 24.3006 17.9844C24.0925 17.9844 23.9238 18.153 23.9238 18.3611V19.4255C23.9239 19.6336 24.0925 19.8022 24.3006 19.8022Z" />
            <path
                d="M23.3862 21.4709C23.4653 21.2785 23.3736 21.0584 23.1813 20.9792C22.9888 20.8999 22.7687 20.9917 22.6895 21.1841C22.6882 21.1872 22.5434 21.502 22.0003 21.502C21.4572 21.502 21.3124 21.1872 21.3111 21.1841C21.2319 20.9917 21.0117 20.9 20.8193 20.9792C20.6269 21.0584 20.5352 21.2785 20.6144 21.4709C20.7343 21.7623 21.1613 22.2554 22.0003 22.2554C22.8393 22.2554 23.2662 21.7623 23.3862 21.4709Z" />
        </g>
        <path
            d="M22 0C26.3512 0 30.6047 1.29028 34.2225 3.70767C37.8404 6.12506 40.6602 9.56099 42.3253 13.581C43.9905 17.6009 44.4261 22.0244 43.5773 26.292C42.7284 30.5596 40.6331 34.4796 37.5563 37.5563C34.4796 40.6331 30.5596 42.7284 26.292 43.5773C22.0244 44.4261 17.6009 43.9905 13.581 42.3253C9.56099 40.6602 6.12505 37.8404 3.70766 34.2225C1.29027 30.6047 -3.8147e-06 26.3512 -3.8147e-06 22C0.00654602 16.1672 2.3265 10.5753 6.45088 6.45088C10.5753 2.3265 16.1672 0.0065508 22 0ZM22 42.7969C26.1132 42.7969 30.1341 41.5771 33.5541 39.292C36.9741 37.0068 39.6397 33.7587 41.2138 29.9586C42.7879 26.1585 43.1997 21.9769 42.3973 17.9427C41.5948 13.9085 39.6141 10.2029 36.7056 7.29439C33.7971 4.38589 30.0915 2.40518 26.0573 1.60273C22.0231 0.800279 17.8415 1.21213 14.0414 2.78619C10.2412 4.36026 6.99322 7.02585 4.70803 10.4459C2.42284 13.8659 1.20312 17.8868 1.20312 22C1.2094 27.5137 3.40251 32.7999 7.30132 36.6987C11.2001 40.5975 16.4862 42.7906 22 42.7969ZM3.4375 22C3.4375 26.9231 5.39318 31.6445 8.87432 35.1257C12.3555 38.6068 17.0769 40.5625 22 40.5625C26.9231 40.5625 31.6445 38.6068 35.1257 35.1257C38.6068 31.6445 40.5625 26.9231 40.5625 22C40.5625 21.8405 40.4991 21.6874 40.3863 21.5746C40.2735 21.4618 40.1205 21.3984 39.9609 21.3984C39.8014 21.3984 39.6484 21.4618 39.5356 21.5746C39.4227 21.6874 39.3594 21.8405 39.3594 22C39.3637 26.0374 37.9623 29.9503 35.3958 33.0669C32.8292 36.1835 29.2576 38.3093 25.2943 39.0792C21.331 39.8491 17.2233 39.2152 13.6766 37.2862C10.1298 35.3572 7.3653 32.2536 5.85776 28.5082C4.35022 24.7628 4.19371 20.6094 5.4151 16.7612C6.63649 12.913 9.15958 9.61014 12.5511 7.4197C15.9426 5.22926 19.991 4.28796 24.001 4.75744C28.011 5.22691 31.7324 7.07787 34.5262 9.99247C34.5805 10.051 34.6459 10.0981 34.7186 10.1311C34.7913 10.164 34.8698 10.1822 34.9496 10.1846C35.0294 10.1869 35.1089 10.1733 35.1834 10.1446C35.2579 10.1159 35.3259 10.0727 35.3835 10.0175C35.4411 9.96222 35.4872 9.89606 35.519 9.82284C35.5507 9.74962 35.5677 9.67081 35.5687 9.591C35.5697 9.51118 35.5548 9.43196 35.5249 9.35795C35.4951 9.28394 35.4507 9.21661 35.3946 9.1599C32.8325 6.4836 29.5279 4.6356 25.9063 3.85392C22.2848 3.07225 18.5121 3.3927 15.0743 4.77399C11.6364 6.15529 8.69085 8.53418 6.6169 11.6043C4.54295 14.6744 3.4356 18.295 3.4375 22ZM39.6863 16.3584C39.4696 15.6802 39.2138 15.0152 38.9201 14.3667C38.8874 14.2947 38.841 14.2299 38.7833 14.1759C38.7256 14.1219 38.6579 14.0798 38.5839 14.052C38.51 14.0242 38.4313 14.0112 38.3523 14.0138C38.2734 14.0164 38.1957 14.0345 38.1238 14.0671C38.0518 14.0997 37.987 14.1462 37.933 14.2039C37.879 14.2615 37.8369 14.3293 37.809 14.4032C37.7812 14.4772 37.7682 14.5559 37.7708 14.6348C37.7734 14.7138 37.7916 14.7914 37.8242 14.8634C38.0985 15.4693 38.3376 16.0906 38.5402 16.7241C38.5634 16.8004 38.6015 16.8713 38.6523 16.9327C38.7031 16.9941 38.7656 17.0448 38.8362 17.0818C38.9067 17.1189 38.984 17.1415 39.0634 17.1485C39.1428 17.1554 39.2227 17.1465 39.2987 17.1223C39.3746 17.098 39.4449 17.059 39.5056 17.0073C39.5663 16.9557 39.6162 16.8925 39.6522 16.8214C39.6883 16.7503 39.7099 16.6728 39.7157 16.5933C39.7216 16.5138 39.7116 16.434 39.6863 16.3584Z">
    </g>
    <defs>

</svg>