<svg width="44" height="44" viewBox="0 0 44 44" fill="#969cad" xmlns="http://www.w3.org/2000/svg">
    <g>
        <path
            d="M29.5851 31.517C29.7932 31.517 29.9618 31.3483 29.9618 31.1402V30.4171C29.9618 29.4882 29.757 28.6065 29.3908 27.8141C29.7018 21.7205 29.7017 15.6246 27.6646 12.2116C27.5579 12.0329 27.3265 11.9745 27.148 12.0812C26.9694 12.1878 26.911 12.4191 27.0176 12.5977C27.8591 14.0075 28.385 16.0101 28.6256 18.7199C28.8106 20.8031 28.8322 23.346 28.6909 26.652C27.7134 25.3685 26.2495 24.4747 24.5765 24.2478C26.099 23.3584 27.1243 21.7067 27.1243 19.8199V16.9111C27.1243 16.703 26.9556 16.5344 26.7475 16.5344C26.7374 16.5344 26.727 16.5348 26.7169 16.5356C26.6686 16.5396 21.8773 16.899 20.0008 14.3976C19.8274 14.1555 19.4272 14.2221 19.3413 14.507C19.3351 14.5259 18.7062 16.3962 17.1155 17.0163C16.9709 17.0727 16.8756 17.212 16.8756 17.3672V19.8199C16.8756 21.7067 17.9009 23.3584 19.4234 24.2478C17.7503 24.4747 16.2864 25.3686 15.3088 26.6522C15.2437 25.133 15.2134 23.7931 15.2168 22.5843C15.2174 22.3762 15.0492 22.2071 14.8412 22.2065C14.8408 22.2065 14.8404 22.2065 14.8401 22.2065C14.6325 22.2065 14.4639 22.3745 14.4633 22.5822C14.4591 24.0941 14.5069 25.8068 14.6091 27.814C14.2429 28.6065 14.0381 29.4882 14.0381 30.4171V34.4565C14.0381 34.6645 14.2067 34.8332 14.4148 34.8332H29.585C29.7931 34.8332 29.9617 34.6645 29.9617 34.4565V32.6471C29.9617 32.439 29.7931 32.2703 29.585 32.2703C29.3769 32.2703 29.2083 32.439 29.2083 32.6471V34.0797H26.9652V31.1402C26.9652 30.9321 26.7965 30.7635 26.5884 30.7635C26.3803 30.7635 26.2117 30.9321 26.2117 31.1402V34.0797H17.7881V31.1402C17.7881 30.9321 17.6194 30.7635 17.4113 30.7635C17.2033 30.7635 17.0346 30.9321 17.0346 31.1402V34.0797H14.7915V30.417C14.7915 28.0047 16.3604 25.9522 18.5314 25.2256L19.3608 27.9775C19.5633 28.6499 20.1712 29.1016 20.8734 29.1016H23.126C23.8282 29.1016 24.4361 28.6499 24.6387 27.9776L25.4682 25.2255C27.6393 25.952 29.2083 28.0047 29.2083 30.4171V31.1402C29.2083 31.3483 29.377 31.517 29.5851 31.517ZM17.6291 19.8199V17.6149C18.8024 17.06 19.4823 15.9936 19.8109 15.3262C21.7373 17.2613 25.1848 17.3417 26.3708 17.3069V19.8199C26.3708 22.23 24.4101 24.1908 21.9999 24.1908C19.5898 24.1908 17.6291 22.23 17.6291 19.8199ZM23.9174 27.7602C23.8114 28.1119 23.4934 28.3482 23.126 28.3482H20.8735C20.5061 28.3482 20.1882 28.1119 20.0821 27.7603L19.2613 25.0367C19.5866 24.9762 19.9218 24.9442 20.2644 24.9442H23.7355C24.078 24.9442 24.4131 24.9762 24.7383 25.0366L23.9174 27.7602Z" />
        <path
            d="M19.7 17.9841C19.4919 17.9841 19.3232 18.1528 19.3232 18.3609V19.4252C19.3232 19.6333 19.4919 19.802 19.7 19.802C19.9081 19.802 20.0767 19.6333 20.0767 19.4252V18.3609C20.0766 18.1528 19.908 17.9841 19.7 17.9841Z" />
        <path
            d="M24.3006 19.8017C24.5086 19.8017 24.6773 19.633 24.6773 19.425V18.3606C24.6773 18.1526 24.5086 17.9839 24.3006 17.9839C24.0925 17.9839 23.9238 18.1525 23.9238 18.3606V19.425C23.9239 19.6331 24.0925 19.8017 24.3006 19.8017Z" />
        <path
            d="M14.8521 21.4514C14.8558 21.4515 14.8596 21.4515 14.8633 21.4515C15.0662 21.4515 15.2337 21.29 15.2396 21.0858C15.3522 17.2308 15.8694 14.5972 16.867 12.7977C17.9404 10.8613 19.6194 9.91991 21.9996 9.91991C23.7654 9.91991 25.122 10.4236 26.1468 11.4597C26.2932 11.6076 26.5317 11.6088 26.6796 11.4626C26.8274 11.3163 26.8288 11.0777 26.6825 10.9298C25.5088 9.7433 23.977 9.1665 21.9996 9.1665C19.3207 9.1665 17.4263 10.2348 16.208 12.4324C15.1498 14.3411 14.6028 17.0839 14.4865 21.0638C14.4804 21.2718 14.6441 21.4453 14.8521 21.4514Z" />
        <path
            d="M23.3887 21.4539C23.468 21.2611 23.3761 21.0405 23.1834 20.9611C22.9905 20.8818 22.77 20.9737 22.6907 21.1665C22.6894 21.1696 22.5443 21.485 22.0001 21.485C21.4559 21.485 21.3109 21.1696 21.3096 21.1665C21.2302 20.9737 21.0097 20.8818 20.8168 20.9611C20.6241 21.0405 20.5322 21.2611 20.6115 21.4539C20.7317 21.7458 21.1594 22.2399 22.0001 22.2399C22.8408 22.2399 23.2685 21.7458 23.3887 21.4539Z" />
        <path
            d="M22 0C26.3512 0 30.6047 1.29028 34.2225 3.70767C37.8404 6.12506 40.6602 9.56099 42.3253 13.581C43.9905 17.6009 44.4261 22.0244 43.5773 26.292C42.7284 30.5596 40.6331 34.4796 37.5563 37.5563C34.4796 40.6331 30.5596 42.7284 26.292 43.5773C22.0244 44.4261 17.6009 43.9905 13.581 42.3253C9.56099 40.6602 6.12505 37.8404 3.70766 34.2225C1.29027 30.6047 -3.8147e-06 26.3512 -3.8147e-06 22C0.00654602 16.1672 2.3265 10.5753 6.45088 6.45088C10.5753 2.3265 16.1672 0.0065508 22 0ZM22 42.7969C26.1132 42.7969 30.1341 41.5771 33.5541 39.292C36.9741 37.0068 39.6397 33.7587 41.2138 29.9586C42.7879 26.1585 43.1997 21.9769 42.3973 17.9427C41.5948 13.9085 39.6141 10.2029 36.7056 7.29439C33.7971 4.38589 30.0915 2.40518 26.0573 1.60273C22.0231 0.800279 17.8415 1.21213 14.0414 2.78619C10.2412 4.36026 6.99322 7.02585 4.70803 10.4459C2.42284 13.8659 1.20312 17.8868 1.20312 22C1.2094 27.5137 3.40251 32.7999 7.30132 36.6987C11.2001 40.5975 16.4862 42.7906 22 42.7969ZM3.4375 22C3.4375 26.9231 5.39318 31.6445 8.87432 35.1257C12.3555 38.6068 17.0769 40.5625 22 40.5625C26.9231 40.5625 31.6445 38.6068 35.1257 35.1257C38.6068 31.6445 40.5625 26.9231 40.5625 22C40.5625 21.8405 40.4991 21.6874 40.3863 21.5746C40.2735 21.4618 40.1205 21.3984 39.9609 21.3984C39.8014 21.3984 39.6484 21.4618 39.5356 21.5746C39.4227 21.6874 39.3594 21.8405 39.3594 22C39.3637 26.0374 37.9623 29.9503 35.3958 33.0669C32.8292 36.1835 29.2576 38.3093 25.2943 39.0792C21.331 39.8491 17.2233 39.2152 13.6766 37.2862C10.1298 35.3572 7.3653 32.2536 5.85776 28.5082C4.35022 24.7628 4.19371 20.6094 5.4151 16.7612C6.63649 12.913 9.15958 9.61014 12.5511 7.4197C15.9426 5.22926 19.991 4.28796 24.001 4.75744C28.011 5.22691 31.7324 7.07787 34.5262 9.99247C34.5805 10.051 34.6459 10.0981 34.7186 10.1311C34.7913 10.164 34.8698 10.1822 34.9496 10.1846C35.0294 10.1869 35.1089 10.1733 35.1834 10.1446C35.2579 10.1159 35.3259 10.0727 35.3835 10.0175C35.4411 9.96222 35.4872 9.89606 35.519 9.82284C35.5507 9.74962 35.5677 9.67081 35.5687 9.591C35.5697 9.51118 35.5548 9.43196 35.5249 9.35795C35.4951 9.28394 35.4507 9.21661 35.3946 9.1599C32.8325 6.4836 29.5279 4.6356 25.9063 3.85392C22.2848 3.07225 18.5121 3.3927 15.0743 4.77399C11.6364 6.15529 8.69085 8.53418 6.6169 11.6043C4.54295 14.6744 3.4356 18.295 3.4375 22ZM39.6863 16.3584C39.4696 15.6802 39.2138 15.0152 38.9201 14.3667C38.8874 14.2947 38.841 14.2299 38.7833 14.1759C38.7256 14.1219 38.6579 14.0798 38.5839 14.052C38.51 14.0242 38.4313 14.0112 38.3523 14.0138C38.2734 14.0164 38.1957 14.0345 38.1238 14.0671C38.0518 14.0997 37.987 14.1462 37.933 14.2039C37.879 14.2615 37.8369 14.3293 37.809 14.4032C37.7812 14.4772 37.7682 14.5559 37.7708 14.6348C37.7734 14.7138 37.7916 14.7914 37.8242 14.8634C38.0985 15.4693 38.3376 16.0906 38.5402 16.7241C38.5634 16.8004 38.6015 16.8713 38.6523 16.9327C38.7031 16.9941 38.7656 17.0448 38.8362 17.0818C38.9067 17.1189 38.984 17.1415 39.0634 17.1485C39.1428 17.1554 39.2227 17.1465 39.2987 17.1223C39.3746 17.098 39.4449 17.059 39.5056 17.0073C39.5663 16.9557 39.6162 16.8925 39.6522 16.8214C39.6883 16.7503 39.7099 16.6728 39.7157 16.5933C39.7216 16.5138 39.7116 16.434 39.6863 16.3584Z" />
    </g>

</svg>