<svg class="icon-playlist" width="44" height="44" viewBox="0 0 44 44" fill="none"
                        xmlns="http://www.w3.org/2000/svg">
                        <path
                            d="M29.5098 32.2705C29.3017 32.2705 29.133 32.4392 29.133 32.6472V34.0799H26.8899V31.1404C26.8899 30.9323 26.7213 30.7637 26.5132 30.7637C26.3051 30.7637 26.1365 30.9323 26.1365 31.1404V34.0799H17.7128V31.1404C17.7128 30.9323 17.5441 30.7637 17.3361 30.7637C17.1281 30.7637 16.9594 30.9323 16.9594 31.1404V34.0799H14.7163V30.4172C14.7163 29.5876 14.8971 28.7909 15.2536 28.0493C15.3437 27.8618 15.2648 27.6367 15.0773 27.5465C14.8898 27.4564 14.6647 27.5354 14.5745 27.7229C14.1687 28.5671 13.9629 29.4737 13.9629 30.4172V34.4566C13.9629 34.6646 14.1316 34.8333 14.3396 34.8333H29.5098C29.7179 34.8333 29.8865 34.6646 29.8865 34.4566V32.6472C29.8865 32.4392 29.7179 32.2705 29.5098 32.2705Z"
                            fill="url(#paintz0_linear)" stroke="url(#paintz1_linear)" stroke-width="0.5" />
                        <path
                            d="M24.5015 24.248C25.5643 23.6272 26.3848 22.6349 26.7833 21.4504C26.801 21.4509 26.8186 21.4518 26.8363 21.4518C27.9169 21.4518 28.796 20.5726 28.796 19.492C28.796 19.1904 28.7274 18.9045 28.6051 18.649C29.466 16.1267 29.4286 14.1447 28.4922 12.7572C27.5288 11.3296 25.9216 10.9969 25.3259 10.9212C25.0323 10.4002 24.0747 9.16675 21.588 9.16675C20.3737 9.16675 19.3734 9.32476 18.4059 9.47756C17.0724 9.6882 15.9207 9.87012 14.4991 9.59085C14.292 9.54548 14.0749 9.70234 14.0527 9.91314C14.0476 9.95389 13.9264 10.9262 13.9339 12.2543C13.9351 12.4616 14.1035 12.6288 14.3106 12.6288H14.3128C14.5209 12.6276 14.6886 12.458 14.6874 12.25C14.6829 11.4627 14.7265 10.7965 14.7608 10.3998C16.1326 10.5994 17.2972 10.4155 18.5236 10.2218C19.4623 10.0735 20.433 9.9202 21.5881 9.9202C24.1205 9.9202 24.7048 11.3482 24.7271 11.4056C24.7795 11.5483 24.9123 11.6456 25.0641 11.6523C25.0824 11.6531 26.9035 11.7497 27.8678 13.1786C28.6114 14.2804 28.6686 15.8829 28.0405 17.9475C27.7607 17.7289 27.4206 17.5844 27.0494 17.5441V16.6606C27.0494 16.5168 26.9675 16.3855 26.8384 16.3223C25.4157 15.6251 25.0036 14.17 24.9999 14.1565C24.9494 13.9491 24.7106 13.823 24.5109 13.8982C22.0372 14.769 20.2387 14.6585 19.1656 14.4122C18.01 14.1471 17.4244 13.6723 17.4201 13.6688C17.1892 13.461 16.7905 13.6464 16.8008 13.957V17.5441C16.5287 17.5736 16.2733 17.6593 16.046 17.789C15.3592 16.9137 14.9146 15.518 14.7546 13.7233C14.7362 13.516 14.5526 13.3625 14.346 13.3815C14.1387 13.3999 13.9857 13.5829 14.0042 13.7902C14.1811 15.7753 14.6753 17.2834 15.4744 18.2814C15.2115 18.6149 15.0539 19.0353 15.0539 19.4921C15.0539 20.5727 15.9331 21.4518 17.0137 21.4518C17.0313 21.4518 17.049 21.4509 17.0666 21.4505C17.4652 22.6349 18.2855 23.6272 19.3483 24.248C17.8437 24.4525 16.4575 25.2015 15.4562 26.3721C15.3209 26.5302 15.3395 26.768 15.4976 26.9033C15.6557 27.0385 15.8935 27.02 16.0287 26.8619C16.5718 26.227 17.2437 25.7336 17.9892 25.4062L19.4105 28.8633C19.4921 29.0758 19.7714 29.1647 19.961 29.038L21.5482 28.0292V30.4345C21.5482 30.6426 21.7169 30.8113 21.9249 30.8113C22.133 30.8113 22.3016 30.6426 22.3016 30.4345V28.0292L23.8889 29.038C24.0785 29.1648 24.3578 29.0758 24.4393 28.8634L25.8605 25.4066C27.7859 26.2552 29.1335 28.1817 29.1335 30.4173V31.1405C29.1335 31.3485 29.3021 31.5172 29.5102 31.5172C29.7183 31.5172 29.8869 31.3485 29.8869 31.1405V30.4173C29.8868 27.2693 27.5383 24.6599 24.5015 24.248ZM21.9248 26.6877L20.7015 24.9444H23.1481L21.9248 26.6877ZM28.0426 19.492C28.0426 20.1102 27.5751 20.621 26.975 20.6901C27.0236 20.4072 27.0492 20.1166 27.0492 19.8202V18.3049C27.6132 18.4058 28.0426 18.8995 28.0426 19.492ZM15.8073 19.492C15.8073 18.8996 16.2367 18.4058 16.8006 18.3049V19.8201C16.8006 20.1166 16.8262 20.4072 16.8748 20.6901C16.2748 20.621 15.8073 20.1102 15.8073 19.492ZM17.554 19.8201V14.6352C18.5709 15.1577 20.8398 15.8884 24.4066 14.7288C24.6324 15.2677 25.1759 16.2576 26.2958 16.8879V19.8201C26.2958 22.2302 24.3351 24.191 21.9249 24.191C19.5148 24.191 17.554 22.2302 17.554 19.8201ZM19.9362 28.1609L18.6988 25.1512C19.0532 25.051 19.4191 24.9863 19.7915 24.9593L21.3899 27.2371L19.9362 28.1609ZM23.9134 28.161L22.4597 27.2371L24.0583 24.959C24.4342 24.9861 24.7998 25.0513 25.151 25.1508L23.9134 28.161Z"
                            fill="url(#paintz2_linear)" stroke="url(#paintz3_linear)" stroke-width="0.5" />
                        <path
                            d="M19.6238 17.9841C19.4158 17.9841 19.2471 18.1528 19.2471 18.3609V19.4252C19.2471 19.6333 19.4157 19.802 19.6238 19.802C19.8318 19.802 20.0005 19.6333 20.0005 19.4252V18.3609C20.0005 18.1528 19.8318 17.9841 19.6238 17.9841Z"
                            fill="url(#paintz4_linear)" stroke="url(#paintz5_linear)" stroke-width="0.5" />
                        <path
                            d="M24.2254 19.802C24.4335 19.802 24.6021 19.6333 24.6021 19.4252V18.3609C24.6021 18.1528 24.4335 17.9841 24.2254 17.9841C24.0173 17.9841 23.8486 18.1528 23.8486 18.3609V19.4252C23.8486 19.6333 24.0173 19.802 24.2254 19.802Z"
                            fill="url(#paintz6_linear)" stroke="url(#paintz7_linear)" stroke-width="0.5" />
                        <path
                            d="M23.3109 21.4709C23.3901 21.2785 23.2984 21.0583 23.106 20.9791C22.9135 20.8999 22.6934 20.9917 22.6142 21.1841C22.613 21.1872 22.4682 21.502 21.925 21.502C21.3819 21.502 21.2372 21.1872 21.2359 21.1841C21.1567 20.9917 20.9366 20.8999 20.7441 20.9791C20.5517 21.0583 20.46 21.2785 20.5392 21.4709C20.6592 21.7623 21.0861 22.2554 21.9251 22.2554C22.7641 22.2554 23.191 21.7623 23.3109 21.4709Z"
                            fill="url(#paintz8_linear)" stroke="url(#paintz9_linear)" stroke-width="0.5" />
                        <mask id="path-6-inside-1" fill="white">
                            <path
                                d="M22 0C26.3512 0 30.6047 1.29028 34.2225 3.70767C37.8404 6.12506 40.6602 9.56099 42.3253 13.581C43.9905 17.6009 44.4261 22.0244 43.5773 26.292C42.7284 30.5596 40.6331 34.4796 37.5563 37.5563C34.4796 40.6331 30.5596 42.7284 26.292 43.5773C22.0244 44.4261 17.6009 43.9905 13.581 42.3253C9.56099 40.6602 6.12505 37.8404 3.70766 34.2225C1.29027 30.6047 -3.8147e-06 26.3512 -3.8147e-06 22C0.00654602 16.1672 2.3265 10.5753 6.45088 6.45088C10.5753 2.3265 16.1672 0.0065508 22 0ZM22 42.7969C26.1132 42.7969 30.1341 41.5771 33.5541 39.292C36.9741 37.0068 39.6397 33.7587 41.2138 29.9586C42.7879 26.1585 43.1997 21.9769 42.3973 17.9427C41.5948 13.9085 39.6141 10.2029 36.7056 7.29439C33.7971 4.38589 30.0915 2.40518 26.0573 1.60273C22.0231 0.800279 17.8415 1.21213 14.0414 2.78619C10.2412 4.36026 6.99322 7.02585 4.70803 10.4459C2.42284 13.8659 1.20312 17.8868 1.20312 22C1.2094 27.5137 3.40251 32.7999 7.30132 36.6987C11.2001 40.5975 16.4862 42.7906 22 42.7969ZM3.4375 22C3.4375 26.9231 5.39318 31.6445 8.87432 35.1257C12.3555 38.6068 17.0769 40.5625 22 40.5625C26.9231 40.5625 31.6445 38.6068 35.1257 35.1257C38.6068 31.6445 40.5625 26.9231 40.5625 22C40.5625 21.8405 40.4991 21.6874 40.3863 21.5746C40.2735 21.4618 40.1205 21.3984 39.9609 21.3984C39.8014 21.3984 39.6484 21.4618 39.5356 21.5746C39.4227 21.6874 39.3594 21.8405 39.3594 22C39.3637 26.0374 37.9623 29.9503 35.3958 33.0669C32.8292 36.1835 29.2576 38.3093 25.2943 39.0792C21.331 39.8491 17.2233 39.2152 13.6766 37.2862C10.1298 35.3572 7.3653 32.2536 5.85776 28.5082C4.35022 24.7628 4.19371 20.6094 5.4151 16.7612C6.63649 12.913 9.15958 9.61014 12.5511 7.4197C15.9426 5.22926 19.991 4.28796 24.001 4.75744C28.011 5.22691 31.7324 7.07787 34.5262 9.99247C34.5805 10.051 34.6459 10.0981 34.7186 10.1311C34.7913 10.164 34.8698 10.1822 34.9496 10.1846C35.0294 10.1869 35.1089 10.1733 35.1834 10.1446C35.2579 10.1159 35.3259 10.0727 35.3835 10.0175C35.4411 9.96222 35.4872 9.89606 35.519 9.82284C35.5507 9.74962 35.5677 9.67081 35.5687 9.591C35.5697 9.51118 35.5548 9.43196 35.5249 9.35795C35.4951 9.28394 35.4507 9.21661 35.3946 9.1599C32.8325 6.4836 29.5279 4.6356 25.9063 3.85392C22.2848 3.07225 18.5121 3.3927 15.0743 4.77399C11.6364 6.15529 8.69085 8.53418 6.6169 11.6043C4.54295 14.6744 3.4356 18.295 3.4375 22ZM39.6863 16.3584C39.4696 15.6802 39.2138 15.0152 38.9201 14.3667C38.8874 14.2947 38.841 14.2299 38.7833 14.1759C38.7256 14.1219 38.6579 14.0798 38.5839 14.052C38.51 14.0242 38.4313 14.0112 38.3523 14.0138C38.2734 14.0164 38.1957 14.0345 38.1238 14.0671C38.0518 14.0997 37.987 14.1462 37.933 14.2039C37.879 14.2615 37.8369 14.3293 37.809 14.4032C37.7812 14.4772 37.7682 14.5559 37.7708 14.6348C37.7734 14.7138 37.7916 14.7914 37.8242 14.8634C38.0985 15.4693 38.3376 16.0906 38.5402 16.7241C38.5634 16.8004 38.6015 16.8713 38.6523 16.9327C38.7031 16.9941 38.7656 17.0448 38.8362 17.0818C38.9067 17.1189 38.984 17.1415 39.0634 17.1485C39.1428 17.1554 39.2227 17.1465 39.2987 17.1223C39.3746 17.098 39.4449 17.059 39.5056 17.0073C39.5663 16.9557 39.6162 16.8925 39.6522 16.8214C39.6883 16.7503 39.7099 16.6728 39.7157 16.5933C39.7216 16.5138 39.7116 16.434 39.6863 16.3584Z" />
                        </mask>
                        <path
                            d="M22 0C26.3512 0 30.6047 1.29028 34.2225 3.70767C37.8404 6.12506 40.6602 9.56099 42.3253 13.581C43.9905 17.6009 44.4261 22.0244 43.5773 26.292C42.7284 30.5596 40.6331 34.4796 37.5563 37.5563C34.4796 40.6331 30.5596 42.7284 26.292 43.5773C22.0244 44.4261 17.6009 43.9905 13.581 42.3253C9.56099 40.6602 6.12505 37.8404 3.70766 34.2225C1.29027 30.6047 -3.8147e-06 26.3512 -3.8147e-06 22C0.00654602 16.1672 2.3265 10.5753 6.45088 6.45088C10.5753 2.3265 16.1672 0.0065508 22 0ZM22 42.7969C26.1132 42.7969 30.1341 41.5771 33.5541 39.292C36.9741 37.0068 39.6397 33.7587 41.2138 29.9586C42.7879 26.1585 43.1997 21.9769 42.3973 17.9427C41.5948 13.9085 39.6141 10.2029 36.7056 7.29439C33.7971 4.38589 30.0915 2.40518 26.0573 1.60273C22.0231 0.800279 17.8415 1.21213 14.0414 2.78619C10.2412 4.36026 6.99322 7.02585 4.70803 10.4459C2.42284 13.8659 1.20312 17.8868 1.20312 22C1.2094 27.5137 3.40251 32.7999 7.30132 36.6987C11.2001 40.5975 16.4862 42.7906 22 42.7969ZM3.4375 22C3.4375 26.9231 5.39318 31.6445 8.87432 35.1257C12.3555 38.6068 17.0769 40.5625 22 40.5625C26.9231 40.5625 31.6445 38.6068 35.1257 35.1257C38.6068 31.6445 40.5625 26.9231 40.5625 22C40.5625 21.8405 40.4991 21.6874 40.3863 21.5746C40.2735 21.4618 40.1205 21.3984 39.9609 21.3984C39.8014 21.3984 39.6484 21.4618 39.5356 21.5746C39.4227 21.6874 39.3594 21.8405 39.3594 22C39.3637 26.0374 37.9623 29.9503 35.3958 33.0669C32.8292 36.1835 29.2576 38.3093 25.2943 39.0792C21.331 39.8491 17.2233 39.2152 13.6766 37.2862C10.1298 35.3572 7.3653 32.2536 5.85776 28.5082C4.35022 24.7628 4.19371 20.6094 5.4151 16.7612C6.63649 12.913 9.15958 9.61014 12.5511 7.4197C15.9426 5.22926 19.991 4.28796 24.001 4.75744C28.011 5.22691 31.7324 7.07787 34.5262 9.99247C34.5805 10.051 34.6459 10.0981 34.7186 10.1311C34.7913 10.164 34.8698 10.1822 34.9496 10.1846C35.0294 10.1869 35.1089 10.1733 35.1834 10.1446C35.2579 10.1159 35.3259 10.0727 35.3835 10.0175C35.4411 9.96222 35.4872 9.89606 35.519 9.82284C35.5507 9.74962 35.5677 9.67081 35.5687 9.591C35.5697 9.51118 35.5548 9.43196 35.5249 9.35795C35.4951 9.28394 35.4507 9.21661 35.3946 9.1599C32.8325 6.4836 29.5279 4.6356 25.9063 3.85392C22.2848 3.07225 18.5121 3.3927 15.0743 4.77399C11.6364 6.15529 8.69085 8.53418 6.6169 11.6043C4.54295 14.6744 3.4356 18.295 3.4375 22ZM39.6863 16.3584C39.4696 15.6802 39.2138 15.0152 38.9201 14.3667C38.8874 14.2947 38.841 14.2299 38.7833 14.1759C38.7256 14.1219 38.6579 14.0798 38.5839 14.052C38.51 14.0242 38.4313 14.0112 38.3523 14.0138C38.2734 14.0164 38.1957 14.0345 38.1238 14.0671C38.0518 14.0997 37.987 14.1462 37.933 14.2039C37.879 14.2615 37.8369 14.3293 37.809 14.4032C37.7812 14.4772 37.7682 14.5559 37.7708 14.6348C37.7734 14.7138 37.7916 14.7914 37.8242 14.8634C38.0985 15.4693 38.3376 16.0906 38.5402 16.7241C38.5634 16.8004 38.6015 16.8713 38.6523 16.9327C38.7031 16.9941 38.7656 17.0448 38.8362 17.0818C38.9067 17.1189 38.984 17.1415 39.0634 17.1485C39.1428 17.1554 39.2227 17.1465 39.2987 17.1223C39.3746 17.098 39.4449 17.059 39.5056 17.0073C39.5663 16.9557 39.6162 16.8925 39.6522 16.8214C39.6883 16.7503 39.7099 16.6728 39.7157 16.5933C39.7216 16.5138 39.7116 16.434 39.6863 16.3584Z"
                            fill="url(#paintz10_linear)" />
                        <path
                            d="M22 0L21.9955 -4H22V0ZM-3.8147e-06 22H-4.00001L-4 21.9955L-3.8147e-06 22ZM22 42.7969V46.7969L21.9954 46.7969L22 42.7969ZM1.20312 22L-2.79688 22.0045V22H1.20312ZM3.4375 22L7.4375 21.998V22H3.4375ZM22 40.5625V44.5625V40.5625ZM40.5625 22H36.5625H40.5625ZM39.3594 22L35.3594 22.0043V22H39.3594ZM34.5262 9.99247L37.4139 7.22449L37.4362 7.24778L37.4581 7.27142L34.5262 9.99247ZM35.3946 9.1599L32.5527 11.9749L32.5287 11.9506L32.5051 11.926L35.3946 9.1599ZM39.6863 16.3584L35.8928 17.6271L35.8843 17.6015L35.876 17.5758L39.6863 16.3584ZM38.9201 14.3667L42.5633 12.7153L42.5638 12.7165L38.9201 14.3667ZM37.8242 14.8634L41.4674 13.2121L41.4681 13.2136L37.8242 14.8634ZM38.5402 16.7241L42.3501 15.5056L42.3589 15.5332L42.3673 15.5609L38.5402 16.7241ZM22 -4C27.1423 -4 32.1691 -2.47513 36.4448 0.381789L32.0003 7.03355C29.0402 5.05568 25.5601 4 22 4V-4ZM36.4448 0.381789C40.7205 3.23871 44.053 7.29935 46.0209 12.0502L38.6298 15.1117C37.2674 11.8226 34.9603 9.01141 32.0003 7.03355L36.4448 0.381789ZM46.0209 12.0502C47.9887 16.8011 48.5036 22.0288 47.5004 27.0723L39.6541 25.5116C40.3487 22.02 39.9922 18.4008 38.6298 15.1117L46.0209 12.0502ZM47.5004 27.0723C46.4972 32.1158 44.0209 36.7486 40.3848 40.3848L34.7279 34.7279C37.2453 32.2106 38.9596 29.0033 39.6541 25.5116L47.5004 27.0723ZM40.3848 40.3848C36.7486 44.0209 32.1158 46.4972 27.0723 47.5004L25.5116 39.6541C29.0033 38.9596 32.2106 37.2453 34.7279 34.7279L40.3848 40.3848ZM27.0723 47.5004C22.0288 48.5036 16.8011 47.9887 12.0502 46.0209L15.1117 38.6298C18.4008 39.9922 22.02 40.3487 25.5116 39.6541L27.0723 47.5004ZM12.0502 46.0209C7.29935 44.053 3.2387 40.7205 0.381786 36.4448L7.03354 32.0003C9.01141 34.9603 11.8226 37.2674 15.1117 38.6298L12.0502 46.0209ZM0.381786 36.4448C-2.47513 32.1691 -4 27.1423 -4 22H4C4 25.5601 5.05568 29.0402 7.03354 32.0003L0.381786 36.4448ZM-4 21.9955C-3.99226 15.1034 -1.25097 8.49588 3.62245 3.62246L9.2793 9.27931C5.90397 12.6546 4.00535 17.231 3.99999 22.0045L-4 21.9955ZM3.62245 3.62246C8.49588 -1.25097 15.1034 -3.99226 21.9955 -4L22.0045 4C17.231 4.00536 12.6546 5.90398 9.2793 9.27931L3.62245 3.62246ZM22 38.7969C25.3221 38.7969 28.5696 37.8117 31.3318 35.9661L35.7764 42.6178C31.6986 45.3426 26.9044 46.7969 22 46.7969V38.7969ZM31.3318 35.9661C34.0941 34.1204 36.247 31.4971 37.5183 28.4279L44.9093 31.4893C43.0325 36.0204 39.8542 39.8931 35.7764 42.6178L31.3318 35.9661ZM37.5183 28.4279C38.7896 25.3587 39.1222 21.9814 38.4741 18.7231L46.3204 17.1624C47.2772 21.9725 46.7861 26.9583 44.9093 31.4893L37.5183 28.4279ZM38.4741 18.7231C37.826 15.4648 36.2263 12.4719 33.8772 10.1228L39.534 4.46596C43.0019 7.93386 45.3636 12.3522 46.3204 17.1624L38.4741 18.7231ZM33.8772 10.1228C31.5281 7.77373 28.5352 6.17398 25.2769 5.52587L26.8376 -2.32041C31.6477 -1.36362 36.0661 0.998055 39.534 4.46596L33.8772 10.1228ZM25.2769 5.52587C22.0186 4.87776 18.6413 5.21039 15.5721 6.48171L12.5106 -0.909326C17.0417 -2.78614 22.0275 -3.2772 26.8376 -2.32041L25.2769 5.52587ZM15.5721 6.48171C12.5029 7.75303 9.87957 9.90592 8.03391 12.6682L1.38215 8.22359C4.10686 4.14577 7.9796 0.967491 12.5106 -0.909326L15.5721 6.48171ZM8.03391 12.6682C6.18824 15.4304 5.20312 18.6779 5.20312 22H-2.79688C-2.79688 17.0956 -1.34257 12.3014 1.38215 8.22359L8.03391 12.6682ZM5.20312 21.9954C5.20819 26.4499 6.97996 30.7205 10.1297 33.8702L4.47289 39.5271C-0.17495 34.8793 -2.78939 28.5776 -2.79688 22.0045L5.20312 21.9954ZM10.1297 33.8702C13.2795 37.02 17.5501 38.7918 22.0045 38.7969L21.9954 46.7969C15.4224 46.7894 9.12073 44.1749 4.47289 39.5271L10.1297 33.8702ZM7.4375 22C7.4375 25.8622 8.97175 29.5662 11.7028 32.2972L6.0459 37.9541C1.81461 33.7228 -0.562504 27.9839 -0.562504 22H7.4375ZM11.7028 32.2972C14.4337 35.0282 18.1378 36.5625 22 36.5625V44.5625C16.016 44.5625 10.2772 42.1854 6.0459 37.9541L11.7028 32.2972ZM22 36.5625C25.8622 36.5625 29.5662 35.0282 32.2972 32.2972L37.9541 37.9541C33.7228 42.1854 27.9839 44.5625 22 44.5625V36.5625ZM32.2972 32.2972C35.0282 29.5662 36.5625 25.8622 36.5625 22H44.5625C44.5625 27.9839 42.1854 33.7228 37.9541 37.9541L32.2972 32.2972ZM36.5625 22C36.5625 22.9013 36.9205 23.7657 37.5579 24.4031L43.2147 18.7462C44.0777 19.6092 44.5625 20.7796 44.5625 22H36.5625ZM37.5579 24.4031C38.1952 25.0404 39.0596 25.3984 39.9609 25.3984V17.3984C41.1813 17.3984 42.3518 17.8832 43.2147 18.7462L37.5579 24.4031ZM39.9609 25.3984C40.8622 25.3984 41.7266 25.0404 42.364 24.4031L36.7071 18.7462C37.5701 17.8832 38.7405 17.3984 39.9609 17.3984V25.3984ZM42.364 24.4031C43.0013 23.7657 43.3594 22.9013 43.3594 22H35.3594C35.3594 20.7796 35.8442 19.6092 36.7071 18.7462L42.364 24.4031ZM43.3594 21.9957C43.3648 26.9623 41.6408 31.7758 38.4835 35.6097L32.308 30.5241C34.2839 28.1248 35.3627 25.1125 35.3594 22.0043L43.3594 21.9957ZM38.4835 35.6097C35.3262 39.4436 30.9326 42.0587 26.0571 43.0058L24.5315 35.1526C27.5826 34.5599 30.3322 32.9234 32.308 30.5241L38.4835 35.6097ZM26.0571 43.0058C21.1816 43.9529 16.1285 43.1731 11.7654 40.8001L15.5877 33.7723C18.3181 35.2573 21.4804 35.7453 24.5315 35.1526L26.0571 43.0058ZM11.7654 40.8001C7.40236 38.4272 4.00158 34.6092 2.14707 30.0018L9.56845 27.0146C10.729 29.898 12.8572 32.2873 15.5877 33.7723L11.7654 40.8001ZM2.14707 30.0018C0.292557 25.3944 0.100021 20.2851 1.60253 15.5512L9.22767 17.9713C8.28739 20.9338 8.40788 24.1313 9.56845 27.0146L2.14707 30.0018ZM1.60253 15.5512C3.10504 10.8173 6.20883 6.75417 10.3809 4.05958L14.7213 10.7798C12.1103 12.4661 10.1679 15.0088 9.22767 17.9713L1.60253 15.5512ZM10.3809 4.05958C14.5531 1.36499 19.5332 0.207044 24.4661 0.784573L23.5358 8.7303C20.4488 8.36888 17.3322 9.09353 14.7213 10.7798L10.3809 4.05958ZM24.4661 0.784573C29.399 1.3621 33.977 3.63907 37.4139 7.22449L31.6386 12.7604C29.4878 10.5167 26.6229 9.09172 23.5358 8.7303L24.4661 0.784573ZM37.4581 7.27142C37.1514 6.94091 36.7819 6.67473 36.3712 6.48842L33.066 13.7737C32.51 13.5214 32.0097 13.161 31.5944 12.7135L37.4581 7.27142ZM36.3712 6.48842C35.9606 6.30211 35.5169 6.19939 35.0662 6.18625L34.8331 14.1829C34.2228 14.1651 33.6221 14.026 33.066 13.7737L36.3712 6.48842ZM35.0662 6.18625C34.6155 6.17311 34.1666 6.2498 33.7458 6.41187L36.6209 13.8774C36.0511 14.0968 35.4434 14.2006 34.8331 14.1829L35.0662 6.18625ZM33.7458 6.41187C33.325 6.57394 32.9406 6.81814 32.6151 7.13022L38.1519 12.9047C37.7112 13.3273 37.1907 13.6579 36.6209 13.8774L33.7458 6.41187ZM32.6151 7.13022C32.2897 7.44231 32.0295 7.81605 31.8499 8.22969L39.188 11.416C38.9448 11.9761 38.5926 12.4821 38.1519 12.9047L32.6151 7.13022ZM31.8499 8.22969C31.6703 8.64334 31.5748 9.08857 31.569 9.53946L39.5683 9.64253C39.5605 10.253 39.4312 10.8559 39.188 11.416L31.8499 8.22969ZM31.569 9.53946C31.5632 9.99035 31.6472 10.4379 31.8161 10.856L39.2338 7.85986C39.4625 8.42602 39.5762 9.03202 39.5683 9.64253L31.569 9.53946ZM31.8161 10.856C31.985 11.2742 32.2354 11.6545 32.5527 11.9749L38.2364 6.34495C38.6661 6.77874 39.0051 7.29371 39.2338 7.85986L31.8161 10.856ZM32.5051 11.926C30.4954 9.82664 27.9032 8.37704 25.0624 7.76389L26.7502 -0.0560363C31.1526 0.894155 35.1696 3.14055 38.284 6.39383L32.5051 11.926ZM25.0624 7.76389C22.2216 7.15073 19.2623 7.40209 16.5656 8.4856L13.583 1.06238C17.762 -0.616698 22.3479 -1.00623 26.7502 -0.0560363L25.0624 7.76389ZM16.5656 8.4856C13.8689 9.56911 11.5583 11.4351 9.93147 13.8434L3.30233 9.36515C5.82339 5.6332 9.404 2.74147 13.583 1.06238L16.5656 8.4856ZM9.93147 13.8434C8.30463 16.2516 7.43601 19.0917 7.43749 21.998L-0.562504 22.002C-0.564804 17.4983 0.781265 13.0971 3.30233 9.36515L9.93147 13.8434ZM35.876 17.5758C35.7064 17.045 35.5062 16.5245 35.2763 16.0169L42.5638 12.7165C42.9213 13.5059 43.2327 14.3154 43.4965 15.141L35.876 17.5758ZM35.2768 16.018C35.4611 16.4245 35.7236 16.7907 36.0493 17.0957L41.5173 11.2561C41.9584 11.6691 42.3138 12.165 42.5633 12.7153L35.2768 16.018ZM36.0493 17.0957C36.3751 17.4008 36.7578 17.6387 37.1755 17.7958L39.9924 10.3082C40.558 10.5209 41.0761 10.843 41.5173 11.2561L36.0493 17.0957ZM37.1755 17.7958C37.5932 17.9529 38.0377 18.0263 38.4838 18.0116L38.2209 10.0159C38.8249 9.99608 39.4268 10.0954 39.9924 10.3082L37.1755 17.7958ZM38.4838 18.0116C38.9299 17.9969 39.3686 17.8946 39.7751 17.7103L36.4724 10.4239C37.0228 10.1744 37.6169 10.0358 38.2209 10.0159L38.4838 18.0116ZM39.7751 17.7103C40.1816 17.5261 40.5478 17.2636 40.8528 16.9378L35.0131 11.4699C35.4262 11.0288 35.922 10.6734 36.4724 10.4239L39.7751 17.7103ZM40.8528 16.9378C41.1578 16.6121 41.3957 16.2294 41.5529 15.8117L34.0652 12.9947C34.278 12.4291 34.6001 11.911 35.0131 11.4699L40.8528 16.9378ZM41.5529 15.8117C41.71 15.394 41.7833 14.9494 41.7687 14.5034L33.773 14.7662C33.7531 14.1623 33.8524 13.5603 34.0652 12.9947L41.5529 15.8117ZM41.7687 14.5034C41.754 14.0573 41.6516 13.6185 41.4674 13.2121L34.181 16.5147C33.9315 15.9644 33.7929 15.3702 33.773 14.7662L41.7687 14.5034ZM41.4681 13.2136C41.806 13.96 42.1005 14.7252 42.3501 15.5056L34.7303 17.9426C34.5747 17.456 34.391 16.9787 34.1803 16.5132L41.4681 13.2136ZM42.3673 15.5609C42.2364 15.1301 42.0212 14.7296 41.7341 14.3827L35.5705 19.4826C35.1818 19.0129 34.8904 18.4707 34.7131 17.8874L42.3673 15.5609ZM41.7341 14.3827C41.4471 14.0358 41.094 13.7494 40.6953 13.5401L36.977 20.6235C36.4372 20.3401 35.9591 19.9523 35.5705 19.4826L41.7341 14.3827ZM40.6953 13.5401C40.2967 13.3309 39.8604 13.2029 39.4119 13.1637L38.7148 21.1332C38.1075 21.0801 37.5168 20.9069 36.977 20.6235L40.6953 13.5401ZM39.4119 13.1637C38.9634 13.1244 38.5115 13.1747 38.0825 13.3116L40.5148 20.9329C39.934 21.1183 39.3222 21.1864 38.7148 21.1332L39.4119 13.1637ZM38.0825 13.3116C37.6536 13.4485 37.2561 13.6693 36.9133 13.9611L42.098 20.0535C41.6338 20.4486 41.0956 20.7476 40.5148 20.9329L38.0825 13.3116ZM36.9133 13.9611C36.5704 14.2529 36.2889 14.6099 36.0852 15.0114L43.2193 18.6313C42.9434 19.175 42.5623 19.6585 42.098 20.0535L36.9133 13.9611ZM36.0852 15.0114C35.8814 15.4129 35.7595 15.8509 35.7265 16.3L43.7049 16.8866C43.6602 17.4946 43.4952 18.0877 43.2193 18.6313L36.0852 15.0114ZM35.7265 16.3C35.6935 16.749 35.75 17.2001 35.8928 17.6271L43.4797 15.0896C43.6731 15.6678 43.7497 16.2786 43.7049 16.8866L35.7265 16.3Z"
                            fill="url(#paintz11_linear)" mask="url(#path-6-inside-1)" />
                        <defs>
                            <linearGradient id="paintz0_linear" x1="21.9247" y1="27.5093" x2="21.9247" y2="34.8333"
                                gradientUnits="userSpaceOnUse">
                                <stop stop-color="#41AFC1" />
                                <stop offset="1" stop-color="#D0E6EB" />
                            </linearGradient>
                            <linearGradient id="paintz1_linear" x1="21.9247" y1="27.5093" x2="21.9247" y2="34.8333"
                                gradientUnits="userSpaceOnUse">
                                <stop stop-color="#41AFC1" />
                                <stop offset="1" stop-color="#D0E6EB" />
                            </linearGradient>
                            <linearGradient id="paintz2_linear" x1="21.9103" y1="9.16675" x2="21.9103" y2="31.5172"
                                gradientUnits="userSpaceOnUse">
                                <stop stop-color="#41AFC1" />
                                <stop offset="1" stop-color="#D0E6EB" />
                            </linearGradient>
                            <linearGradient id="paintz3_linear" x1="21.9103" y1="9.16675" x2="21.9103" y2="31.5172"
                                gradientUnits="userSpaceOnUse">
                                <stop stop-color="#41AFC1" />
                                <stop offset="1" stop-color="#D0E6EB" />
                            </linearGradient>
                            <linearGradient id="paintz4_linear" x1="19.6238" y1="17.9841" x2="19.6238" y2="19.802"
                                gradientUnits="userSpaceOnUse">
                                <stop stop-color="#41AFC1" />
                                <stop offset="1" stop-color="#D0E6EB" />
                            </linearGradient>
                            <linearGradient id="paintz5_linear" x1="19.6238" y1="17.9841" x2="19.6238" y2="19.802"
                                gradientUnits="userSpaceOnUse">
                                <stop stop-color="#41AFC1" />
                                <stop offset="1" stop-color="#D0E6EB" />
                            </linearGradient>
                            <linearGradient id="paintz6_linear" x1="24.2254" y1="17.9841" x2="24.2254" y2="19.802"
                                gradientUnits="userSpaceOnUse">
                                <stop stop-color="#41AFC1" />
                                <stop offset="1" stop-color="#D0E6EB" />
                            </linearGradient>
                            <linearGradient id="paintz7_linear" x1="24.2254" y1="17.9841" x2="24.2254" y2="19.802"
                                gradientUnits="userSpaceOnUse">
                                <stop stop-color="#41AFC1" />
                                <stop offset="1" stop-color="#D0E6EB" />
                            </linearGradient>
                            <linearGradient id="paintz8_linear" x1="21.9251" y1="20.9507" x2="21.9251" y2="22.2554"
                                gradientUnits="userSpaceOnUse">
                                <stop stop-color="#41AFC1" />
                                <stop offset="1" stop-color="#D0E6EB" />
                            </linearGradient>
                            <linearGradient id="paintz9_linear" x1="21.9251" y1="20.9507" x2="21.9251" y2="22.2554"
                                gradientUnits="userSpaceOnUse">
                                <stop stop-color="#41AFC1" />
                                <stop offset="1" stop-color="#D0E6EB" />
                            </linearGradient>
                            <linearGradient id="paintz10_linear" x1="22" y1="0" x2="22" y2="44"
                                gradientUnits="userSpaceOnUse">
                                <stop stop-color="#41AFC1" />
                                <stop offset="1" stop-color="#D0E6EB" />
                            </linearGradient>
                            <linearGradient id="paintz11_linear" x1="22" y1="0" x2="22" y2="44"
                                gradientUnits="userSpaceOnUse">
                                <stop stop-color="#41AFC1" />
                                <stop offset="1" stop-color="#D0E6EB" />
                            </linearGradient>
                        </defs>
                    </svg>