<svg width="120" height="120" viewBox="0 0 120 120" xmlns="http://www.w3.org/2000/svg">
          <path
            d="M67.5071 49.1448C66.5363 49.1448 65.7493 49.9318 65.7493 50.9026V51.3716C65.7493 52.3423 66.5363 53.1294 67.5071 53.1294C68.4779 53.1294 69.2649 52.3423 69.2649 51.3716V50.9026C69.2649 49.9318 68.4779 49.1448 67.5071 49.1448Z"
            fill="#39516e" />
          <path
            d="M42.0184 49.1448C41.0477 49.1448 40.2606 49.9318 40.2606 50.9026V51.3716C40.2606 52.3423 41.0477 53.1294 42.0184 53.1294C42.9892 53.1294 43.7762 52.3423 43.7762 51.3716V50.9026C43.7762 49.9316 42.9892 49.1448 42.0184 49.1448Z"
            fill="#39516e" />
          <path
            d="M62.2541 60.956C61.4556 60.4031 60.3608 60.6023 59.8081 61.4003C58.6604 63.0576 56.7744 64.0471 54.7628 64.0471C52.7511 64.0471 50.8649 63.0576 49.7174 61.4006C49.165 60.6023 48.0695 60.4033 47.2715 60.956C46.4734 61.5086 46.2744 62.6036 46.8271 63.4019C48.6311 66.0072 51.5975 67.5628 54.7628 67.5628C57.9275 67.5628 60.8942 66.0072 62.6985 63.4019C63.2511 62.6036 63.0521 61.5086 62.2541 60.956Z"
            fill="#39516e" />
          <path
            d="M103.068 79.8132C98.3865 75.1318 90.7695 75.1318 86.0884 79.8132C83.8733 82.0283 82.6166 85.0325 82.5744 88.1508L81.3653 89.5386C77.9136 85.838 73.2228 83.6584 68.1285 83.4169C68.0755 83.4144 68.0225 83.4123 67.9696 83.4102C67.7071 83.3998 67.4441 83.3928 67.1797 83.3928H66.5094H66.3969V82.0937C69.2872 83.2449 72.3568 84.0256 75.4475 84.3842C75.5155 84.3922 75.5832 84.3959 75.6505 84.3959C76.2697 84.3959 76.85 84.0685 77.1676 83.5255C77.5196 82.9234 77.4824 82.1698 77.0724 81.6052C75.9217 80.0209 77.1278 77.4952 78.5089 75.8152C79.3074 74.8463 80.2637 73.985 81.2764 73.0728C82.265 72.1824 83.2841 71.2649 84.1949 70.2017C88.6585 68.2201 91.5174 63.8471 91.5174 58.9358C91.5174 56.8586 90.9943 54.8331 90.0148 53.0371C95.9148 50.9636 99.9711 45.392 99.9711 38.9249C99.9711 36.1586 99.2112 33.4572 97.7736 31.113C97.2662 30.2852 96.1836 30.026 95.3562 30.5334C94.5287 31.041 94.2692 32.1234 94.7766 32.951C95.8752 34.7418 96.4557 36.8076 96.4557 38.9247C96.4557 44.5712 92.4162 49.3248 86.8508 50.2279C86.2196 50.3303 85.6937 50.7676 85.4778 51.3695C85.262 51.9714 85.3899 52.6433 85.8123 53.1236C87.2244 54.73 88.002 56.7939 88.002 58.9356C88.002 62.556 85.828 65.7674 82.4633 67.1174C82.1849 67.2292 81.9397 67.4103 81.7508 67.6435C80.9445 68.6408 79.963 69.5246 78.924 70.4605C77.8604 71.4184 76.7607 72.4089 75.7949 73.581C74.2299 75.4843 72.981 78.0134 73.0996 80.4481C71.286 80.0736 69.5017 79.5413 67.7872 78.8642C67.8472 78.8328 67.9054 78.7988 67.9649 78.767C68.0882 78.7013 68.21 78.6336 68.3322 78.5661C68.4918 78.4777 68.6511 78.3887 68.8089 78.2975C68.9549 78.2131 69.0997 78.1266 69.2441 78.0397C69.3714 77.9628 69.4982 77.8857 69.6238 77.807C69.7923 77.7017 69.9592 77.5948 70.1251 77.4861C70.2198 77.424 70.314 77.3614 70.408 77.2981C70.5983 77.1702 70.7872 77.0403 70.9745 76.9077C71.0366 76.8636 71.098 76.8191 71.1596 76.7748C71.3727 76.6213 71.5836 76.4656 71.7922 76.3063C71.8189 76.2856 71.8454 76.2648 71.8721 76.2441C74.1901 74.4596 76.2301 72.3149 77.9139 69.8617C80.3818 66.2654 81.9517 62.1934 82.5479 57.9163C82.5514 57.891 82.5545 57.8657 82.558 57.8404C82.5971 57.5537 82.6335 57.2664 82.6637 56.9779C82.6724 56.8958 82.6787 56.8133 82.6869 56.7313C82.7099 56.492 82.7328 56.2525 82.7499 56.012C82.7612 55.8559 82.7677 55.6989 82.7762 55.5423C82.7856 55.3684 82.7973 55.195 82.8036 55.0206C82.8158 54.6829 82.8226 54.3442 82.8226 54.0044V51.5387V51.3348C82.8226 50.8415 82.6152 50.3706 82.251 50.0378C81.887 49.7047 81.399 49.5397 80.9082 49.584C80.6994 49.6028 80.4831 49.6122 80.2656 49.6122C80.0701 49.6122 79.876 49.603 79.6834 49.589L79.5116 49.5726C79.355 49.5576 79.1989 49.5405 79.0445 49.5161C79.0227 49.5123 79.0009 49.5088 78.9789 49.5058C78.9756 49.5053 78.973 49.5046 78.9697 49.5041C78.7892 49.4741 78.6106 49.4373 78.4339 49.3949C78.407 49.3883 78.381 49.3822 78.3524 49.3747C78.1841 49.3323 78.0177 49.2833 77.8532 49.2297L77.6727 49.1662C77.5307 49.1158 77.3893 49.0637 77.2506 49.0049C77.2459 49.003 77.2396 49.0005 77.2358 48.9988L77.1688 48.969C77.1627 48.9662 77.1564 48.9634 77.1503 48.9606C77.0042 48.8962 76.8601 48.827 76.7178 48.7534C76.6846 48.7363 76.6513 48.7199 76.6178 48.7021C76.4675 48.6215 76.3201 48.5343 76.1746 48.4433C76.1731 48.4424 76.1715 48.4415 76.1699 48.4405C76.1551 48.4312 76.1403 48.4218 76.1253 48.4126C76.1031 48.3993 76.0834 48.3862 76.0644 48.374C75.9364 48.291 75.8115 48.2019 75.6878 48.111C75.6146 48.0573 75.542 48.0032 75.4712 47.9474C75.4358 47.9195 75.4007 47.8914 75.366 47.863C75.2893 47.8005 75.2143 47.7365 75.1405 47.6716C75.0992 47.6352 75.0585 47.5987 75.0182 47.5616C74.9553 47.504 74.8937 47.4449 74.833 47.3854C74.7845 47.3378 74.7364 47.29 74.6893 47.2415C74.6408 47.1916 74.5937 47.1405 74.5468 47.0894C74.4913 47.0287 74.436 46.9675 74.3823 46.9051C74.3478 46.8651 74.3143 46.8241 74.2806 46.7833C74.2187 46.7083 74.1578 46.6326 74.0989 46.5555C74.0767 46.5262 74.0551 46.4964 74.0333 46.4669C73.967 46.3773 73.9021 46.2869 73.8397 46.1948C73.8275 46.1767 73.8158 46.1582 73.8036 46.1399C73.735 46.0363 73.6682 45.9316 73.6049 45.8249C73.6002 45.8169 73.5957 45.809 73.5911 45.801C73.2355 45.198 72.9629 44.5483 72.7825 43.8677C72.7822 43.8667 72.782 43.8658 72.7818 43.8646C72.759 43.7786 72.7403 43.6912 72.7203 43.604C76.0215 42.8041 79.1263 41.5942 81.9338 39.9927C89.4102 35.736 93.698 29.3142 93.698 22.3739C93.698 16.2818 90.4189 10.5954 84.4644 6.36257C78.692 2.25984 71.0481 0 62.9408 0C51.2852 0 40.7088 4.75405 35.5047 12.2191C34.1189 11.8179 32.6873 11.6151 31.2321 11.6151C27.5074 11.6151 23.9121 12.9626 21.1083 15.409C20.3768 16.0474 20.3013 17.1576 20.9395 17.8893C21.5779 18.6208 22.6882 18.6965 23.4197 18.0581C25.5829 16.1704 28.3572 15.131 31.2321 15.131C32.7311 15.131 34.1976 15.4097 35.5907 15.9595C36.3914 16.2754 37.3038 15.9649 37.7451 15.2257C41.9929 8.11194 51.8828 3.51562 62.9408 3.51562C77.9617 3.51562 90.182 11.9756 90.182 22.3746C90.182 28.016 86.5414 33.3243 80.1927 36.9391C75.9662 39.3498 70.776 40.8166 65.3664 41.1564C65.3094 41.1599 65.2525 41.1634 65.1955 41.1667C64.896 41.1843 64.5955 41.1972 64.2946 41.2077C64.2074 41.2108 64.1204 41.2148 64.033 41.2171C63.6829 41.227 63.332 41.2328 62.9807 41.233C62.9671 41.233 62.9535 41.2335 62.9399 41.2335C62.9303 41.2335 62.9207 41.2333 62.9111 41.2333C62.6216 41.233 62.3329 41.2286 62.0451 41.222C61.9433 41.2197 61.8416 41.2166 61.7399 41.2134C61.5381 41.2073 61.337 41.1993 61.1361 41.1899C61.0244 41.1848 60.9121 41.1803 60.8005 41.1742C60.5404 41.1599 60.2812 41.143 60.0229 41.1238C59.8469 41.1105 59.6715 41.0948 59.4962 41.0793C59.4034 41.0711 59.3106 41.0629 59.2183 41.054C59.0111 41.0341 58.8044 41.013 58.5981 40.9898C58.5892 40.9888 58.5803 40.9877 58.5714 40.9867C52.3853 40.2841 46.6734 38.1048 42.4598 34.7716C42.4117 34.7336 42.3623 34.6989 42.3119 34.6668C40.5042 33.2113 38.9929 31.5515 37.8642 29.7199C37.2857 28.7812 36.816 27.8041 36.468 26.8157C36.1455 25.9 35.1424 25.4193 34.2262 25.7416C33.3105 26.0641 32.8296 27.0677 33.1521 27.9834C33.5831 29.2075 34.1615 30.4122 34.8712 31.5639C35.9106 33.2507 37.2227 34.81 38.7553 36.2235C38.7494 36.2282 38.744 36.2334 38.7381 36.2381C38.616 36.3377 38.4906 36.4328 38.3645 36.5275C38.3299 36.5538 38.2963 36.5816 38.2614 36.6074C38.1257 36.707 37.987 36.802 37.8471 36.8957C37.8192 36.9145 37.7924 36.9349 37.7643 36.9531C37.6919 37.0007 37.6167 37.0445 37.5431 37.0907C37.518 37.1064 37.4929 37.1221 37.4678 37.1376C37.3945 37.1828 37.3228 37.2304 37.2482 37.274C37.1404 37.3373 37.0296 37.3956 36.9196 37.4556C36.8517 37.4927 36.7853 37.532 36.7164 37.5679C36.5364 37.6614 36.3534 37.7507 36.1678 37.8356C35.6978 38.0502 35.346 38.4609 35.2059 38.9582C35.066 39.4556 35.152 39.9895 35.441 40.4177C35.6041 40.6593 35.7414 40.9143 35.8579 41.1775C36.1335 41.8002 36.2798 42.4752 36.2798 43.169C36.2798 43.319 36.2706 43.4673 36.2578 43.6148C36.2549 43.6464 36.2526 43.6783 36.2491 43.7097C36.2346 43.8416 36.2139 43.9715 36.1893 44.1002C36.1802 44.1473 36.1699 44.1944 36.1593 44.241C36.1354 44.3476 36.1085 44.4529 36.078 44.5569C36.0599 44.6181 36.0398 44.6788 36.0194 44.7391C35.9915 44.8216 35.9617 44.9031 35.9296 44.9837C35.9092 45.0348 35.8898 45.0862 35.8678 45.1363C35.8204 45.2446 35.7689 45.3508 35.714 45.4548C35.6915 45.498 35.6678 45.5404 35.6439 45.5828C35.5809 45.6944 35.5157 45.8048 35.4445 45.9109C35.4346 45.9255 35.4239 45.9395 35.4138 45.9541C35.3578 46.0356 35.2971 46.1134 35.2364 46.1912C35.2017 46.2353 35.1698 46.281 35.1335 46.3239C35.0868 46.3797 35.036 46.4312 34.9872 46.4849C34.9209 46.5571 34.8553 46.6298 34.7842 46.6984C34.7369 46.7444 34.687 46.7875 34.6378 46.8316C34.5738 46.8894 34.5098 46.9476 34.4432 47.0017C34.3689 47.0617 34.2916 47.1177 34.2138 47.1733C34.1676 47.2066 34.1224 47.2412 34.075 47.2729C33.9794 47.3364 33.8805 47.395 33.7804 47.4519C33.7457 47.4719 33.7117 47.4934 33.6766 47.5124C33.5678 47.5708 33.4556 47.6233 33.3424 47.6737C33.3112 47.6875 33.281 47.7032 33.2496 47.7163C33.135 47.7644 33.0171 47.8058 32.8982 47.8452C32.8647 47.8562 32.8319 47.8696 32.7979 47.8801C32.681 47.916 32.5612 47.9448 32.441 47.9723C32.4032 47.9807 32.3662 47.9922 32.3282 47.9997C32.2043 48.0247 32.0775 48.0421 31.9502 48.0576C31.9153 48.0618 31.881 48.069 31.8459 48.0726C31.6835 48.0887 31.5187 48.0976 31.3521 48.0976C31.2585 48.0976 31.1655 48.0951 31.0732 48.0901C30.426 48.0548 29.8054 47.8951 29.2221 47.6137C27.5224 46.7983 26.4239 45.0538 26.4239 43.1694C26.4239 42.1987 25.6368 41.4116 24.6661 41.4116C23.6953 41.4116 22.9082 42.1987 22.9082 43.1694C22.9082 46.0129 24.3686 48.6688 26.7035 50.2155V54.0044C26.7035 54.0627 26.7063 54.1206 26.7068 54.179C26.7084 54.4384 26.7126 54.6974 26.7213 54.9557C26.7262 55.1052 26.7346 55.254 26.7419 55.4031C26.7501 55.5676 26.7586 55.7319 26.7696 55.8958C26.7815 56.0767 26.7956 56.2569 26.8111 56.4372C26.8209 56.5515 26.8319 56.6657 26.8432 56.7798C26.8645 56.9983 26.8872 57.2165 26.9135 57.4337C26.9149 57.445 26.9165 57.456 26.9179 57.4672C27.895 65.4489 32.2155 72.5394 38.7508 77.0584C36.1553 78.2579 33.375 79.1108 31.0865 79.4345C31.9549 77.6713 32.1817 75.5788 31.8473 73.7581C31.2846 70.6963 29.4825 68.1601 27.685 65.8248L27.4392 65.5061C25.8853 63.4911 24.4176 61.5882 23.7836 59.4086C23.4328 58.1943 23.4335 56.8656 23.7857 55.7631C24.0726 54.8657 23.6008 53.9017 22.7161 53.5773C19.259 52.311 16.9364 48.9843 16.9364 45.2997C16.9364 41.9973 18.7608 38.9988 21.6975 37.4741C22.1744 37.2264 22.5119 36.7745 22.6136 36.247C22.7154 35.7194 22.5703 35.1742 22.2197 34.7671C20.3648 32.6132 19.3434 29.8619 19.3434 27.0196C19.3434 25.7064 19.5555 24.4171 19.9741 23.1874C20.2868 22.2684 19.7953 21.2697 18.8763 20.9568C17.9571 20.6439 16.9587 21.1357 16.6458 22.0546C16.1029 23.6498 15.8276 25.3202 15.8276 27.0196C15.8276 30.0257 16.709 32.9531 18.3398 35.4456C15.2641 37.7521 13.4205 41.372 13.4205 45.2997C13.4205 49.9319 16.0451 54.1595 20.088 56.2543C19.9078 57.605 20.0137 59.0279 20.4065 60.3875C21.2271 63.2085 22.9697 65.4681 24.6548 67.6532L24.8986 67.9696C26.4975 70.0468 27.9677 72.1011 28.3891 74.3938C28.7357 76.2805 28.0753 78.7002 26.3695 79.4839C25.6992 79.7919 25.2925 80.4854 25.3509 81.2206C25.4095 81.9559 25.9209 82.5765 26.6313 82.7743C27.408 82.9909 28.2864 83.0898 29.2336 83.0898C33.2378 83.0895 38.4606 81.3188 42.3508 79.1724C42.6074 79.2985 42.8667 79.4206 43.1282 79.5395V83.3928H43.0249C43.0218 83.3928 43.019 83.3921 43.0162 83.3921H42.3461C42.0257 83.3921 41.7063 83.4015 41.3877 83.4172C41.316 83.4207 41.2452 83.4273 41.1738 83.4315C40.9319 83.446 40.6905 83.4634 40.4498 83.4868C40.3544 83.4959 40.2599 83.5079 40.165 83.5184C39.9489 83.5426 39.7333 83.5695 39.5181 83.6009C39.4169 83.6157 39.3163 83.6321 39.2158 83.6485C39.0077 83.6823 38.8003 83.7193 38.5935 83.7598C38.4935 83.7795 38.3934 83.7997 38.2938 83.8208C38.0861 83.8651 37.8792 83.9134 37.6729 83.9644C37.5794 83.9876 37.4856 84.0102 37.3924 84.0348C37.1742 84.0922 36.9574 84.155 36.7408 84.2202C36.6646 84.2431 36.588 84.2645 36.5123 84.2884C36.254 84.3697 35.9971 84.4573 35.7417 84.5497C35.7131 84.5602 35.6838 84.5694 35.6549 84.5799C35.6198 84.5928 35.5839 84.6038 35.5485 84.6169C35.5129 84.6303 35.4794 84.6474 35.4447 84.6629C28.1245 87.4529 22.9085 94.5418 22.9085 102.83V118.242C22.9085 119.213 23.6955 120 24.6663 120H54.7593C54.76 120 54.7607 120 54.7612 120C54.7619 120 54.7626 120 54.763 120H84.8581C85.8289 120 86.616 119.213 86.616 118.242V113.97C86.616 112.999 85.8289 112.212 84.8581 112.212C83.8874 112.212 83.1003 112.999 83.1003 113.97V116.484H76.1638L94.7274 100.307C97.8462 100.267 100.852 99.0108 103.068 96.7951C107.75 92.1132 107.75 84.4951 103.068 79.8132ZM79.0412 92.2055L77.3563 94.1391L76.1162 89.6394C77.1805 90.3638 78.1632 91.2219 79.0412 92.2055ZM67.7467 86.9192C67.7828 86.9204 67.8186 86.9225 67.8545 86.9239C67.9813 86.9293 68.1079 86.9351 68.2342 86.9436C68.2731 86.9462 68.3118 86.9492 68.3507 86.952C68.4941 86.9623 68.6373 86.9743 68.78 86.9883C68.7983 86.9902 68.8166 86.9921 68.8349 86.994C69.8814 87.102 70.911 87.313 71.9143 87.6256L74.5857 97.3191L71.9891 100.299L67.8578 98.6616C67.0979 98.3604 66.2315 98.6227 65.7658 99.294L60.8256 106.416L63.9709 97.5554L67.7467 86.9192ZM30.4516 57.3779C30.4481 57.3526 30.445 57.3275 30.4417 57.3022C30.4089 57.0597 30.3796 56.8159 30.3541 56.5717C30.3473 56.5054 30.3417 56.4388 30.3353 56.3725C30.315 56.1604 30.2957 55.9478 30.2807 55.7347C30.2735 55.629 30.2688 55.5224 30.2629 55.4165C30.2526 55.2353 30.2414 55.0541 30.235 54.8722C30.2294 54.707 30.2282 54.5406 30.2257 54.3747C30.2238 54.2509 30.2193 54.1276 30.2193 54.0034V51.5392C30.2322 51.5408 30.2456 51.5415 30.2585 51.5432C30.28 51.546 30.3018 51.5476 30.3234 51.5502C30.3782 51.5568 30.4333 51.5629 30.4884 51.5683C30.5601 51.5755 30.6321 51.5821 30.7043 51.5875C30.7462 51.5905 30.7879 51.5943 30.8299 51.5966C30.8636 51.5987 30.8974 51.6001 30.9314 51.6018C31.0387 51.6069 31.146 51.6093 31.2534 51.6107C31.2628 51.6109 31.2721 51.6114 31.2815 51.6114C31.3047 51.6116 31.3275 51.6137 31.3507 51.6137C31.3605 51.6137 31.3703 51.613 31.3804 51.613C31.4163 51.6128 31.4521 51.6109 31.488 51.6105C31.586 51.6088 31.6837 51.6074 31.7812 51.6025C31.7866 51.6022 31.792 51.6018 31.7974 51.6015C31.8314 51.5997 31.867 51.5971 31.9171 51.5929C31.9258 51.5924 31.9345 51.5915 31.9434 51.5908C32.0287 51.5849 32.114 51.5793 32.1986 51.5708C32.1996 51.5708 32.2007 51.5706 32.2017 51.5706C32.2031 51.5704 32.2045 51.5704 32.2057 51.5701C32.2216 51.5685 32.2375 51.5662 32.2535 51.5645C32.2785 51.5615 32.3039 51.5589 32.3287 51.5556L32.3812 51.549C32.46 51.5394 32.5387 51.5301 32.617 51.5183C32.6186 51.5181 32.6203 51.5179 32.6219 51.5176C32.624 51.5174 32.6261 51.5169 32.6282 51.5165C32.643 51.5141 32.6578 51.5113 32.6725 51.509C32.6927 51.5057 32.7131 51.5022 32.7332 51.4986C32.8371 51.4815 32.9404 51.4635 33.0431 51.4426C33.0539 51.4403 33.0646 51.4377 33.0757 51.4356C34.3867 51.1642 35.6111 50.5851 36.6553 49.7362C36.6916 49.7069 36.727 49.6766 36.7628 49.6466C36.8381 49.5833 36.9126 49.5187 36.9857 49.4526C37.0382 49.4055 37.0905 49.3579 37.1416 49.3096C37.1566 49.2953 37.1723 49.2822 37.187 49.2679C37.2149 49.2412 37.2412 49.213 37.2686 49.1861C37.2979 49.1572 37.3274 49.1282 37.3563 49.0989C37.3895 49.0651 37.4238 49.0321 37.4563 48.9976C37.4957 48.9564 37.5339 48.9142 37.5724 48.8722C37.5953 48.8472 37.6178 48.8216 37.6406 48.7963C37.7102 48.7187 37.7786 48.6405 37.8449 48.5603C37.866 48.535 37.8862 48.5092 37.9071 48.4837C37.9708 48.4049 38.0341 48.3257 38.0948 48.2448C38.1229 48.2076 38.1499 48.1694 38.1773 48.1316C38.2274 48.0625 38.2778 47.9936 38.3259 47.923C38.3702 47.8583 38.4121 47.7923 38.4545 47.7264C38.4831 47.6816 38.5127 47.6376 38.5406 47.5923C39.0815 46.7165 39.4652 45.7347 39.6562 44.6861C39.6585 44.6727 39.6609 44.6594 39.6635 44.646C39.6878 44.5077 39.7089 44.3685 39.7267 44.2281C39.7305 44.1984 39.7347 44.1686 39.7382 44.1388C39.7528 44.0118 39.7642 43.8838 39.7729 43.7549C39.7755 43.7195 39.779 43.6841 39.7811 43.6485C39.79 43.4898 39.7956 43.3302 39.7956 43.1692C39.7956 42.1356 39.6093 41.1238 39.2486 40.1741C39.2538 40.1711 39.2585 40.1676 39.2636 40.1645C39.4434 40.0546 39.6203 39.9405 39.7952 39.8233C39.85 39.7865 39.9039 39.7485 39.9583 39.7113C40.0856 39.6236 40.2114 39.5345 40.3361 39.4431C40.3938 39.4007 40.4514 39.3583 40.5086 39.3152C40.6406 39.2155 40.7706 39.1134 40.8993 39.0093C40.931 38.9838 40.9638 38.9601 40.9949 38.9343C41.0043 38.9266 41.013 38.9184 41.0224 38.9109C41.1874 38.7747 41.35 38.6348 41.5096 38.4913C41.5183 38.4836 41.5274 38.4763 41.5361 38.4684C44.2762 40.3933 47.4787 41.9167 50.953 42.9817C51.0126 43 51.0721 43.018 51.1316 43.0361C51.4202 43.123 51.7098 43.2077 52.0021 43.288C52.0349 43.2972 52.0677 43.3063 52.1005 43.3152C52.3762 43.3905 52.6534 43.4619 52.9319 43.5313C53.043 43.559 53.1543 43.5862 53.2659 43.6131C53.4815 43.6649 53.698 43.7148 53.9153 43.7634C54.0625 43.7962 54.2099 43.8283 54.3578 43.8594C54.5723 43.9047 54.7874 43.9485 55.0035 43.9905C55.1411 44.0172 55.2791 44.043 55.4174 44.0683C55.608 44.1032 55.799 44.1362 55.9905 44.1686C56.1705 44.1988 56.3507 44.2281 56.5316 44.2562C56.7414 44.2888 56.9516 44.32 57.1623 44.3493C57.2994 44.3683 57.437 44.3866 57.5746 44.4044C57.7893 44.432 58.0047 44.4578 58.2203 44.4822C58.3586 44.4977 58.4966 44.5131 58.6354 44.5274C58.888 44.5534 59.1414 44.5771 59.3955 44.5984C59.5115 44.6083 59.6275 44.6174 59.7437 44.6261C60.0163 44.6469 60.2894 44.6652 60.5633 44.6807C60.6217 44.684 60.6798 44.688 60.7384 44.691C61.0501 44.7072 61.3628 44.7191 61.6759 44.7285C61.7643 44.7311 61.8529 44.7334 61.9415 44.7355C62.274 44.7435 62.6071 44.7489 62.9408 44.7489C62.9483 44.7489 62.9558 44.7487 62.9633 44.7487C63.3327 44.7484 63.7014 44.7419 64.0698 44.7323C64.1722 44.7297 64.2749 44.7271 64.3771 44.7238C64.7176 44.7126 65.0575 44.6978 65.3966 44.6784C65.4426 44.6758 65.489 44.6748 65.5347 44.6723C65.6326 44.6664 65.7294 44.657 65.8272 44.6505C66.0332 44.6366 66.2387 44.6212 66.444 44.6045C66.6121 44.5909 66.7806 44.5785 66.9482 44.5628C67.0961 44.549 67.2428 44.5316 67.3902 44.5164C67.5104 44.5037 67.6311 44.492 67.7511 44.4784C67.9888 44.4517 68.2257 44.4226 68.462 44.3919C68.4943 44.3877 68.5267 44.383 68.5593 44.3788C68.795 44.3477 69.0313 44.3179 69.2654 44.2827C69.2882 44.3884 69.3156 44.4925 69.3414 44.5973C69.3554 44.6537 69.3676 44.7109 69.3824 44.7672C69.415 44.8912 69.4518 45.0133 69.4883 45.1359C69.5038 45.1869 69.5186 45.238 69.5347 45.2889C69.5753 45.4176 69.6184 45.5448 69.6634 45.6716C69.6751 45.7047 69.6875 45.7375 69.6997 45.7705C69.9153 46.3583 70.1795 46.9251 70.49 47.4665C70.5027 47.4887 70.5156 47.5108 70.5285 47.5328C70.6039 47.6624 70.6813 47.7908 70.7621 47.9174C70.7659 47.9233 70.7699 47.9289 70.7734 47.9348C70.9344 48.186 71.1057 48.4307 71.2871 48.669C71.3047 48.6922 71.3214 48.7162 71.3392 48.7391C71.4079 48.828 71.4793 48.9149 71.5511 49.0019C71.6052 49.0677 71.6598 49.1333 71.7153 49.198C71.7779 49.2705 71.841 49.3426 71.9054 49.4137C71.9858 49.5025 72.0686 49.5897 72.1522 49.6762C72.1989 49.7244 72.2443 49.7737 72.2919 49.821C72.4302 49.9593 72.5722 50.094 72.7182 50.2258C72.7375 50.2429 72.7574 50.2595 72.7766 50.2766C72.9109 50.3959 73.0485 50.5122 73.1891 50.6256C73.2207 50.6509 73.2526 50.676 73.2845 50.7013C73.344 50.7484 73.4024 50.7969 73.4631 50.8431C73.5957 50.9439 73.7307 51.0404 73.8669 51.1349C73.8683 51.1358 73.8704 51.1375 73.8718 51.1384C73.8807 51.1445 73.8901 51.1506 73.899 51.1567C75.3355 52.1462 76.9574 52.776 78.6739 53.0162C78.6807 53.0172 78.6875 53.0183 78.6943 53.0193C78.7079 53.0211 78.7215 53.023 78.7349 53.0244L78.7417 53.0254C78.8117 53.0347 78.8818 53.0444 78.9524 53.0526L78.9653 53.0542C78.9779 53.0558 78.9906 53.0572 79.0032 53.0584L79.2036 53.0788C79.2137 53.0797 79.224 53.0807 79.2341 53.0816L79.2678 53.0842C79.2805 53.0854 79.2929 53.087 79.3056 53.0879V54.0044C79.3056 54.3273 79.299 54.6496 79.2866 54.9704C79.2859 54.9899 79.284 55.0089 79.2833 55.0283C78.9083 64.0152 73.6215 72.058 65.6497 76.0067C65.4519 76.1042 65.2511 76.1973 65.05 76.2899C64.9726 76.3255 64.8967 76.3632 64.8189 76.3981C64.5981 76.4973 64.374 76.5913 64.1493 76.6843C64.0783 76.7136 64.0086 76.745 63.9372 76.7736C63.8617 76.8043 63.7829 76.8343 63.7058 76.8648C63.4515 76.9644 63.1963 77.0619 62.9373 77.1535C62.9371 77.1535 62.9371 77.1535 62.9369 77.1538C62.6654 77.2496 62.3922 77.3406 62.1175 77.4266C60.1937 78.0294 58.1948 78.3915 56.1571 78.5047C55.7019 78.5326 55.2454 78.5459 54.7619 78.5459C54.1642 78.5459 53.5696 78.5248 52.9785 78.4824C52.5545 78.4522 52.1326 78.41 51.7124 78.358C50.1365 78.163 48.5898 77.8156 47.0833 77.3188C46.5663 77.1481 46.0534 76.9611 45.5463 76.7553C45.546 76.7553 45.5458 76.7551 45.5456 76.7551C44.717 76.4192 43.9159 76.0407 43.1416 75.6261C43.1418 75.6259 43.1413 75.6254 43.1406 75.6249C36.1746 71.8719 31.5152 65.0699 30.4516 57.3779ZM37.611 87.627C37.8515 87.552 38.0946 87.4831 38.3395 87.4194C38.361 87.4137 38.3826 87.4081 38.4044 87.4027C38.8881 87.279 39.3808 87.178 39.8807 87.0997C39.9103 87.095 39.9398 87.0905 39.9693 87.0861C40.462 87.012 40.9619 86.9609 41.4681 86.9333C41.5063 86.9312 41.5448 86.9291 41.5832 86.9274C41.6484 86.9244 41.7142 86.9246 41.7796 86.9225L48.6986 106.413L43.7603 99.2928C43.424 98.8081 42.8786 98.5367 42.3152 98.5367C42.0986 98.5367 41.8792 98.5768 41.6681 98.6604L33.6998 101.818L37.611 87.627ZM26.4243 116.484V102.829C26.4243 97.3632 29.1939 92.5325 33.4028 89.6644L29.3732 104.285C29.196 104.928 29.3978 105.615 29.894 106.06C30.3902 106.506 31.0954 106.632 31.7153 106.386L41.6662 102.443L51.4042 116.484H26.4243ZM54.7626 112.987L45.4778 86.8306C45.7827 86.7366 46.0598 86.5606 46.2761 86.3169C46.6096 85.9407 46.7662 85.4396 46.7062 84.9404C46.6642 84.5916 46.6438 84.2731 46.6438 83.9668V80.8679C46.6602 80.8728 46.6766 80.8768 46.6931 80.8817C46.979 80.9677 47.2659 81.0484 47.5539 81.125C47.6209 81.1428 47.6884 81.1597 47.7555 81.177C48.0105 81.2427 48.2662 81.305 48.5228 81.3636C48.5706 81.3744 48.6182 81.3863 48.666 81.3969C48.9573 81.4616 49.2496 81.5206 49.543 81.5759C49.6138 81.5893 49.6848 81.602 49.7559 81.6146C50.023 81.6629 50.2907 81.7077 50.5595 81.748C50.5966 81.7536 50.6336 81.7599 50.6706 81.7653C50.968 81.8087 51.2666 81.8464 51.5659 81.8801C51.6386 81.8884 51.7112 81.8961 51.7839 81.9036C52.068 81.9336 52.3525 81.9601 52.638 81.9814C52.66 81.983 52.682 81.9854 52.7043 81.987C53.0076 82.0091 53.3116 82.0245 53.6165 82.0367C53.6905 82.0398 53.7646 82.0423 53.8387 82.0447C54.1459 82.0545 54.4539 82.0613 54.7626 82.0613C55.3105 82.0613 55.8519 82.0454 56.3624 82.014C56.6694 81.9969 56.9758 81.9737 57.2814 81.9467C57.381 81.9378 57.4801 81.9268 57.5795 81.917C57.7872 81.8963 57.9948 81.8743 58.2018 81.8492C58.3159 81.8354 58.4301 81.8199 58.544 81.8047C58.7387 81.7784 58.933 81.7505 59.1271 81.7203C59.2412 81.7025 59.3551 81.6847 59.4688 81.6655C59.6715 81.6312 59.8736 81.5942 60.0751 81.5555C60.1759 81.5363 60.2767 81.5183 60.377 81.4979C60.6482 81.443 60.9182 81.384 61.1875 81.3212C61.2161 81.3144 61.2449 81.309 61.2735 81.3022C61.5704 81.2316 61.8662 81.1555 62.1608 81.0753C62.2527 81.0502 62.3441 81.0228 62.4358 80.9968C62.5844 80.9546 62.7334 80.9143 62.8813 80.8698V83.967C62.8813 84.2743 62.8609 84.5926 62.819 84.9401C62.7587 85.4394 62.9153 85.9405 63.2488 86.3169C63.4651 86.5609 63.7424 86.7371 64.0476 86.8308L54.7626 112.987ZM58.1212 116.484L67.8597 102.444L69.5399 103.11L65.1843 108.108C64.5772 108.805 64.6131 109.853 65.2665 110.506L71.2447 116.484H58.1212ZM73.7005 113.968L68.9129 109.18L73.8217 103.547C73.8221 103.547 73.8226 103.546 73.8231 103.546L77.8567 98.9168C77.8574 98.9161 77.8578 98.9152 77.8585 98.9145L82.6524 93.413C82.656 93.409 82.6592 93.4051 82.6628 93.4011L83.3635 92.5969C83.3673 92.6065 83.3715 92.6157 83.3753 92.6253C83.4463 92.8095 83.521 92.9921 83.6012 93.1723C83.6087 93.1894 83.6174 93.2061 83.6251 93.2232C83.6982 93.3858 83.7744 93.5466 83.8548 93.706C83.885 93.7658 83.9176 93.8243 83.9488 93.8839C84.0095 93.9994 84.0709 94.1145 84.1353 94.2282C84.1735 94.2952 84.2134 94.3613 84.2528 94.4279C84.3146 94.5319 84.3772 94.6355 84.4421 94.7377C84.4853 94.8057 84.5296 94.8732 84.5743 94.9404C84.6402 95.0398 84.7077 95.138 84.7766 95.2355C84.8232 95.3014 84.8701 95.3672 84.9181 95.4322C84.9908 95.5306 85.0658 95.6274 85.1415 95.7237C85.1891 95.7842 85.2362 95.8451 85.2849 95.9047C85.37 96.0085 85.4579 96.1102 85.5467 96.2115C85.5899 96.2607 85.6318 96.3111 85.6759 96.3598C85.8102 96.5082 85.9475 96.654 86.0898 96.796C86.2318 96.9378 86.3776 97.0751 86.5257 97.2092C86.5745 97.2533 86.6249 97.295 86.6743 97.3383C86.7753 97.4267 86.8766 97.5143 86.9802 97.599C87.0399 97.6479 87.1011 97.6951 87.1618 97.7426C87.2579 97.8183 87.3547 97.8931 87.4529 97.9655C87.5176 98.0133 87.5832 98.06 87.6488 98.1064C87.7466 98.1755 87.845 98.243 87.9444 98.3091C88.0114 98.3536 88.0785 98.3975 88.1462 98.4406C88.2486 98.5055 88.3522 98.5686 88.4565 98.6302C88.5226 98.6693 88.5884 98.7092 88.6552 98.7472C88.7689 98.8116 88.8842 98.873 88.9998 98.9337C89.0588 98.9647 89.1172 98.9972 89.177 99.0272C89.3312 99.105 89.4873 99.1789 89.6445 99.2497C89.6668 99.2597 89.6884 99.271 89.7106 99.2808C89.8902 99.3605 90.072 99.435 90.2553 99.5058C90.2647 99.5096 90.2738 99.5138 90.2834 99.5173L73.7005 113.968ZM100.582 94.3093C98.8927 95.9989 96.5539 96.9024 94.1649 96.7847C92.0553 96.6821 90.0697 95.8025 88.5746 94.3093C88.3878 94.1225 88.2104 93.9277 88.0431 93.7264C86.8717 92.3157 86.1866 90.5633 86.0966 88.7145V88.7143C85.9822 86.326 86.8855 83.9879 88.5744 82.299C90.1784 80.6949 92.3108 79.8116 94.5784 79.8116C96.8459 79.8116 98.978 80.6949 100.582 82.299C103.894 85.6102 103.894 90.998 100.582 94.3093Z"
            fill="#39516e" />
          <path
            d="M83.7956 99.0861C83.1093 98.3997 81.9963 98.3997 81.3098 99.0861L78.8896 101.506C78.2031 102.193 78.2031 103.306 78.8896 103.992C79.2327 104.335 79.6827 104.507 80.1325 104.507C80.5823 104.507 81.0323 104.335 81.3754 103.992L83.7956 101.572C84.482 100.885 84.482 99.7724 83.7956 99.0861Z"
            fill="url(#paint4_linear)" />
        </svg>